<?xml version="1.0" encoding="UTF-8"?>
<svg id="Layer_2" data-name="Layer 2" xmlns="http://www.w3.org/2000/svg" viewBox="0 0 713.22 787.94">
  <defs>
    <style>
      .cls-1 {
        fill: #aae2df;
      }

      .cls-2, .cls-3, .cls-4, .cls-5, .cls-6, .cls-7, .cls-8, .cls-9, .cls-10, .cls-11, .cls-12, .cls-13, .cls-14 {
        stroke-width: 2px;
      }

      .cls-2, .cls-4, .cls-5, .cls-8, .cls-9, .cls-10, .cls-13 {
        stroke-miterlimit: 10;
      }

      .cls-2, .cls-4, .cls-5, .cls-8, .cls-13 {
        stroke: #195059;
      }

      .cls-2, .cls-8 {
        fill: #99d3dd;
      }

      .cls-15, .cls-4 {
        fill: #42a8b2;
      }

      .cls-3, .cls-6, .cls-7, .cls-8, .cls-11, .cls-12, .cls-16, .cls-14 {
        stroke-linecap: round;
      }

      .cls-3, .cls-6, .cls-7, .cls-11, .cls-12, .cls-16, .cls-14 {
        stroke-linejoin: round;
      }

      .cls-3, .cls-6, .cls-7, .cls-12 {
        stroke: #56400a;
      }

      .cls-3, .cls-11, .cls-16, .cls-13 {
        fill: none;
      }

      .cls-5 {
        fill: #198b91;
      }

      .cls-6 {
        fill: #b7913d;
      }

      .cls-7 {
        fill: #8e6917;
      }

      .cls-9 {
        fill: #f2f0d5;
      }

      .cls-9, .cls-10 {
        stroke: #5b5412;
      }

      .cls-10 {
        fill: #bcb788;
      }

      .cls-11 {
        stroke: #8e6813;
      }

      .cls-12 {
        fill: #cca648;
      }

      .cls-16 {
        stroke: #f2d8a0;
        stroke-width: 3px;
      }

      .cls-14 {
        fill: #d3be89;
        stroke: #68562d;
      }
    </style>
  </defs>
  <g id="Layer_12" data-name="Layer 12">
    <g id="Layer_15" data-name="Layer 15">
      <path class="cls-13" d="M17.18,192.92s-57,114,43,135,70-71,148-69,111,64,65,88-133-68,45-70,117.78,125.89,61.44,125.67c-38.83-.15-113-42,16-104s247.44,96.56,151.11,106.22c-121.21,12.16-34.22-127.56,69.78-111.56,114.46,17.61,46.31,253.01-21.44,197.89-59-48,70-128.67,105-55.67,35,73-43.89,144.44-88.89,131.44s82-90,99-24-77.44,99.89-77.44,99.89"/>
      <rect class="cls-7" x="624.18" y="635.24" width="17.96" height="15.11" rx="4.11" ry="4.11" transform="translate(-172.27 236.15) rotate(-18.64)"/>
      <rect class="cls-5" x="9.26" y="190.09" width="17.96" height="10.84" rx="3.52" ry="3.52" transform="translate(-125.92 62.18) rotate(-41.91)"/>
    </g>
    <g id="Layer_6" data-name="Layer 6">
      <path class="cls-12" d="M602.71,579.43c-56.76-.39-81.08,43.42-81.08,43.42,0,0-9.21,15.51-8.93,23.02.28,7.51,14.7,23.98,14.05,29.72-.44,3.89-12.5,11.14-20.23,15.41-3.92,2.16-8.08,3.84-12.4,4.98l-105.66,27.94s-75.89,24.4-71.63-3.97c4.26-28.37-3.82-35.52-11.29-40.35-7.47-4.84-73.25-5.4-92.04.81-18.79,6.21-15.17,26.92-15.17,26.92,8.86,75.67,46.38,74.73,61.6,78.44,13.26,3.24,62.35-.7,109.09-6.56,45.31-5.68,141.05-37.91,141.05-37.91,0,0,80.64-27.51,108.94-61,28.29-33.49,3.03-86.32,3.03-86.32,0,0-4.93-14.45-19.33-14.55Z"/>
      <path class="cls-6" d="M506.53,691.01c-3.92,2.16-8.08,3.84-12.4,4.98l-105.66,27.94s-27.28,8.77-48.21,9.68c-4.06,15.82-3.84,32.66-2.8,49.22,10.35-1.07,21.02-2.29,31.57-3.61,45.31-5.68,141.05-37.91,141.05-37.91,0,0,15.32-5.23,34.95-13.9-9.42-14.54-21.02-27.99-32.13-40.07-2.23,1.34-4.43,2.6-6.37,3.67Z"/>
      <path class="cls-3" d="M625.66,605.18s-68.71,10-101.98,62.14"/>
      <path class="cls-3" d="M316.55,718.87s-68.61-21.79-115.94-.61"/>
      <path class="cls-11" d="M622.01,632.25s10,34-29.33,58"/>
      <path class="cls-11" d="M220.68,749.14s2.67,16,20.44,23.11"/>
      <path class="cls-11" d="M613.56,634.03s3.56,16.89-5.33,26.22"/>
      <path class="cls-16" d="M228.34,684.36c-23.18,1.35-24.22,15.67-24.22,15.67"/>
      <path class="cls-16" d="M589.18,586.75s23.56-5.33,23.56,9.33"/>
    </g>
    <path class="cls-4" d="M22.84,217.86s4.33,9.22,7.33,10.89,29.44,1.33,32.56.22,8.78-8.78,8.78-8.78l-48.67-2.33Z"/>
    <path class="cls-4" d="M246.51,217.86s-4.33,9.22-7.33,10.89c-3,1.67-29.44,1.33-32.56.22s-8.78-8.78-8.78-8.78l48.67-2.33Z"/>
    <path class="cls-2" d="M66.29,40.25s-13.33,8.89-17.78,21.78c-4.44,12.89-27.11,82.67-29.33,94.67s-1.33,52.89-1.33,52.89c0,0-1.78,8.44,10.67,11.11,12.44,2.67,212.44.44,212.44.44,0,0,8-.89,10.67-8.89,2.67-8,3.11-38.39.89-49.78s-20.44-88.94-29.33-100c-8.89-11.06-13.72-15.72-18.44-21.22s-6.17-29.78-6.22-32.11c-.06-2.33-.06-4.78-3-5.78s-12.28-1.67-17-.33-3.17,9.89-4.33,13.56c-1.17,3.67-3,4.78-9.11,6.89s-58.78,0-58.78,0c0,0-12.17-1.94-11.89-9.11.28-7.17-.11-8.67-.11-8.67,0,0-.56-5.11-11-4.67s-11,5.67-11,5.67l-1,18.22s-.67,9.89-5,15.33Z"/>
    <path class="cls-8" d="M54.87,62.19l-30.33,93.78s-2.33,10.5,5.67,14.17c11.24,5.15,206.67,1.17,206.67,1.17"/>
    <path class="cls-1" d="M21.59,163.42s.44,9.11,8,10.67l.44,42.67s-6.22.67-8-8c-1.78-8.67-.44-45.33-.44-45.33Z"/>
    <path class="cls-1" d="M248.44,164.31s-.44,9.11-8,10.67l-.44,42.67s6.22.67,8-8c1.78-8.67.44-45.33.44-45.33Z"/>
  </g>
  <g id="Layer_13" data-name="Layer 13">
    <ellipse class="cls-10" cx="136.81" cy="103.58" rx="72.33" ry="54.28"/>
    <ellipse class="cls-9" cx="136.34" cy="98.36" rx="71.44" ry="52.83"/>
    <ellipse class="cls-8" cx="136.56" cy="97.42" rx="36.44" ry="26.44"/>
    <ellipse class="cls-14" cx="111.29" cy="62.77" rx="8" ry="6.74"/>
    <ellipse class="cls-14" cx="136.4" cy="59.23" rx="8" ry="6.74"/>
    <ellipse class="cls-14" cx="162.62" cy="63.43" rx="8" ry="6.74"/>
    <ellipse class="cls-14" cx="93.06" cy="77.36" rx="8" ry="6.74"/>
    <ellipse class="cls-14" cx="83.95" cy="98.8" rx="8" ry="6.74"/>
    <ellipse class="cls-14" cx="91.95" cy="118.48" rx="8" ry="6.74"/>
    <ellipse class="cls-14" cx="110.4" cy="133.51" rx="8" ry="6.74"/>
    <ellipse class="cls-14" cx="136.62" cy="138.37" rx="8" ry="6.74"/>
    <ellipse class="cls-14" cx="161.73" cy="133.51" rx="8" ry="6.74"/>
    <path class="cls-2" d="M192.09,137.32l-2.62-3.42s-12.21-13.06-12.85-15.11c-.64-2.05-1.93-7.08,4.72-5.48,6.66,1.6,18.28,10.19,18.28,10.19l1.97,3.03c.07.11.08.24,0,.35-.49.77-2.48,3.9-3.78,5.33s-4.32,4.28-5.24,5.14c-.14.13-.37.11-.49-.04Z"/>
    <path class="cls-15" d="M199.29,123.81l2.07,2.78c.09.11.09.2-.01.36,0,0-2.38,3.33-3.12,4.21s-5.69,5.7-5.69,5.7c-.12.12-.32.11-.43-.01l-2.86-3.65c-.09-.11-.09-.26.01-.36l9.6-9.04c.12-.11.32-.11.42.02Z"/>
  </g>
</svg>