<?xml version="1.0" encoding="UTF-8"?>
<svg id="Layer_2" data-name="Layer 2" xmlns="http://www.w3.org/2000/svg" viewBox="0 0 522.14 469.7">
  <defs>
    <style>
      .cls-1 {
        fill: #aae2df;
      }

      .cls-2, .cls-3, .cls-4, .cls-5, .cls-6, .cls-7, .cls-8, .cls-9 {
        stroke-miterlimit: 10;
      }

      .cls-2, .cls-3, .cls-4, .cls-5, .cls-6, .cls-7, .cls-8, .cls-9, .cls-10 {
        stroke-width: 2px;
      }

      .cls-2, .cls-3, .cls-4, .cls-5, .cls-6, .cls-9 {
        stroke: #195059;
      }

      .cls-2, .cls-6, .cls-11 {
        fill: #99d3dd;
      }

      .cls-12, .cls-3 {
        fill: #42a8b2;
      }

      .cls-4 {
        fill: #68d2dd;
      }

      .cls-4, .cls-6, .cls-10 {
        stroke-linecap: round;
      }

      .cls-5 {
        fill: #198b91;
      }

      .cls-7 {
        fill: #f2f0d5;
      }

      .cls-7, .cls-8 {
        stroke: #5b5412;
      }

      .cls-8 {
        fill: #bcb788;
      }

      .cls-11 {
        font-family: WorkSans-Medium, 'Work Sans';
        font-size: 36px;
        font-weight: 500;
      }

      .cls-9 {
        fill: none;
      }

      .cls-10 {
        fill: #d3be89;
        stroke: #68562d;
        stroke-linejoin: round;
      }
    </style>
  </defs>
  <g id="Layer_21" data-name="Layer 21">
    <rect class="cls-5" x="129.58" y="388.11" width="17.96" height="10.84" rx="3.52" ry="3.52" transform="translate(-227.4 193.19) rotate(-41.91)"/>
    <path class="cls-3" d="M143.17,415.88s4.33,9.22,7.33,10.89,29.44,1.33,32.56.22,8.78-8.78,8.78-8.78l-48.67-2.33Z"/>
    <path class="cls-3" d="M366.83,415.88s-4.33,9.22-7.33,10.89c-3,1.67-29.44,1.33-32.56.22s-8.78-8.78-8.78-8.78l48.67-2.33Z"/>
    <path class="cls-2" d="M186.61,238.27s-13.33,8.89-17.78,21.78c-4.44,12.89-27.11,82.67-29.33,94.67s-1.33,52.89-1.33,52.89c0,0-1.78,8.44,10.67,11.11,12.44,2.67,212.44.44,212.44.44,0,0,8-.89,10.67-8.89,2.67-8,3.11-38.39.89-49.78s-20.44-88.94-29.33-100c-8.89-11.06-13.72-15.72-18.44-21.22s-6.17-29.78-6.22-32.11c-.06-2.33-.06-4.78-3-5.78s-12.28-1.67-17-.33-3.17,9.89-4.33,13.56c-1.17,3.67-3,4.78-9.11,6.89s-58.78,0-58.78,0c0,0-12.17-1.94-11.89-9.11.28-7.17-.11-8.67-.11-8.67,0,0-.56-5.11-11-4.67s-11,5.67-11,5.67l-1,18.22s-.67,9.89-5,15.33Z"/>
    <path class="cls-6" d="M175.19,260.21l-30.33,93.78s-2.33,10.5,5.67,14.17c11.24,5.15,206.67,1.17,206.67,1.17"/>
    <path class="cls-1" d="M141.91,361.43s.44,9.11,8,10.67l.44,42.67s-6.22.67-8-8c-1.78-8.67-.44-45.33-.44-45.33Z"/>
    <path class="cls-1" d="M368.77,362.32s-.44,9.11-8,10.67l-.44,42.67s6.22.67,8-8c1.78-8.67.44-45.33.44-45.33Z"/>
    <ellipse class="cls-8" cx="257.14" cy="301.6" rx="72.33" ry="54.28"/>
    <ellipse class="cls-7" cx="256.67" cy="296.38" rx="71.44" ry="52.83"/>
    <ellipse class="cls-6" cx="256.89" cy="295.43" rx="36.44" ry="26.44"/>
    <ellipse class="cls-4" cx="242.99" cy="285.33" rx="10.66" ry="7.73"/>
    <ellipse class="cls-10" cx="231.61" cy="260.79" rx="8" ry="6.74"/>
    <ellipse class="cls-10" cx="256.72" cy="257.25" rx="8" ry="6.74"/>
    <ellipse class="cls-10" cx="282.94" cy="261.45" rx="8" ry="6.74"/>
    <ellipse class="cls-10" cx="213.39" cy="275.38" rx="8" ry="6.74"/>
    <ellipse class="cls-10" cx="204.28" cy="296.82" rx="8" ry="6.74"/>
    <ellipse class="cls-10" cx="212.28" cy="316.49" rx="8" ry="6.74"/>
    <ellipse class="cls-10" cx="230.72" cy="331.53" rx="8" ry="6.74"/>
    <ellipse class="cls-10" cx="256.94" cy="336.39" rx="8" ry="6.74"/>
    <ellipse class="cls-10" cx="282.06" cy="331.53" rx="8" ry="6.74"/>
    <path class="cls-2" d="M312.42,335.34l-2.62-3.42s-12.21-13.06-12.85-15.11c-.64-2.05-1.93-7.08,4.72-5.48,6.66,1.6,18.28,10.19,18.28,10.19l1.97,3.03c.07.11.08.24,0,.35-.49.77-2.48,3.9-3.78,5.33s-4.32,4.28-5.24,5.14c-.14.13-.37.11-.49-.04Z"/>
    <path class="cls-12" d="M319.61,321.82l2.07,2.78c.09.11.09.2-.01.36,0,0-2.38,3.33-3.12,4.21s-5.69,5.7-5.69,5.7c-.12.12-.32.11-.43-.01l-2.86-3.65c-.09-.11-.09-.26.01-.36l9.6-9.04c.12-.11.32-.11.42.02Z"/>
    <path class="cls-4" d="M232.93,283.47s8.67,5.83,20.17.83"/>
    <ellipse class="cls-4" cx="270.99" cy="285.33" rx="10.66" ry="7.73"/>
    <path class="cls-4" d="M260.93,283.47s8.67,5.83,20.17.83"/>
    <path class="cls-2" d="M240.59,303.75s14.67,17,33,1.33"/>
    <text class="cls-11" transform="translate(25.14 164.57) rotate(-52.62)"><tspan x="0" y="0">P</tspan></text>
    <text class="cls-11" transform="translate(37.81 147.82) rotate(-36.03)"><tspan x="0" y="0">E</tspan></text>
    <text class="cls-11" transform="translate(55.28 135.03) rotate(-23.37)"><tspan x="0" y="0">A</tspan></text>
    <text class="cls-11" transform="translate(75.58 126.15) rotate(-13.67)"><tspan x="0" y="0">C</tspan></text>
    <text class="cls-11" transform="translate(98.7 120.55) rotate(-5.27)"><tspan x="0" y="0">E</tspan></text>
    <text class="cls-11" transform="translate(120.88 118.76) rotate(.82)"><tspan x="0" y="0"> </tspan></text>
    <text class="cls-11" transform="translate(132.13 118.89) rotate(5.35)"><tspan x="0" y="0"> </tspan></text>
    <text class="cls-11" transform="translate(143.24 119.89) rotate(10.6)"><tspan x="0" y="0"> </tspan></text>
    <text class="cls-11" transform="translate(154.07 121.85) rotate(17.23)"><tspan x="0" y="0"> </tspan></text>
    <text class="cls-11" transform="translate(164.42 124.91) rotate(26.46)"><tspan x="0" y="0"> </tspan></text>
    <text class="cls-11" transform="translate(173.76 129.25) rotate(40.53)"><tspan x="0" y="0"> </tspan></text>
    <text class="cls-11" transform="translate(181.44 135.11) rotate(62.25)"><tspan x="0" y="0"> </tspan></text>
    <text class="cls-11" transform="translate(186.26 142.96) rotate(89.09)"><tspan x="0" y="0"> </tspan></text>
    <text class="cls-11" transform="translate(186.76 152.48) rotate(111.72)"><tspan x="0" y="0"> </tspan></text>
    <text class="cls-11" transform="translate(183.76 161.43) rotate(136.06)"><tspan x="0" y="0"> </tspan></text>
    <text class="cls-11" transform="translate(177.08 168.29) rotate(158.05)"><tspan x="0" y="0"> </tspan></text>
    <text class="cls-11" transform="translate(167.73 172.19) rotate(173.81)"><tspan x="0" y="0"> </tspan></text>
    <text class="cls-11" transform="translate(157.2 173.37) rotate(-175.32)"><tspan x="0" y="0"> </tspan></text>
    <text class="cls-11" transform="translate(146.36 172.51) rotate(-167.22)"><tspan x="0" y="0"> </tspan></text>
    <text class="cls-11" transform="translate(135.61 170.1) rotate(-160.52)"><tspan x="0" y="0"> </tspan></text>
    <text class="cls-11" transform="translate(125.18 166.44) rotate(-154.45)"><tspan x="0" y="0"> </tspan></text>
    <text class="cls-11" transform="translate(115.17 161.69) rotate(-148.43)"><tspan x="0" y="0"> </tspan></text>
    <text class="cls-11" transform="translate(105.73 155.95) rotate(-141.99)"><tspan x="0" y="0"> </tspan></text>
    <text class="cls-11" transform="translate(97.06 149.25) rotate(-134.66)"><tspan x="0" y="0"> </tspan></text>
    <text class="cls-11" transform="translate(89.4 141.64) rotate(-125.93)"><tspan x="0" y="0"> </tspan></text>
    <text class="cls-11" transform="translate(83.06 133.12) rotate(-115.24)"><tspan x="0" y="0"> </tspan></text>
    <text class="cls-11" transform="translate(78.45 123.76) rotate(-102.41)"><tspan x="0" y="0"> </tspan></text>
    <text class="cls-11" transform="translate(76.05 113.76) rotate(-88.14)"><tspan x="0" y="0"> </tspan></text>
    <text class="cls-11" transform="translate(76.24 103.46) rotate(-74.04)"><tspan x="0" y="0"> </tspan></text>
    <text class="cls-11" transform="translate(79.08 93.43) rotate(-62.54)"><tspan x="0" y="0"> </tspan></text>
    <text class="cls-11" transform="translate(83.76 84.16) rotate(-48.17)"><tspan x="0" y="0"> </tspan></text>
    <text class="cls-11" transform="translate(90.72 76.28) rotate(-36.36)"><tspan x="0" y="0"> </tspan></text>
    <text class="cls-11" transform="translate(99.35 69.88) rotate(-27.14)"><tspan x="0" y="0"> </tspan></text>
    <text class="cls-11" transform="translate(109.09 64.87) rotate(-20.01)"><tspan x="0" y="0"> </tspan></text>
    <text class="cls-11" transform="translate(119.53 61.06) rotate(-14.38)"><tspan x="0" y="0"> </tspan></text>
    <text class="cls-11" transform="translate(130.42 58.26) rotate(-9.81)"><tspan x="0" y="0"> </tspan></text>
    <text class="cls-11" transform="translate(141.55 56.34) rotate(-5.96)"><tspan x="0" y="0"> </tspan></text>
    <text class="cls-11" transform="translate(152.85 55.15) rotate(-2.61)"><tspan x="0" y="0"> </tspan></text>
    <text class="cls-11" transform="translate(164.22 54.63) rotate(.4)"><tspan x="0" y="0"> </tspan></text>
    <text class="cls-11" transform="translate(175.62 54.71) rotate(3.2)"><tspan x="0" y="0"> </tspan></text>
    <text class="cls-11" transform="translate(187.04 55.34) rotate(5.88)"><tspan x="0" y="0"> </tspan></text>
    <text class="cls-11" transform="translate(198.4 56.5) rotate(8.54)"><tspan x="0" y="0"> </tspan></text>
    <text class="cls-11" transform="translate(209.69 58.19) rotate(11.25)"><tspan x="0" y="0"> </tspan></text>
    <text class="cls-11" transform="translate(220.88 60.4) rotate(14.12)"><tspan x="0" y="0"> </tspan></text>
    <text class="cls-11" transform="translate(231.92 63.16) rotate(17.26)"><tspan x="0" y="0"> </tspan></text>
    <text class="cls-11" transform="translate(242.74 66.5) rotate(20.83)"><tspan x="0" y="0"> </tspan></text>
    <text class="cls-11" transform="translate(253.28 70.48) rotate(25.07)"><tspan x="0" y="0"> </tspan></text>
    <text class="cls-11" transform="translate(263.41 75.17) rotate(30.36)"><tspan x="0" y="0"> </tspan></text>
    <text class="cls-11" transform="translate(272.91 80.64) rotate(37.29)"><tspan x="0" y="0"> </tspan></text>
    <text class="cls-11" transform="translate(281.54 87.04) rotate(46.84)"><tspan x="0" y="0"> </tspan></text>
    <text class="cls-11" transform="translate(288.81 94.46) rotate(60.2)"><tspan x="0" y="0"> </tspan></text>
    <text class="cls-11" transform="translate(294.06 102.98) rotate(77.74)"><tspan x="0" y="0"> </tspan></text>
    <text class="cls-11" transform="translate(296.45 112.51) rotate(96.89)"><tspan x="0" y="0"> </tspan></text>
    <text class="cls-11" transform="translate(295.4 122.56) rotate(113.57)"><tspan x="0" y="0"> </tspan></text>
    <text class="cls-11" transform="translate(291.38 132.13) rotate(126.25)"><tspan x="0" y="0"> </tspan></text>
    <text class="cls-11" transform="translate(285.78 140.41) rotate(143.83)"><tspan x="0" y="0"> </tspan></text>
    <text class="cls-11" transform="translate(278.35 146.44) rotate(166.56)"><tspan x="0" y="0"> </tspan></text>
    <text class="cls-11" transform="translate(269.09 148.99) rotate(-171.58)"><tspan x="0" y="0"> </tspan></text>
    <text class="cls-11" transform="translate(259.11 147.65) rotate(-155.34)"><tspan x="0" y="0"> </tspan></text>
    <text class="cls-11" transform="translate(249.49 143.28) rotate(-144.13)"><tspan x="0" y="0"> </tspan></text>
    <text class="cls-11" transform="translate(240.66 136.92) rotate(-136)"><tspan x="0" y="0"> </tspan></text>
    <text class="cls-11" transform="translate(232.72 129.28) rotate(-129.57)"><tspan x="0" y="0"> </tspan></text>
    <text class="cls-11" transform="translate(225.62 120.71) rotate(-123.93)"><tspan x="0" y="0"> </tspan></text>
    <text class="cls-11" transform="translate(219.38 111.48) rotate(-118.57)"><tspan x="0" y="0"> </tspan></text>
    <text class="cls-11" transform="translate(214.03 101.74) rotate(-112.99)"><tspan x="0" y="0"> </tspan></text>
    <text class="cls-11" transform="translate(209.66 91.58) rotate(-106.69)"><tspan x="0" y="0"> </tspan></text>
    <text class="cls-11" transform="translate(206.44 81.13) rotate(-98.97)"><tspan x="0" y="0"> </tspan></text>
    <text class="cls-11" transform="translate(204.64 70.6) rotate(-88.89)"><tspan x="0" y="0"> </tspan></text>
    <text class="cls-11" transform="translate(204.6 60.26) rotate(-75.23)"><tspan x="0" y="0"> </tspan></text>
    <text class="cls-11" transform="translate(204.96 50.4) rotate(-47.47)"><tspan x="0" y="0">B</tspan></text>
    <text class="cls-11" transform="translate(218.97 34.74) rotate(-13.82)"><tspan x="0" y="0">R</tspan></text>
    <text class="cls-11" transform="translate(240.99 29.55) rotate(1.92)"><tspan x="0" y="0">E</tspan></text>
    <text class="cls-11" transform="translate(262.85 30.25) rotate(12.45)"><tspan x="0" y="0">A</tspan></text>
    <text class="cls-11" transform="translate(282.47 34.43) rotate(19.39)"><tspan x="0" y="0">T</tspan></text>
    <text class="cls-11" transform="translate(302.87 41.46) rotate(26.57)"><tspan x="0" y="0">H</tspan></text>
    <text class="cls-11" transform="translate(325.91 53.07) rotate(33.3)"><tspan x="0" y="0">E</tspan></text>
    <text class="cls-11" transform="translate(344.52 65.53) rotate(38.16)"><tspan x="0" y="0"> </tspan></text>
    <text class="cls-11" transform="translate(353.45 72.53) rotate(41.7)"><tspan x="0" y="0"> </tspan></text>
    <text class="cls-11" transform="translate(361.89 80.03) rotate(45.59)"><tspan x="0" y="0"> </tspan></text>
    <text class="cls-11" transform="translate(369.78 88.04) rotate(50.02)"><tspan x="0" y="0"> </tspan></text>
    <text class="cls-11" transform="translate(376.99 96.57) rotate(55.21)"><tspan x="0" y="0"> </tspan></text>
    <text class="cls-11" transform="translate(383.35 105.62) rotate(61.52)"><tspan x="0" y="0"> </tspan></text>
    <text class="cls-11" transform="translate(388.61 115.15) rotate(69.33)"><tspan x="0" y="0"> </tspan></text>
    <text class="cls-11" transform="translate(392.51 125.12) rotate(79.15)"><tspan x="0" y="0"> </tspan></text>
    <text class="cls-11" transform="translate(394.64 135.42) rotate(91.18)"><tspan x="0" y="0"> </tspan></text>
    <text class="cls-11" transform="translate(394.61 145.75) rotate(104.81)"><tspan x="0" y="0"> </tspan></text>
    <text class="cls-11" transform="translate(392.12 155.77) rotate(118.58)"><tspan x="0" y="0"> </tspan></text>
    <text class="cls-11" transform="translate(387.2 165.01) rotate(130.87)"><tspan x="0" y="0"> </tspan></text>
    <text class="cls-11" transform="translate(380.21 173.15) rotate(140.28)"><tspan x="0" y="0"> </tspan></text>
    <text class="cls-11" transform="translate(372.5 179.99) rotate(154.54)"><tspan x="0" y="0"> </tspan></text>
    <text class="cls-11" transform="translate(364.62 184.78) rotate(-177.2)"><tspan x="0" y="0"> </tspan></text>
    <text class="cls-11" transform="translate(356.17 185.49) rotate(-138.85)"><tspan x="0" y="0"> </tspan></text>
    <text class="cls-11" transform="translate(349.09 179.78) rotate(-111.5)"><tspan x="0" y="0"> </tspan></text>
    <text class="cls-11" transform="translate(345.31 170.35) rotate(-96.43)"><tspan x="0" y="0"> </tspan></text>
    <text class="cls-11" transform="translate(344.08 159.73) rotate(-86.64)"><tspan x="0" y="0"> </tspan></text>
    <text class="cls-11" transform="translate(344.68 148.84) rotate(-78.74)"><tspan x="0" y="0"> </tspan></text>
    <text class="cls-11" transform="translate(346.76 138.11) rotate(-71.24)"><tspan x="0" y="0"> </tspan></text>
    <text class="cls-11" transform="translate(350.19 127.78) rotate(-63.17)"><tspan x="0" y="0"> </tspan></text>
    <text class="cls-11" transform="translate(354.94 118.15) rotate(-53.79)"><tspan x="0" y="0"> </tspan></text>
    <text class="cls-11" transform="translate(361.05 109.55) rotate(-42.37)"><tspan x="0" y="0"> </tspan></text>
    <text class="cls-11" transform="translate(368.56 102.43) rotate(-28.68)"><tspan x="0" y="0"> </tspan></text>
    <text class="cls-11" transform="translate(377.41 97.35) rotate(-13.6)"><tspan x="0" y="0"> </tspan></text>
    <text class="cls-11" transform="translate(387.35 94.78) rotate(.96)"><tspan x="0" y="0"> </tspan></text>
    <text class="cls-11" transform="translate(397.81 94.87) rotate(13.3)"><tspan x="0" y="0"> </tspan></text>
    <text class="cls-11" transform="translate(408.29 97.31) rotate(22.97)"><tspan x="0" y="0"> </tspan></text>
    <text class="cls-11" transform="translate(418.28 101.47) rotate(31.13)"><tspan x="0" y="0"> </tspan></text>
    <text class="cls-11" transform="translate(427.59 107.01) rotate(39.65)"><tspan x="0" y="0"> </tspan></text>
    <text class="cls-11" transform="translate(435.97 113.88) rotate(48.1)"><tspan x="0" y="0"> </tspan></text>
    <text class="cls-11" transform="translate(443.27 121.95) rotate(56.12)"><tspan x="0" y="0"> </tspan></text>
    <text class="cls-11" transform="translate(449.39 131) rotate(63.45)"><tspan x="0" y="0"> </tspan></text>
    <text class="cls-11" transform="translate(454.35 140.87) rotate(70.02)"><tspan x="0" y="0"> </tspan></text>
    <text class="cls-11" transform="translate(458.16 151.29) rotate(75.86)"><tspan x="0" y="0"> </tspan></text>
    <text class="cls-11" transform="translate(460.9 162.12) rotate(81.06)"><tspan x="0" y="0"> </tspan></text>
    <text class="cls-11" transform="translate(462.66 173.2) rotate(85.75)"><tspan x="0" y="0"> </tspan></text>
    <text class="cls-11" transform="translate(463.5 184.41) rotate(90.06)"><tspan x="0" y="0"> </tspan></text>
    <text class="cls-11" transform="translate(463.5 195.7) rotate(94.12)"><tspan x="0" y="0"> </tspan></text>
    <text class="cls-11" transform="translate(462.7 206.96) rotate(98.05)"><tspan x="0" y="0"> </tspan></text>
    <text class="cls-11" transform="translate(461.14 218.14) rotate(102)"><tspan x="0" y="0"> </tspan></text>
    <text class="cls-11" transform="translate(458.82 229.16) rotate(106.12)"><tspan x="0" y="0"> </tspan></text>
    <text class="cls-11" transform="translate(455.72 239.96) rotate(110.66)"><tspan x="0" y="0"> </tspan></text>
    <text class="cls-11" transform="translate(451.83 250.41) rotate(115.93)"><tspan x="0" y="0"> </tspan></text>
    <text class="cls-11" transform="translate(447.06 260.38) rotate(122.54)"><tspan x="0" y="0"> </tspan></text>
    <text class="cls-11" transform="translate(441.37 269.53) rotate(131.48)"><tspan x="0" y="0"> </tspan></text>
    <text class="cls-11" transform="translate(434.66 277.48) rotate(144.63)"><tspan x="0" y="0"> </tspan></text>
    <text class="cls-11" transform="translate(426.9 283.53) rotate(164.1)"><tspan x="0" y="0"> </tspan></text>
    <text class="cls-11" transform="translate(418.01 286.61) rotate(-171.52)"><tspan x="0" y="0"> </tspan></text>
    <text class="cls-11" transform="translate(408.5 285.64) rotate(-148.93)"><tspan x="0" y="0"> </tspan></text>
    <text class="cls-11" transform="translate(400.28 281.42) rotate(-122.05)"><tspan x="0" y="0"> </tspan></text>
    <text class="cls-11" transform="translate(394.98 273.6) rotate(-98.4)"><tspan x="0" y="0"> </tspan></text>
    <text class="cls-11" transform="translate(393.4 263.62) rotate(-82.52)"><tspan x="0" y="0"> </tspan></text>
    <text class="cls-11" transform="translate(394.76 253.07) rotate(-71.96)"><tspan x="0" y="0"> </tspan></text>
    <text class="cls-11" transform="translate(397.5 242.79) rotate(-60.84)"><tspan x="0" y="0">S</tspan></text>
    <text class="cls-11" transform="translate(407.61 224.31) rotate(-48.89)"><tspan x="0" y="0">T</tspan></text>
    <text class="cls-11" transform="translate(418.79 210.34) rotate(-35.55)"><tspan x="0" y="0">A</tspan></text>
    <text class="cls-11" transform="translate(433.86 198.28) rotate(-13.59)"><tspan x="0" y="0">Y</tspan></text>
    <text class="cls-11" transform="translate(450.96 194.21) rotate(13.06)"><tspan x="0" y="0"> </tspan></text>
    <text class="cls-11" transform="translate(460.63 194.11) rotate(45.38)"><tspan x="0" y="0">C</tspan></text>
    <text class="cls-11" transform="translate(476.27 210.47) rotate(65.9)"><tspan x="0" y="0">A</tspan></text>
    <text class="cls-11" transform="translate(485.47 231.39) rotate(76.64)"><tspan x="0" y="0">L</tspan></text>
    <text class="cls-11" transform="translate(490.62 251.45) rotate(85.78)"><tspan x="0" y="0">M</tspan></text>
    <path class="cls-9" d="M133.59,397.63s-73.33,30.22-84.44-44.89,102.22-26.22,63.11,8.44-123.11,12.44-107.56-73.33,104.44-80.89,116.44-52.44-97.33,52.89-101.33-40,175.11-93.78,166.22-42.67-139.56-2.67-103.56-65.78,245.33-25.78,209.33,43.56S156.7,46.52,232.7,31.41s204.89,84.89,147.56,141.33-46.67-110.67,36-72,41.33,197.78-6.67,184.44,25.33-124,61.78-80,27.11,177.78-43.11,167.56,43.11-136.44,81.33-50.67-102.22,135.56-136.89,146.67"/>
  </g>
</svg>