<?xml version="1.0" encoding="UTF-8"?>
<svg id="Layer_2" data-name="Layer 2" xmlns="http://www.w3.org/2000/svg" viewBox="0 0 553.41 564.09">
  <defs>
    <style>
      .cls-1 {
        fill: #aae2df;
      }

      .cls-2, .cls-3, .cls-4, .cls-5, .cls-6, .cls-7, .cls-8, .cls-9 {
        stroke-miterlimit: 10;
      }

      .cls-2, .cls-3, .cls-4, .cls-5, .cls-6, .cls-7, .cls-8, .cls-9, .cls-10 {
        stroke-width: 2px;
      }

      .cls-2, .cls-3, .cls-4, .cls-5, .cls-6, .cls-9 {
        stroke: #195059;
      }

      .cls-2, .cls-6 {
        fill: #99d3dd;
      }

      .cls-11, .cls-3 {
        fill: #42a8b2;
      }

      .cls-4 {
        fill: #68d2dd;
      }

      .cls-4, .cls-6, .cls-10 {
        stroke-linecap: round;
      }

      .cls-12 {
        fill: #0b6682;
      }

      .cls-5 {
        fill: #198b91;
      }

      .cls-13 {
        fill: #cca648;
        font-family: WorkSans-Medium, 'Work Sans';
        font-size: 32px;
        font-weight: 500;
      }

      .cls-7 {
        fill: #f2f0d5;
      }

      .cls-7, .cls-8 {
        stroke: #5b5412;
      }

      .cls-8 {
        fill: #bcb788;
      }

      .cls-9 {
        fill: none;
      }

      .cls-10 {
        fill: #d3be89;
        stroke: #68562d;
        stroke-linejoin: round;
      }
    </style>
  </defs>
  <g id="Layer_21" data-name="Layer 21">
    <rect class="cls-5" x="150.05" y="463.02" width="17.96" height="10.84" rx="3.52" ry="3.52" transform="translate(-272.2 226.02) rotate(-41.91)"/>
    <path class="cls-3" d="M163.64,490.78s4.33,9.22,7.33,10.89,29.44,1.33,32.56.22,8.78-8.78,8.78-8.78l-48.67-2.33Z"/>
    <path class="cls-3" d="M387.3,490.78s-4.33,9.22-7.33,10.89-29.44,1.33-32.56.22c-3.11-1.11-8.78-8.78-8.78-8.78l48.67-2.33Z"/>
    <path class="cls-2" d="M207.08,313.17s-13.33,8.89-17.78,21.78c-4.44,12.89-27.11,82.67-29.33,94.67s-1.33,52.89-1.33,52.89c0,0-1.78,8.44,10.67,11.11,12.44,2.67,212.44.44,212.44.44,0,0,8-.89,10.67-8.89,2.67-8,3.11-38.39.89-49.78s-20.44-88.94-29.33-100c-8.89-11.06-13.72-15.72-18.44-21.22s-6.17-29.78-6.22-32.11c-.06-2.33-.06-4.78-3-5.78-2.94-1-12.28-1.67-17-.33s-3.17,9.89-4.33,13.56c-1.17,3.67-3,4.78-9.11,6.89-6.11,2.11-58.78,0-58.78,0,0,0-12.17-1.94-11.89-9.11.28-7.17-.11-8.67-.11-8.67,0,0-.56-5.11-11-4.67s-11,5.67-11,5.67l-1,18.22s-.67,9.89-5,15.33Z"/>
    <path class="cls-6" d="M195.66,335.12l-30.33,93.78s-2.33,10.5,5.67,14.17c11.24,5.15,206.67,1.17,206.67,1.17"/>
    <path class="cls-1" d="M162.38,436.34s.44,9.11,8,10.67l.44,42.67s-6.22.67-8-8c-1.78-8.67-.44-45.33-.44-45.33Z"/>
    <path class="cls-1" d="M389.24,437.23s-.44,9.11-8,10.67l-.44,42.67s6.22.67,8-8c1.78-8.67.44-45.33.44-45.33Z"/>
    <ellipse class="cls-8" cx="277.61" cy="376.51" rx="72.33" ry="54.28"/>
    <ellipse class="cls-7" cx="277.14" cy="371.28" rx="71.44" ry="52.83"/>
    <ellipse class="cls-6" cx="277.36" cy="370.34" rx="36.44" ry="26.44"/>
    <ellipse class="cls-4" cx="263.46" cy="360.24" rx="10.66" ry="7.73"/>
    <ellipse class="cls-10" cx="252.08" cy="335.69" rx="8" ry="6.74"/>
    <ellipse class="cls-10" cx="277.19" cy="332.16" rx="8" ry="6.74"/>
    <ellipse class="cls-10" cx="303.41" cy="336.36" rx="8" ry="6.74"/>
    <ellipse class="cls-10" cx="233.86" cy="350.28" rx="8" ry="6.74"/>
    <ellipse class="cls-10" cx="224.75" cy="371.73" rx="8" ry="6.74"/>
    <ellipse class="cls-10" cx="232.75" cy="391.4" rx="8" ry="6.74"/>
    <ellipse class="cls-10" cx="251.19" cy="406.43" rx="8" ry="6.74"/>
    <ellipse class="cls-10" cx="277.41" cy="411.29" rx="8" ry="6.74"/>
    <ellipse class="cls-10" cx="302.53" cy="406.43" rx="8" ry="6.74"/>
    <path class="cls-2" d="M332.89,410.24l-2.62-3.42s-12.21-13.06-12.85-15.11c-.64-2.05-1.93-7.08,4.72-5.48s18.28,10.19,18.28,10.19l1.97,3.03c.07.11.08.24,0,.35-.49.77-2.48,3.9-3.78,5.33s-4.32,4.28-5.24,5.14c-.14.13-.37.11-.49-.04Z"/>
    <path class="cls-11" d="M340.08,396.73l2.07,2.78c.09.11.09.2-.01.36,0,0-2.38,3.33-3.12,4.21s-5.69,5.7-5.69,5.7c-.12.12-.32.11-.43-.01l-2.86-3.65c-.09-.11-.09-.26.01-.36l9.6-9.04c.12-.11.32-.11.42.02Z"/>
    <path class="cls-4" d="M253.4,358.37s8.67,5.83,20.17.83"/>
    <ellipse class="cls-4" cx="291.46" cy="360.24" rx="10.66" ry="7.73"/>
    <path class="cls-4" d="M281.4,358.37s8.67,5.83,20.17.83"/>
    <path class="cls-2" d="M261.06,378.65s14.67,17,33,1.33"/>
    <text class="cls-13" transform="translate(48.63 234.66) rotate(-48.75)"><tspan x="0" y="0">P</tspan></text>
    <text class="cls-13" transform="translate(61.01 220.45) rotate(-34.53)"><tspan x="0" y="0">E</tspan></text>
    <text class="cls-13" transform="translate(76.95 209.43) rotate(-23.38)"><tspan x="0" y="0">A</tspan></text>
    <text class="cls-13" transform="translate(95.03 201.51) rotate(-14.64)"><tspan x="0" y="0">C</tspan></text>
    <text class="cls-13" transform="translate(115.57 196.18) rotate(-7.03)"><tspan x="0" y="0">E</tspan></text>
    <text class="cls-13" transform="translate(135.29 193.95) rotate(-1.68)"><tspan x="0" y="0"> </tspan></text>
    <text class="cls-13" transform="translate(145.33 193.64) rotate(2.11)"><tspan x="0" y="0"> </tspan></text>
    <text class="cls-13" transform="translate(155.33 193.99) rotate(6.26)"><tspan x="0" y="0"> </tspan></text>
    <text class="cls-13" transform="translate(165.24 195.04) rotate(11.08)"><tspan x="0" y="0"> </tspan></text>
    <text class="cls-13" transform="translate(174.92 196.89) rotate(17.05)"><tspan x="0" y="0"> </tspan></text>
    <text class="cls-13" transform="translate(184.18 199.63) rotate(25.05)"><tspan x="0" y="0"> </tspan></text>
    <text class="cls-13" transform="translate(192.73 203.43) rotate(36.71)"><tspan x="0" y="0"> </tspan></text>
    <text class="cls-13" transform="translate(200.02 208.43) rotate(54.26)"><tspan x="0" y="0"> </tspan></text>
    <text class="cls-13" transform="translate(205.33 214.99) rotate(77.93)"><tspan x="0" y="0"> </tspan></text>
    <text class="cls-13" transform="translate(207.53 223.36) rotate(102.98)"><tspan x="0" y="0"> </tspan></text>
    <text class="cls-13" transform="translate(206.12 231.7) rotate(121.27)"><tspan x="0" y="0"> </tspan></text>
    <text class="cls-13" transform="translate(202.02 239.12) rotate(143.42)"><tspan x="0" y="0"> </tspan></text>
    <text class="cls-13" transform="translate(195.08 244.5) rotate(161.98)"><tspan x="0" y="0"> </tspan></text>
    <text class="cls-13" transform="translate(186.37 247.41) rotate(175.27)"><tspan x="0" y="0"> </tspan></text>
    <text class="cls-13" transform="translate(176.88 248.23) rotate(-175.2)"><tspan x="0" y="0"> </tspan></text>
    <text class="cls-13" transform="translate(167.19 247.43) rotate(-167.88)"><tspan x="0" y="0"> </tspan></text>
    <text class="cls-13" transform="translate(157.58 245.39) rotate(-161.78)"><tspan x="0" y="0"> </tspan></text>
    <text class="cls-13" transform="translate(148.18 242.31) rotate(-156.26)"><tspan x="0" y="0"> </tspan></text>
    <text class="cls-13" transform="translate(139.1 238.34) rotate(-150.91)"><tspan x="0" y="0"> </tspan></text>
    <text class="cls-13" transform="translate(130.45 233.57) rotate(-145.39)"><tspan x="0" y="0"> </tspan></text>
    <text class="cls-13" transform="translate(122.32 228) rotate(-139.34)"><tspan x="0" y="0"> </tspan></text>
    <text class="cls-13" transform="translate(114.88 221.69) rotate(-132.43)"><tspan x="0" y="0"> </tspan></text>
    <text class="cls-13" transform="translate(108.31 214.6) rotate(-124.24)"><tspan x="0" y="0"> </tspan></text>
    <text class="cls-13" transform="translate(102.88 206.82) rotate(-114.43)"><tspan x="0" y="0"> </tspan></text>
    <text class="cls-13" transform="translate(98.89 198.34) rotate(-102.84)"><tspan x="0" y="0"> </tspan></text>
    <text class="cls-13" transform="translate(96.7 189.38) rotate(-90.07)"><tspan x="0" y="0"> </tspan></text>
    <text class="cls-13" transform="translate(96.57 180.13) rotate(-77.21)"><tspan x="0" y="0"> </tspan></text>
    <text class="cls-13" transform="translate(98.56 170.98) rotate(-65.59)"><tspan x="0" y="0"> </tspan></text>
    <text class="cls-13" transform="translate(102.28 162.39) rotate(-54.08)"><tspan x="0" y="0"> </tspan></text>
    <text class="cls-13" transform="translate(107.7 154.78) rotate(-42.34)"><tspan x="0" y="0"> </tspan></text>
    <text class="cls-13" transform="translate(114.69 148.35) rotate(-32.75)"><tspan x="0" y="0"> </tspan></text>
    <text class="cls-13" transform="translate(122.86 143.08) rotate(-25.1)"><tspan x="0" y="0"> </tspan></text>
    <text class="cls-13" transform="translate(131.74 138.9) rotate(-19.06)"><tspan x="0" y="0"> </tspan></text>
    <text class="cls-13" transform="translate(141.15 135.65) rotate(-14.14)"><tspan x="0" y="0"> </tspan></text>
    <text class="cls-13" transform="translate(150.86 133.2) rotate(-10.06)"><tspan x="0" y="0"> </tspan></text>
    <text class="cls-13" transform="translate(160.79 131.44) rotate(-6.57)"><tspan x="0" y="0"> </tspan></text>
    <text class="cls-13" transform="translate(170.84 130.28) rotate(-3.5)"><tspan x="0" y="0"> </tspan></text>
    <text class="cls-13" transform="translate(180.94 129.66) rotate(-.73)"><tspan x="0" y="0"> </tspan></text>
    <text class="cls-13" transform="translate(191.11 129.52) rotate(1.83)"><tspan x="0" y="0"> </tspan></text>
    <text class="cls-13" transform="translate(201.28 129.85) rotate(4.27)"><tspan x="0" y="0"> </tspan></text>
    <text class="cls-13" transform="translate(211.44 130.6) rotate(6.65)"><tspan x="0" y="0"> </tspan></text>
    <text class="cls-13" transform="translate(221.53 131.77) rotate(9.01)"><tspan x="0" y="0"> </tspan></text>
    <text class="cls-13" transform="translate(231.59 133.36) rotate(11.45)"><tspan x="0" y="0"> </tspan></text>
    <text class="cls-13" transform="translate(241.54 135.37) rotate(14)"><tspan x="0" y="0"> </tspan></text>
    <text class="cls-13" transform="translate(251.4 137.82) rotate(16.77)"><tspan x="0" y="0"> </tspan></text>
    <text class="cls-13" transform="translate(261.08 140.72) rotate(19.86)"><tspan x="0" y="0"> </tspan></text>
    <text class="cls-13" transform="translate(270.55 144.12) rotate(23.43)"><tspan x="0" y="0"> </tspan></text>
    <text class="cls-13" transform="translate(279.74 148.07) rotate(27.71)"><tspan x="0" y="0"> </tspan></text>
    <text class="cls-13" transform="translate(288.53 152.64) rotate(33.04)"><tspan x="0" y="0"> </tspan></text>
    <text class="cls-13" transform="translate(296.74 157.9) rotate(39.98)"><tspan x="0" y="0"> </tspan></text>
    <text class="cls-13" transform="translate(304.13 163.95) rotate(49.34)"><tspan x="0" y="0"> </tspan></text>
    <text class="cls-13" transform="translate(310.3 170.86) rotate(62.01)"><tspan x="0" y="0"> </tspan></text>
    <text class="cls-13" transform="translate(314.73 178.67) rotate(78.06)"><tspan x="0" y="0"> </tspan></text>
    <text class="cls-13" transform="translate(316.79 187.31) rotate(95.47)"><tspan x="0" y="0"> </tspan></text>
    <text class="cls-13" transform="translate(316.07 196.3) rotate(110.93)"><tspan x="0" y="0"> </tspan></text>
    <text class="cls-13" transform="translate(312.79 205.03) rotate(122.53)"><tspan x="0" y="0"> </tspan></text>
    <text class="cls-13" transform="translate(308.06 212.88) rotate(136.5)"><tspan x="0" y="0"> </tspan></text>
    <text class="cls-13" transform="translate(301.96 219.15) rotate(155.58)"><tspan x="0" y="0"> </tspan></text>
    <text class="cls-13" transform="translate(294.27 223) rotate(176.72)"><tspan x="0" y="0"> </tspan></text>
    <text class="cls-13" transform="translate(285.51 223.68) rotate(-165.33)"><tspan x="0" y="0"> </tspan></text>
    <text class="cls-13" transform="translate(276.58 221.41) rotate(-152.2)"><tspan x="0" y="0"> </tspan></text>
    <text class="cls-13" transform="translate(268.13 216.99) rotate(-142.83)"><tspan x="0" y="0"> </tspan></text>
    <text class="cls-13" transform="translate(260.36 211.11) rotate(-135.74)"><tspan x="0" y="0"> </tspan></text>
    <text class="cls-13" transform="translate(253.28 204.23) rotate(-129.96)"><tspan x="0" y="0"> </tspan></text>
    <text class="cls-13" transform="translate(246.9 196.64) rotate(-124.89)"><tspan x="0" y="0"> </tspan></text>
    <text class="cls-13" transform="translate(241.19 188.49) rotate(-120.08)"><tspan x="0" y="0"> </tspan></text>
    <text class="cls-13" transform="translate(236.18 179.88) rotate(-115.21)"><tspan x="0" y="0"> </tspan></text>
    <text class="cls-13" transform="translate(231.93 170.93) rotate(-109.92)"><tspan x="0" y="0"> </tspan></text>
    <text class="cls-13" transform="translate(228.54 161.69) rotate(-103.81)"><tspan x="0" y="0"> </tspan></text>
    <text class="cls-13" transform="translate(226.15 152.29) rotate(-96.3)"><tspan x="0" y="0"> </tspan></text>
    <text class="cls-13" transform="translate(224.99 142.85) rotate(-86.58)"><tspan x="0" y="0"> </tspan></text>
    <text class="cls-13" transform="translate(225.36 133.6) rotate(-73.74)"><tspan x="0" y="0"> </tspan></text>
    <text class="cls-13" transform="translate(226.13 124.83) rotate(-48.49)"><tspan x="0" y="0">B</tspan></text>
    <text class="cls-13" transform="translate(238.32 110.56) rotate(-16.8)"><tspan x="0" y="0">R</tspan></text>
    <text class="cls-13" transform="translate(257.63 104.98) rotate(-1.05)"><tspan x="0" y="0">E</tspan></text>
    <text class="cls-13" transform="translate(277.08 104.6) rotate(9.26)"><tspan x="0" y="0">A</tspan></text>
    <text class="cls-13" transform="translate(294.7 107.34) rotate(16.06)"><tspan x="0" y="0">T</tspan></text>
    <text class="cls-13" transform="translate(313.18 112.54) rotate(22.96)"><tspan x="0" y="0">H</tspan></text>
    <text class="cls-13" transform="translate(334.3 121.57) rotate(29.13)"><tspan x="0" y="0">E</tspan></text>
    <text class="cls-13" transform="translate(351.67 131.44) rotate(33.32)"><tspan x="0" y="0"> </tspan></text>
    <text class="cls-13" transform="translate(360.14 137) rotate(36.21)"><tspan x="0" y="0"> </tspan></text>
    <text class="cls-13" transform="translate(368.3 142.96) rotate(39.22)"><tspan x="0" y="0"> </tspan></text>
    <text class="cls-13" transform="translate(376.13 149.34) rotate(42.44)"><tspan x="0" y="0"> </tspan></text>
    <text class="cls-13" transform="translate(383.58 156.13) rotate(45.98)"><tspan x="0" y="0"> </tspan></text>
    <text class="cls-13" transform="translate(390.57 163.33) rotate(49.95)"><tspan x="0" y="0"> </tspan></text>
    <text class="cls-13" transform="translate(397 170.94) rotate(54.53)"><tspan x="0" y="0"> </tspan></text>
    <text class="cls-13" transform="translate(402.77 178.98) rotate(59.96)"><tspan x="0" y="0"> </tspan></text>
    <text class="cls-13" transform="translate(407.72 187.42) rotate(66.53)"><tspan x="0" y="0"> </tspan></text>
    <text class="cls-13" transform="translate(411.65 196.27) rotate(74.61)"><tspan x="0" y="0"> </tspan></text>
    <text class="cls-13" transform="translate(414.27 205.4) rotate(84.44)"><tspan x="0" y="0"> </tspan></text>
    <text class="cls-13" transform="translate(415.3 214.69) rotate(95.95)"><tspan x="0" y="0"> </tspan></text>
    <text class="cls-13" transform="translate(414.47 223.94) rotate(108.47)"><tspan x="0" y="0"> </tspan></text>
    <text class="cls-13" transform="translate(411.62 232.8) rotate(120.71)"><tspan x="0" y="0"> </tspan></text>
    <text class="cls-13" transform="translate(406.88 240.91) rotate(131.52)"><tspan x="0" y="0"> </tspan></text>
    <text class="cls-13" transform="translate(400.51 248.14) rotate(139.85)"><tspan x="0" y="0"> </tspan></text>
    <text class="cls-13" transform="translate(393.53 254.32) rotate(151.8)"><tspan x="0" y="0"> </tspan></text>
    <text class="cls-13" transform="translate(386.36 258.85) rotate(174.49)"><tspan x="0" y="0"> </tspan></text>
    <text class="cls-13" transform="translate(378.8 260.53) rotate(-150.71)"><tspan x="0" y="0"> </tspan></text>
    <text class="cls-13" transform="translate(371.69 257.09) rotate(-120.57)"><tspan x="0" y="0"> </tspan></text>
    <text class="cls-13" transform="translate(367.13 249.56) rotate(-102.91)"><tspan x="0" y="0"> </tspan></text>
    <text class="cls-13" transform="translate(365 240.39) rotate(-92.11)"><tspan x="0" y="0"> </tspan></text>
    <text class="cls-13" transform="translate(364.62 230.73) rotate(-84.16)"><tspan x="0" y="0"> </tspan></text>
    <text class="cls-13" transform="translate(365.58 221.02) rotate(-77.29)"><tspan x="0" y="0"> </tspan></text>
    <text class="cls-13" transform="translate(367.7 211.47) rotate(-70.56)"><tspan x="0" y="0"> </tspan></text>
    <text class="cls-13" transform="translate(370.89 202.27) rotate(-63.32)"><tspan x="0" y="0"> </tspan></text>
    <text class="cls-13" transform="translate(375.15 193.63) rotate(-55)"><tspan x="0" y="0"> </tspan></text>
    <text class="cls-13" transform="translate(380.51 185.79) rotate(-45.1)"><tspan x="0" y="0"> </tspan></text>
    <text class="cls-13" transform="translate(387 179.08) rotate(-33.32)"><tspan x="0" y="0"> </tspan></text>
    <text class="cls-13" transform="translate(394.61 173.89) rotate(-20.02)"><tspan x="0" y="0"> </tspan></text>
    <text class="cls-13" transform="translate(403.2 170.61) rotate(-6.41)"><tspan x="0" y="0"> </tspan></text>
    <text class="cls-13" transform="translate(412.41 169.49) rotate(5.96)"><tspan x="0" y="0"> </tspan></text>
    <text class="cls-13" transform="translate(421.82 170.42) rotate(16.23)"><tspan x="0" y="0"> </tspan></text>
    <text class="cls-13" transform="translate(430.95 173.16) rotate(23.07)"><tspan x="0" y="0"> </tspan></text>
    <text class="cls-13" transform="translate(439.97 177.06) rotate(31.71)"><tspan x="0" y="0"> </tspan></text>
    <text class="cls-13" transform="translate(448.25 182.12) rotate(39.35)"><tspan x="0" y="0"> </tspan></text>
    <text class="cls-13" transform="translate(455.78 188.23) rotate(46.95)"><tspan x="0" y="0"> </tspan></text>
    <text class="cls-13" transform="translate(462.44 195.31) rotate(54.22)"><tspan x="0" y="0"> </tspan></text>
    <text class="cls-13" transform="translate(468.18 203.22) rotate(60.98)"><tspan x="0" y="0"> </tspan></text>
    <text class="cls-13" transform="translate(472.97 211.82) rotate(67.14)"><tspan x="0" y="0"> </tspan></text>
    <text class="cls-13" transform="translate(476.82 220.91) rotate(72.67)"><tspan x="0" y="0"> </tspan></text>
    <text class="cls-13" transform="translate(479.8 230.4) rotate(77.65)"><tspan x="0" y="0"> </tspan></text>
    <text class="cls-13" transform="translate(481.94 240.16) rotate(82.16)"><tspan x="0" y="0"> </tspan></text>
    <text class="cls-13" transform="translate(483.32 250.07) rotate(86.28)"><tspan x="0" y="0"> </tspan></text>
    <text class="cls-13" transform="translate(483.98 260.09) rotate(90.11)"><tspan x="0" y="0"> </tspan></text>
    <text class="cls-13" transform="translate(483.97 270.16) rotate(93.73)"><tspan x="0" y="0"> </tspan></text>
    <text class="cls-13" transform="translate(483.32 280.2) rotate(97.25)"><tspan x="0" y="0"> </tspan></text>
    <text class="cls-13" transform="translate(482.06 290.2) rotate(100.76)"><tspan x="0" y="0"> </tspan></text>
    <text class="cls-13" transform="translate(480.2 300.08) rotate(104.36)"><tspan x="0" y="0"> </tspan></text>
    <text class="cls-13" transform="translate(477.73 309.8) rotate(108.19)"><tspan x="0" y="0"> </tspan></text>
    <text class="cls-13" transform="translate(474.61 319.34) rotate(112.48)"><tspan x="0" y="0"> </tspan></text>
    <text class="cls-13" transform="translate(470.86 328.52) rotate(117.47)"><tspan x="0" y="0"> </tspan></text>
    <text class="cls-13" transform="translate(466.37 337.27) rotate(123.71)"><tspan x="0" y="0"> </tspan></text>
    <text class="cls-13" transform="translate(461.1 345.33) rotate(132)"><tspan x="0" y="0"> </tspan></text>
    <text class="cls-13" transform="translate(454.98 352.39) rotate(143.79)"><tspan x="0" y="0"> </tspan></text>
    <text class="cls-13" transform="translate(447.98 357.91) rotate(160.77)"><tspan x="0" y="0"> </tspan></text>
    <text class="cls-13" transform="translate(440.05 361.1) rotate(-177.43)"><tspan x="0" y="0"> </tspan></text>
    <text class="cls-13" transform="translate(431.48 360.97) rotate(-156.8)"><tspan x="0" y="0"> </tspan></text>
    <text class="cls-13" transform="translate(423.54 358.09) rotate(-133.66)"><tspan x="0" y="0"> </tspan></text>
    <text class="cls-13" transform="translate(417.49 352.3) rotate(-109.58)"><tspan x="0" y="0"> </tspan></text>
    <text class="cls-13" transform="translate(414.4 344.11) rotate(-91.36)"><tspan x="0" y="0"> </tspan></text>
    <text class="cls-13" transform="translate(414.14 334.83) rotate(-79.03)"><tspan x="0" y="0"> </tspan></text>
    <text class="cls-13" transform="translate(415.95 325.38) rotate(-70.33)"><tspan x="0" y="0"> </tspan></text>
    <text class="cls-13" transform="translate(419.21 316.18) rotate(-63.57)"><tspan x="0" y="0"> </tspan></text>
    <text class="cls-13" transform="translate(423.13 307.35) rotate(-54.92)"><tspan x="0" y="0">S</tspan></text>
    <text class="cls-13" transform="translate(433.76 291.89) rotate(-43.76)"><tspan x="0" y="0">T</tspan></text>
    <text class="cls-13" transform="translate(444.7 280.4) rotate(-29.79)"><tspan x="0" y="0">A</tspan></text>
    <text class="cls-13" transform="translate(459 271.09) rotate(-6.56)"><tspan x="0" y="0">Y</tspan></text>
    <text class="cls-13" transform="translate(474.57 269.42) rotate(19.02)"><tspan x="0" y="0"> </tspan></text>
    <text class="cls-13" transform="translate(483.12 270.57) rotate(47.3)"><tspan x="0" y="0">C</tspan></text>
    <text class="cls-13" transform="translate(496.71 285.64) rotate(65.2)"><tspan x="0" y="0">A</tspan></text>
    <text class="cls-13" transform="translate(505.15 304.2) rotate(75.2)"><tspan x="0" y="0">L</tspan></text>
    <text class="cls-13" transform="translate(510.15 321.93) rotate(83.72)"><tspan x="0" y="0">M</tspan></text>
    <path class="cls-9" d="M154.06,472.54s-73.33,30.22-84.44-44.89c-11.11-75.11,102.22-26.22,63.11,8.44s-123.11,12.44-107.56-73.33c15.56-85.78,104.44-80.89,116.44-52.44s-97.33,52.89-101.33-40,175.11-93.78,166.22-42.67-147.39-7.72-103.56-65.78,245.33-25.78,209.33,43.56c-36,69.33-135.11-84-59.11-99.11s204.89,84.89,147.56,141.33c-57.33,56.44-46.67-110.67,36-72s41.33,197.78-6.67,184.44,25.33-124,61.78-80,27.11,177.78-43.11,167.56,43.11-136.44,81.33-50.67-78.75,142.83-136.89,146.67-107.81-10.72-112.81,20.28"/>
    <g>
      <path class="cls-12" d="M28.05,127.37l-1.45,3.08-21.38-2.77c-.63-.09-1.1-.12-1.4-.09-.3.03-.6.16-.91.39l-.56.45c-.36.28-.67.41-.95.41-.28,0-.54-.09-.8-.26-.35-.23-.54-.51-.6-.84-.05-.33.06-.69.33-1.1l5.1-7.65c.28-.42.58-.67.91-.76.33-.09.67-.02,1.01.21.56.37.71,1,.45,1.87l-.48,1.06c-.2.64-.2,1.09,0,1.35.19.26.64.45,1.34.55l17.55,2.41-.46,2.8-9.64-16.55c-.33-.57-.66-.9-.98-.98-.32-.08-.71.07-1.16.46l-1.04,1.09c-.25.18-.52.28-.81.3-.28.02-.57-.06-.84-.25-.35-.23-.55-.51-.6-.83-.06-.32.05-.68.32-1.09l3.67-5.5c.28-.42.58-.66.91-.73s.65,0,.99.23c.24.16.41.36.52.61.11.25.1.6,0,1.05l-.09.35c-.08.29-.12.56-.12.8,0,.24.08.53.23.87.15.34.4.82.76,1.44l10.18,17.6ZM23.6,129.63l2.81-4.21,6.41,4.28c.41.28.81.4,1.2.39.39-.02.77-.18,1.14-.48l.91-.8c.63-.46,1.22-.5,1.77-.14.35.23.54.51.6.84.05.33-.06.69-.33,1.1l-5.22,7.82c-.26.39-.55.63-.88.71-.32.08-.66,0-1-.23-.55-.36-.73-.92-.56-1.67l.4-1.16c.13-.48.13-.9,0-1.24-.13-.35-.41-.66-.82-.93l-6.41-4.28Z"/>
      <path class="cls-12" d="M33.29,101.15c1.41-1.59,3.01-2.66,4.81-3.21,1.8-.56,3.64-.6,5.52-.15,1.88.46,3.66,1.43,5.32,2.9,1.63,1.44,2.77,3.08,3.44,4.91s.83,3.68.48,5.55c-.35,1.87-1.24,3.61-2.66,5.22-1.41,1.58-3.01,2.66-4.8,3.22-1.79.56-3.64.61-5.53.14-1.89-.47-3.68-1.45-5.35-2.93-1.6-1.42-2.74-3.05-3.4-4.87-.66-1.82-.82-3.67-.47-5.56s1.23-3.63,2.65-5.22ZM49.38,113.11c.57-.98.76-2.03.56-3.16-.2-1.13-.74-2.24-1.62-3.35s-2.05-2.1-3.52-2.97c-1.59-.96-3.08-1.55-4.47-1.78-1.39-.23-2.62-.13-3.68.3-1.06.42-1.89,1.16-2.47,2.21-.58.97-.78,2.03-.6,3.17s.71,2.26,1.59,3.37,2.06,2.1,3.55,3c1.6.95,3.09,1.54,4.48,1.76s2.62.12,3.69-.33c1.07-.45,1.9-1.18,2.49-2.21Z"/>
      <path class="cls-12" d="M56.05,100.41l-6.85-7.75c-.33-.37-.62-.59-.86-.65-.25-.06-.5-.02-.76.13l-1.06.84c-.27.11-.51.15-.73.12-.22-.03-.41-.14-.58-.33-.19-.22-.29-.46-.3-.73,0-.27.09-.59.29-.96l1.64-3.02c.24-.44.44-.81.62-1.09.18-.28.36-.51.56-.68.29-.25.59-.36.91-.31.32.04.62.22.9.53l8.82,9.98c.96,1.09,1.94,1.7,2.94,1.84.99.13,1.89-.15,2.69-.86.56-.49,1.02-1.18,1.37-2.06.35-.88.59-1.98.7-3.3l.1-1.27,1.68.28-.07,1.54c-.14,2.19-.46,4.02-.97,5.47-.51,1.45-1.23,2.59-2.17,3.42-1.3,1.15-2.77,1.64-4.39,1.46-1.62-.18-3.12-1.04-4.49-2.59ZM68.63,94.02l-1.11-1.26-.26-.09-7.93-8.97c-.33-.37-.62-.59-.86-.65s-.5-.02-.76.13l-1.06.84c-.27.11-.51.15-.73.12-.22-.03-.41-.14-.58-.33-.19-.22-.29-.46-.3-.73,0-.27.09-.59.29-.96l1.64-3.02c.24-.44.44-.81.61-1.09.17-.28.36-.51.56-.69.29-.25.59-.36.92-.31.32.04.62.22.9.53l10.88,12.3c.36.41.69.65.98.73.29.08.6.06.91-.07l.76-.38c.3-.1.57-.12.81-.07.24.05.45.18.64.4.22.25.32.52.29.81-.03.29-.19.57-.49.83l-2.55,2.26c-.59.53-1.19.76-1.8.71-.61-.05-1.19-.39-1.75-1.03Z"/>
      <path class="cls-12" d="M70.93,69.44l3.22,4.07,6.5,9.01c.3.42.62.68.95.81.33.12.69.09,1.08-.11l1.56-.86c.32-.18.62-.23.89-.15.27.07.5.24.68.5.2.27.27.55.21.84-.06.29-.25.55-.58.79l-7.1,5.13c-.32.23-.63.33-.92.31-.29-.03-.54-.18-.75-.47-.17-.23-.25-.47-.23-.71.02-.24.1-.5.25-.79l.56-.67c.21-.29.3-.58.28-.88-.02-.3-.19-.67-.51-1.11l-7.15-9.9c-.29-.4-.56-.65-.79-.73s-.5-.06-.79.06l-1.12.72c-.29.09-.54.11-.76.06-.22-.05-.4-.18-.55-.39-.17-.23-.24-.49-.21-.76.03-.28.16-.59.4-.94l1.93-2.87c.25-.38.47-.7.67-.95.19-.26.37-.44.53-.56.26-.19.53-.25.82-.18.29.07.6.32.94.74ZM75.27,76.58c-1.27-1.76-2.1-3.43-2.49-4.99-.39-1.57-.4-2.94-.04-4.13.36-1.19,1.02-2.13,1.97-2.82,1.03-.74,2.06-1,3.09-.78,1.03.22,1.97.91,2.8,2.06.63.87.93,1.64.9,2.32-.03.68-.31,1.22-.86,1.61-.57.41-1.12.56-1.64.46-.53-.1-.99-.43-1.39-.99l-.45-.62c-.3-.41-.62-.65-.97-.69-.34-.05-.7.06-1.05.32-.53.38-.88.95-1.05,1.71-.17.75-.11,1.65.17,2.68.28,1.03.85,2.14,1.72,3.33l-.71.54Z"/>
      <path class="cls-12" d="M88.86,42.34l12.91-6.86c.38-.2.66-.45.86-.75.19-.3.37-.59.55-.88.17-.28.4-.5.7-.66.44-.24.85-.29,1.21-.17.36.13.75.43,1.18.91l4.44,5.14c.35.4.52.78.52,1.15,0,.37-.14.68-.43.92-.28.22-.58.32-.9.3-.32-.02-.68-.19-1.08-.53-1.18-1.09-2.15-1.87-2.9-2.33-.75-.46-1.4-.69-1.96-.67-.56.02-1.17.2-1.83.55l-3.29,1.75,12.16,22.87c.26.48.56.79.91.94.35.15.76.17,1.23.07l1.64-.52c.77-.12,1.31.12,1.62.71.41.76.18,1.37-.66,1.82l-9.31,4.95c-.42.22-.79.29-1.11.21-.32-.08-.58-.31-.77-.68-.32-.59-.22-1.17.3-1.73l1.37-1.08c.33-.32.53-.67.59-1.03.06-.37-.03-.79-.29-1.27l-12.16-22.87-3.37,1.79c-.65.34-1.12.74-1.43,1.18-.31.45-.47,1.11-.5,1.98-.03.88.08,2.11.32,3.7.06.51.01.9-.15,1.18-.16.28-.42.47-.76.58-.37.11-.71.06-1.01-.15-.3-.21-.52-.57-.65-1.08l-1.8-6.55c-.17-.62-.21-1.11-.11-1.49.1-.38.37-.69.82-.92.3-.16.61-.23.95-.21.34.02.69.03,1.07.03.37,0,.75-.1,1.14-.31Z"/>
      <path class="cls-12" d="M123.36,55.56l-3.94-9.57c-.19-.46-.39-.76-.6-.89-.21-.14-.47-.18-.76-.13l-1.28.45c-.29.02-.53-.03-.73-.13-.2-.1-.35-.27-.44-.51-.11-.27-.12-.53-.04-.79.08-.26.28-.53.59-.81l2.54-2.31c.37-.34.69-.62.95-.83.26-.21.51-.37.75-.46.35-.14.67-.14.97,0,.29.15.52.41.68.8l5.07,12.32c.55,1.35,1.28,2.25,2.17,2.7.9.45,1.84.48,2.82.07.69-.28,1.35-.78,1.97-1.5.62-.71,1.2-1.68,1.75-2.88l.51-1.17,1.5.81-.57,1.43c-.85,2.03-1.75,3.64-2.71,4.85-.96,1.21-2.01,2.05-3.17,2.52-1.61.66-3.15.64-4.62-.06-1.48-.7-2.61-2-3.39-3.91ZM137.34,53.65l-.64-1.55-.22-.17-4.56-11.08c-.19-.46-.39-.76-.6-.89-.21-.14-.47-.18-.76-.13l-1.28.45c-.29.02-.54-.03-.73-.13-.2-.1-.35-.27-.44-.51-.11-.27-.12-.53-.04-.79.08-.26.28-.53.59-.81l2.54-2.31c.37-.34.68-.62.93-.83.25-.21.51-.36.76-.47.35-.15.67-.14.97,0,.29.15.52.41.68.8l6.25,15.18c.21.5.44.84.69,1.01.25.17.55.25.89.23l.84-.11c.32,0,.58.07.79.2.21.12.37.32.48.58.13.31.13.6,0,.87-.12.27-.37.47-.73.63l-3.15,1.3c-.73.3-1.38.33-1.93.08-.56-.25-.99-.76-1.32-1.55Z"/>
      <path class="cls-12" d="M147.21,31.05l1.82,4.86,3.43,10.57c.16.49.38.84.66,1.06.28.22.63.29,1.06.22l1.74-.34c.36-.07.66-.03.9.13.23.15.4.38.5.68.1.32.08.61-.06.86-.14.26-.41.45-.8.57l-8.33,2.7c-.38.12-.7.13-.97.01-.27-.11-.46-.34-.57-.67-.09-.27-.09-.52,0-.74.09-.22.25-.45.48-.67l.74-.47c.28-.21.46-.46.54-.75.07-.29.03-.7-.14-1.21l-3.77-11.62c-.15-.47-.33-.78-.53-.94-.2-.15-.46-.21-.77-.18l-1.28.34c-.31,0-.55-.06-.74-.18-.19-.12-.32-.29-.4-.54-.09-.27-.08-.54.03-.79.11-.25.33-.51.66-.77l2.72-2.14c.36-.28.67-.52.93-.7.26-.19.49-.31.67-.37.3-.1.58-.07.83.08.25.15.47.49.67.99ZM149.15,39.18c-.67-2.07-.95-3.91-.84-5.52.11-1.61.52-2.92,1.23-3.94.71-1.02,1.62-1.71,2.74-2.08,1.2-.39,2.26-.32,3.18.2.92.53,1.59,1.47,2.03,2.82.33,1.02.38,1.85.15,2.49-.23.64-.67,1.06-1.31,1.27-.67.22-1.24.19-1.7-.07-.47-.26-.81-.72-1.02-1.37l-.24-.73c-.16-.49-.39-.81-.71-.96-.31-.15-.68-.16-1.1-.02-.62.2-1.13.64-1.53,1.3-.39.67-.61,1.53-.66,2.6-.05,1.07.16,2.3.61,3.7l-.84.3Z"/>
      <path class="cls-12" d="M166.41,25.27l3.93,15.94c.14.56.31.95.52,1.17.21.22.5.35.87.39l.86.04c.56.11.9.4,1.01.86.18.71-.11,1.16-.85,1.35l-7.22,1.78c-.38.09-.71.08-.97-.06-.26-.13-.43-.37-.52-.71-.07-.28-.05-.53.05-.75.1-.22.28-.43.53-.63l.75-.41c.3-.19.5-.43.6-.72.1-.29.09-.7-.04-1.23l-2.93-11.86c-.12-.48-.27-.81-.46-.97-.19-.17-.44-.25-.75-.23l-1.33.25c-.29-.03-.52-.11-.71-.23-.18-.13-.3-.32-.36-.57-.07-.28-.04-.54.08-.79.12-.24.36-.48.73-.72l2.83-1.91c.42-.28.77-.51,1.06-.68.29-.17.57-.29.83-.35.37-.09.69-.04.94.15.26.19.44.49.54.89ZM167.07,30.7l-1.35-1,.78-1.33c1.13-1.9,2.28-3.37,3.43-4.42,1.15-1.05,2.36-1.73,3.62-2.04,1.78-.44,3.34-.21,4.7.68,1.36.89,2.28,2.32,2.76,4.27l2.73,11.04c.13.53.3.9.52,1.11.22.21.5.33.85.36h.85c.3.09.55.19.74.34.19.14.32.35.39.63.08.34.05.63-.12.87-.16.24-.43.4-.82.5l-7.22,1.78c-.76.19-1.22-.08-1.4-.79-.12-.47.05-.88.5-1.24l.79-.44c.3-.2.48-.45.57-.75.08-.29.06-.72-.08-1.28l-2.44-9.88c-.33-1.35-.91-2.31-1.73-2.87-.82-.56-1.79-.71-2.9-.43-.8.2-1.58.6-2.34,1.22-.76.62-1.48,1.48-2.17,2.59l-.68,1.08Z"/>
      <path class="cls-12" d="M196.2,20.34h-1.11c-.33-.06-.58-.18-.74-.38-.16-.19-.27-.43-.31-.72-.05-.32.02-.59.2-.83.19-.24.46-.39.82-.45l1.11-.17c.33-.05.6-.19.79-.4.2-.22.36-.58.48-1.08l.58-2.93c.15-.41.35-.75.6-1.02.25-.27.52-.42.81-.47.33-.05.62.02.87.2.25.19.4.5.47.95l3.06,19.46c.15.93.46,1.62.95,2.06.49.44,1.09.61,1.81.49.42-.07.77-.2,1.05-.4.28-.2.51-.41.69-.63.18-.22.35-.42.5-.59.15-.17.31-.27.48-.29.21-.03.39.03.55.19.16.16.25.42.27.77.07.65-.07,1.31-.43,1.98-.36.66-.89,1.25-1.6,1.75-.71.5-1.53.82-2.46.97-1.64.26-3,0-4.08-.78-1.08-.78-1.77-2.12-2.07-4.01l-1.91-12.12c-.08-.52-.22-.9-.42-1.14-.2-.24-.52-.38-.96-.42ZM199.7,19.87l-.4-2.56,6.8-1.07c.41-.06.73-.03.97.1.24.13.38.37.43.7.07.46-.06.86-.4,1.22-.34.35-.92.59-1.75.72l-5.65.89Z"/>
      <path class="cls-12" d="M221.23,13.92c2.11-.22,4.01.07,5.72.87s3.09,2.01,4.17,3.62c1.08,1.61,1.74,3.52,1.97,5.73.23,2.16-.03,4.15-.77,5.94-.74,1.8-1.87,3.27-3.39,4.42-1.52,1.15-3.35,1.83-5.49,2.06-2.11.22-4.01-.07-5.71-.86-1.7-.8-3.09-2-4.18-3.63-1.08-1.62-1.74-3.55-1.97-5.78-.22-2.13.03-4.09.77-5.89.74-1.79,1.87-3.26,3.4-4.42,1.53-1.16,3.35-1.85,5.48-2.07ZM225.04,33.6c1.08-.34,1.93-.99,2.54-1.96s.97-2.15,1.06-3.56c.1-1.41-.1-2.93-.59-4.57-.52-1.78-1.22-3.22-2.1-4.33-.88-1.11-1.85-1.86-2.92-2.26-1.07-.4-2.18-.41-3.32-.04-1.09.32-1.95.97-2.58,1.94-.63.97-1,2.15-1.1,3.55-.1,1.4.1,2.94.6,4.61.54,1.78,1.25,3.22,2.12,4.33.88,1.11,1.86,1.86,2.95,2.25,1.09.39,2.2.41,3.33.05Z"/>
      <path class="cls-12" d="M257.53,22.88c-.61.03-1.31.06-2.09.08-.79.03-1.61.06-2.47.1-.86.04-1.71.08-2.56.1-.85.03-1.63.05-2.36.08-.72.02-1.35.04-1.89.05-.49.03-.86-.08-1.13-.32-.27-.24-.41-.59-.44-1.03,0-.46.12-.81.38-1.04.26-.23.64-.35,1.12-.36.52-.01,1.14,0,1.88,0,.73.02,1.52.04,2.36.07.84.03,1.69.06,2.55.1.86.04,1.69.06,2.48.08.79.01,1.5.01,2.13,0,.6-.01,1.27-.04,2.02-.08s1.54-.09,2.35-.14,1.62-.1,2.42-.15c.8-.05,1.55-.09,2.24-.13s1.28-.07,1.77-.1c.52-.01.93.09,1.22.31.29.22.45.54.48.97,0,.46-.15.82-.43,1.07-.28.25-.69.39-1.23.44-.49,0-1.08-.01-1.77-.02-.69,0-1.44-.02-2.24-.03-.8-.01-1.61-.03-2.43-.04-.82-.01-1.6-.02-2.36-.02-.75,0-1.43,0-2.02.02ZM258.8,11.02c.59-.01,1.27-.04,2.02-.07.75-.03,1.54-.07,2.37-.12.82-.05,1.64-.1,2.44-.16s1.56-.11,2.25-.15c.69-.04,1.29-.07,1.79-.1.5-.01.9.09,1.2.31.29.22.45.55.46,1,.01.46-.13.82-.41,1.07-.28.25-.69.38-1.2.41-.5,0-1.1-.01-1.8-.02-.69,0-1.45-.02-2.25-.02-.81,0-1.63-.02-2.45-.03-.82-.01-1.61-.02-2.37-.03-.76,0-1.43,0-2.03,0-.61.03-1.3.06-2.07.09-.77.03-1.58.07-2.43.1-.85.03-1.7.07-2.54.1-.84.03-1.62.06-2.34.08-.72.02-1.35.03-1.86.04-.49.03-.86-.08-1.13-.31-.26-.23-.41-.58-.43-1.05-.01-.46.12-.81.39-1.04.27-.23.63-.35,1.09-.36.52-.01,1.14,0,1.87,0,.72.02,1.5.04,2.34.08.83.04,1.68.07,2.53.1.85.03,1.68.06,2.46.08.79.02,1.49.02,2.12-.01ZM255.07,17.51c-.15.69-.33,1.47-.52,2.34-.19.87-.4,1.78-.6,2.75-.21.96-.42,1.93-.63,2.91-.21.97-.42,1.92-.62,2.83-.2.92-.39,1.76-.56,2.53-.17.77-.32,1.43-.45,1.98-.27,1.13-.8,1.59-1.62,1.4-.42-.1-.69-.33-.83-.69-.14-.36-.14-.8-.02-1.33.12-.61.29-1.31.49-2.1.2-.79.43-1.64.68-2.55.25-.91.5-1.85.76-2.83.26-.97.52-1.94.77-2.89.25-.95.49-1.85.71-2.72.22-.86.4-1.64.55-2.35.14-.69.3-1.46.48-2.3.18-.84.36-1.74.55-2.68.19-.94.37-1.88.56-2.83.19-.95.37-1.87.55-2.77.18-.9.35-1.74.51-2.51.16-.77.3-1.45.42-2.03.28-1.21.82-1.69,1.64-1.45.4.1.66.33.79.69.13.36.12.85-.01,1.48-.14.56-.3,1.24-.49,2.02s-.39,1.62-.61,2.51c-.22.89-.44,1.81-.67,2.76-.23.95-.46,1.9-.68,2.84-.22.94-.43,1.83-.63,2.68-.2.84-.36,1.61-.5,2.3ZM259.62,32.68c-.25,1.13-.79,1.59-1.62,1.4-.4-.1-.67-.33-.8-.69-.14-.36-.15-.8-.04-1.33.14-.61.31-1.31.5-2.1.2-.79.42-1.64.67-2.55.25-.91.5-1.85.76-2.83.26-.97.52-1.94.77-2.89.25-.95.49-1.85.71-2.72.22-.86.41-1.64.58-2.35.15-.69.31-1.46.49-2.3.17-.84.35-1.74.54-2.68.19-.94.37-1.88.56-2.83.18-.95.37-1.87.55-2.77.18-.9.35-1.74.5-2.51.16-.77.3-1.45.42-2.03.28-1.21.82-1.69,1.64-1.45.4.1.66.33.78.69.12.36.11.85-.02,1.48-.12.56-.28,1.23-.47,2.02s-.39,1.62-.61,2.51c-.22.89-.44,1.81-.67,2.76-.23.95-.46,1.9-.68,2.84-.22.94-.43,1.83-.63,2.68-.2.84-.37,1.61-.52,2.3-.15.69-.33,1.47-.52,2.34-.2.87-.4,1.79-.6,2.75s-.42,1.93-.63,2.91c-.21.97-.42,1.91-.62,2.82-.2.91-.39,1.75-.56,2.52-.17.77-.32,1.44-.45,2Z"/>
      <path class="cls-12" d="M300.7,12.39c-.06,1.53-.42,2.92-1.09,4.15-.66,1.23-1.57,2.25-2.71,3.06-1.15.81-2.47,1.35-3.98,1.63-.58.07-1.11.17-1.58.29-.47.12-.96.22-1.47.3-.51.08-1.09.11-1.74.09-.79-.03-1.61-.12-2.44-.28s-1.62-.37-2.37-.64c-.75-.27-1.4-.58-1.97-.94l.25-2.42c.59.44,1.24.77,1.95,1,.71.23,1.41.39,2.1.49.69.1,1.3.16,1.84.18,2.44.09,4.35-.49,5.74-1.75,1.39-1.26,2.13-3.06,2.22-5.39.06-1.66-.26-3.17-.97-4.52-.71-1.35-1.77-2.42-3.16-3.23-1.4-.81-3.09-1.25-5.09-1.32l-2.51-.1-.99,26.07c-.02.56.08.99.31,1.28.23.3.56.53.99.69l1.29.36c.34.16.6.35.76.58s.23.51.22.82c-.03.86-.54,1.28-1.51,1.24l-9.46-.36c-.47-.02-.83-.14-1.06-.38-.24-.23-.35-.56-.33-.97.02-.66.4-1.11,1.13-1.35l1.11-.27c.48-.13.84-.33,1.1-.61.25-.28.39-.69.41-1.23l.91-23.79c.02-.54-.09-.96-.32-1.26-.23-.3-.58-.53-1.05-.69l-1.08-.35c-.71-.3-1.05-.78-1.02-1.43.02-.42.15-.73.4-.95.25-.21.61-.31,1.09-.29l9.99.38c3.09.12,5.7.72,7.83,1.81,2.12,1.09,3.72,2.51,4.79,4.27,1.07,1.75,1.56,3.7,1.48,5.84ZM289.03,20.6l4.94-.51,5.45,10.18c.26.46.53.8.83,1.03.3.23.69.43,1.17.61.59.2.99.41,1.2.63.21.22.31.52.3.89-.02.42-.15.73-.39.95s-.61.31-1.1.29l-8.21-.31c-.93-.04-1.38-.48-1.34-1.35,0-.26.09-.47.24-.65.15-.18.36-.32.62-.42l.97-.16c.28-.07.44-.21.49-.43.05-.21-.02-.52-.21-.91l-4.96-9.84Z"/>
      <path class="cls-12" d="M324.24,22.77c-.09.94-.4,1.63-.95,2.07-.55.44-1.28.62-2.21.53l-13.26-1.21.18-1.98,10.12.92c.9.08,1.38-.32,1.46-1.19.14-1.58-.15-2.89-.89-3.93-.74-1.04-1.78-1.62-3.11-1.74-1.08-.1-2.07.12-2.97.66-.9.54-1.64,1.35-2.22,2.44-.58,1.09-.94,2.41-1.09,3.97-.26,2.88.2,5.16,1.4,6.82,1.2,1.66,2.86,2.59,4.98,2.78,1.49.13,2.77-.11,3.85-.75,1.08-.63,1.89-1.41,2.45-2.32.21-.24.39-.41.55-.5.16-.1.33-.14.49-.12.21.04.37.14.48.32.11.18.14.43.12.75-.19,1.19-.69,2.27-1.53,3.25-.83.98-1.92,1.74-3.27,2.28-1.35.54-2.89.74-4.62.58-2.1-.19-3.87-.83-5.32-1.91-1.45-1.08-2.51-2.49-3.2-4.24-.68-1.75-.92-3.72-.72-5.92.2-2.2.8-4.13,1.8-5.79,1-1.66,2.33-2.92,3.98-3.79,1.65-.87,3.54-1.21,5.69-1.01,1.7.16,3.16.65,4.38,1.48,1.22.83,2.13,1.91,2.74,3.21.61,1.31.84,2.76.69,4.35Z"/>
      <path class="cls-12" d="M326.08,35.53c.1-.65.53-1.05,1.28-1.21l1.2-.13c.46-.07.83-.23,1.11-.48.28-.25.46-.64.54-1.18l3.69-23.52c.08-.54.03-.97-.16-1.29-.19-.32-.49-.59-.9-.8l-1.1-.49c-.67-.38-.95-.89-.85-1.54.06-.41.23-.71.51-.89s.65-.24,1.11-.17l10.53,1.65c2.71.43,5.11,1.24,7.2,2.45,2.09,1.21,3.81,2.73,5.17,4.55,1.36,1.82,2.3,3.86,2.83,6.12.53,2.25.59,4.64.19,7.17-.47,2.99-1.52,5.57-3.15,7.74-1.63,2.17-3.76,3.76-6.4,4.77-2.64,1-5.71,1.23-9.22.68l-12.36-1.94c-.47-.07-.8-.24-1.01-.5-.21-.26-.28-.59-.21-1ZM339.79,36.28c2.38.37,4.51.16,6.38-.65,1.87-.81,3.41-2.13,4.63-3.98,1.22-1.84,2.04-4.12,2.46-6.84.33-2.13.33-4.14-.03-6.03-.35-1.89-1.02-3.57-2-5.06-.98-1.49-2.23-2.72-3.76-3.7-1.53-.98-3.3-1.62-5.3-1.94l-2.94-.46-3.97,25.27c-.14.9-.03,1.6.34,2.08s1,.8,1.89.94l2.28.36Z"/>
      <path class="cls-12" d="M370.08,23.67l-3.51,16.04c-.12.53-.12.94,0,1.21s.32.52.62.71l.74.38c.26.19.44.39.55.61.11.22.13.47.07.75-.08.34-.24.59-.49.73-.25.14-.57.17-.96.09l-7.29-1.59c-.39-.08-.67-.24-.84-.48-.17-.23-.22-.52-.15-.87.06-.28.19-.5.38-.65s.44-.26.75-.33l.87-.03c.35-.05.64-.18.85-.39.21-.21.37-.58.49-1.11l2.61-11.93c.11-.48.11-.84.01-1.08-.1-.23-.29-.41-.57-.54l-1.28-.35c-.26-.16-.45-.33-.55-.53-.11-.2-.13-.42-.08-.67.06-.28.2-.5.43-.67.22-.16.54-.27.96-.33l3.38-.46c.5-.07.92-.12,1.25-.14.33-.03.63,0,.9.05.37.08.63.27.78.55.15.29.18.63.09,1.04ZM368.59,17.6c-.94-.21-1.64-.65-2.1-1.33s-.59-1.47-.4-2.36.64-1.55,1.35-1.98c.7-.43,1.52-.54,2.46-.33.95.21,1.66.65,2.12,1.34.46.68.59,1.46.4,2.34-.2.91-.65,1.57-1.35,2-.7.43-1.53.54-2.48.33Z"/>
      <path class="cls-12" d="M371.95,40.18c.5-1.85,1.68-3.14,3.54-3.86,1.86-.72,4.09-.73,6.71-.02.81.22,1.6.51,2.36.86.76.36,1.4.73,1.91,1.12l-.88,1.68c-.5-.37-1.04-.7-1.61-1.01-.57-.31-1.21-.55-1.92-.74-1.35-.37-2.51-.34-3.48.07-.97.42-1.6,1.19-1.91,2.32-.3,1.1-.2,2.01.29,2.73.49.72,1.23,1.22,2.22,1.48,1,.27,2.01.28,3.02.02,1.01-.26,1.95-.74,2.82-1.45l.1,1.74c-1.17,1.04-2.51,1.73-4.03,2.06-1.52.33-3.04.29-4.56-.12-1.81-.49-3.14-1.35-3.98-2.58-.84-1.23-1.04-2.67-.6-4.3ZM383.94,45.62l.19-.72-.23-.46,3.22-11.86c.33-1.2.27-2.22-.18-3.03-.45-.82-1.23-1.38-2.33-1.68-1-.27-1.83-.27-2.49.02-.66.28-1.08.75-1.26,1.4l-.35,1.3c-.21.76-.58,1.28-1.11,1.56-.54.29-1.19.32-1.97.11-.72-.2-1.21-.54-1.46-1.03-.25-.49-.29-1.06-.12-1.71.27-.99.86-1.83,1.79-2.52.92-.69,2.12-1.14,3.58-1.34,1.46-.2,3.13-.04,5.02.47,2.25.61,3.81,1.62,4.67,3.03.86,1.41,1.03,3.06.51,4.96l-3.14,11.58c-.1.36-.09.66.01.92.1.26.32.43.64.52.21.06.39.06.54.02.15-.04.3-.1.43-.18.1-.07.2-.13.31-.18.11-.05.22-.05.34-.02.22.06.37.19.45.4.08.2.08.45,0,.72-.13.46-.39.88-.8,1.24-.41.36-.91.61-1.52.76-.61.14-1.26.12-1.97-.07-1.06-.29-1.85-.81-2.37-1.56-.52-.76-.65-1.63-.37-2.64Z"/>
      <path class="cls-12" d="M409.5,20.92l-9.31,28.22c-.17.52-.22.92-.15,1.21.07.29.25.55.53.76l.71.46c.24.21.4.43.48.66.08.23.08.48,0,.76-.11.33-.3.56-.57.67-.27.11-.59.11-.97-.02l-7.08-2.34c-.36-.12-.62-.31-.77-.56-.15-.25-.17-.54-.06-.88.09-.27.24-.48.44-.61.2-.13.46-.22.78-.25l.85.05c.35,0,.65-.1.88-.29.23-.19.43-.55.6-1.06l7.99-24.23c.16-.47.2-.83.12-1.07-.07-.24-.24-.44-.49-.59l-1.26-.49c-.23-.18-.39-.37-.47-.57-.08-.21-.09-.43,0-.67.09-.27.25-.48.48-.62.23-.14.56-.22.98-.23l3.43-.11c.51-.03.93-.05,1.27-.04.33,0,.62.05.87.14.36.12.6.33.73.64.12.31.12.66-.01,1.06Z"/>
      <path class="cls-12" d="M418.4,46.97l4.68,1.92-2.92,7.13c-.19.46-.23.88-.14,1.25.09.38.32.72.69,1.02l.96.73c.57.53.74,1.1.49,1.7-.16.39-.39.63-.7.75-.31.12-.69.08-1.14-.11l-8.7-3.56c-.44-.18-.73-.42-.87-.72-.14-.3-.13-.64.02-1.03.25-.61.76-.9,1.52-.88l1.22.16c.5.03.9-.05,1.22-.25.31-.2.56-.53.75-.99l2.92-7.13ZM421.49,50.89l-3.3-.81-1.53-21.5c-.04-.64-.1-1.1-.19-1.39-.09-.29-.28-.56-.57-.82l-.55-.46c-.34-.3-.54-.58-.59-.85-.05-.27-.02-.55.09-.83.16-.38.39-.64.7-.75.31-.11.69-.08,1.14.1l8.51,3.49c.47.19.78.44.93.74.15.31.15.65,0,1.04-.25.62-.84.89-1.74.82l-1.13-.26c-.67-.06-1.11.02-1.33.26-.22.24-.31.71-.27,1.42l1.11,17.68-2.84.11,14.31-12.73c.49-.44.75-.82.77-1.15.02-.33-.21-.68-.68-1.05l-1.28-.81c-.23-.21-.38-.46-.45-.73-.08-.27-.05-.57.07-.88.16-.38.39-.64.69-.75.3-.12.68-.08,1.13.1l6.12,2.51c.47.19.76.44.9.74.13.3.12.64-.03,1.01-.11.27-.27.48-.49.63-.22.15-.56.22-1.03.2l-.36-.02c-.31-.02-.57,0-.81.04s-.5.18-.81.4c-.3.21-.72.56-1.26,1.03l-15.23,13.47Z"/>
      <path class="cls-12" d="M447.94,49.88c1.88.97,3.31,2.26,4.3,3.87.98,1.61,1.48,3.38,1.5,5.32.02,1.94-.48,3.89-1.5,5.87-1,1.93-2.3,3.45-3.91,4.54-1.61,1.1-3.36,1.71-5.26,1.83-1.9.12-3.81-.31-5.72-1.3-1.88-.97-3.32-2.26-4.3-3.86-.98-1.6-1.48-3.37-1.49-5.33-.01-1.95.5-3.92,1.53-5.91.98-1.9,2.28-3.4,3.88-4.49,1.6-1.09,3.36-1.7,5.27-1.83,1.91-.13,3.82.3,5.71,1.28ZM440.31,68.41c1.09.31,2.16.23,3.2-.24,1.04-.47,1.99-1.27,2.85-2.39.86-1.12,1.53-2.51,2.02-4.15.54-1.77.75-3.36.63-4.77-.12-1.41-.52-2.57-1.19-3.5-.67-.92-1.59-1.54-2.75-1.85-1.08-.33-2.16-.26-3.22.2-1.06.46-2.02,1.25-2.87,2.36-.85,1.12-1.53,2.51-2.03,4.18-.53,1.78-.73,3.38-.61,4.78.12,1.41.53,2.57,1.23,3.5.7.93,1.61,1.55,2.75,1.87Z"/>
      <path class="cls-12" d="M454.37,71.69l5.63-8.68c.27-.42.4-.75.39-1,0-.25-.12-.49-.32-.7l-1.09-.8c-.18-.23-.28-.46-.31-.67-.03-.22.02-.44.16-.65.16-.24.37-.4.63-.48.26-.08.6-.07,1.01.02l3.35.77c.49.11.9.21,1.22.31.32.09.59.21.81.35.32.21.5.47.55.8.04.32-.05.66-.27,1.01l-7.25,11.17c-.79,1.22-1.12,2.33-.99,3.32.14,1,.65,1.78,1.55,2.36.63.41,1.41.66,2.35.77.94.1,2.06.04,3.37-.2l1.25-.25.18,1.69-1.5.34c-2.15.45-3.99.63-5.53.53s-2.83-.49-3.88-1.17c-1.46-.95-2.32-2.23-2.58-3.84-.26-1.61.17-3.28,1.29-5.01ZM463.89,82.1l.92-1.41.02-.28,6.52-10.04c.27-.42.4-.75.39-1,0-.25-.12-.49-.32-.7l-1.09-.8c-.18-.23-.28-.46-.31-.67-.03-.22.02-.44.16-.65.16-.24.37-.4.63-.48.26-.08.6-.07,1.01.02l3.35.77c.49.11.9.21,1.21.3s.59.21.82.36c.32.21.5.47.55.8.04.32-.05.66-.27,1.01l-8.94,13.77c-.3.46-.44.84-.44,1.14,0,.31.11.59.31.86l.57.63c.17.27.27.52.29.76.02.24-.05.48-.21.72-.18.28-.42.45-.71.5s-.6-.03-.93-.25l-2.86-1.86c-.67-.43-1.05-.95-1.17-1.54-.11-.6.06-1.25.52-1.96Z"/>
      <path class="cls-12" d="M488.14,77.61l-3.04,4.21-6.9,8.71c-.32.4-.49.78-.52,1.13-.03.36.1.69.4,1.01l1.25,1.26c.26.27.39.54.39.81,0,.28-.09.54-.29.79-.21.26-.46.41-.75.43-.29.02-.6-.09-.92-.35l-6.87-5.44c-.31-.25-.49-.51-.55-.8-.05-.29.03-.57.25-.85.18-.23.39-.36.62-.41.23-.05.51-.04.83.03l.8.36c.33.12.64.13.93.03.28-.1.6-.37.93-.79l7.58-9.58c.31-.39.47-.71.48-.96.02-.25-.08-.5-.28-.74l-1-.88c-.17-.26-.26-.49-.27-.72,0-.22.07-.43.22-.63.18-.23.4-.36.68-.41.27-.05.61,0,1.01.13l3.29,1.07c.43.14.8.27,1.1.38.3.11.53.23.68.36.25.2.38.45.39.74.01.29-.14.66-.46,1.11ZM482.45,83.73c1.35-1.71,2.73-2.96,4.13-3.76,1.4-.8,2.72-1.19,3.97-1.16,1.24.03,2.33.4,3.25,1.13.99.79,1.52,1.71,1.59,2.76.07,1.06-.34,2.14-1.22,3.26-.67.84-1.33,1.34-1.99,1.5-.66.16-1.26.03-1.78-.38-.55-.44-.85-.92-.89-1.46-.04-.53.15-1.07.57-1.61l.48-.6c.32-.4.45-.77.4-1.12-.05-.34-.25-.65-.59-.93-.51-.41-1.16-.59-1.93-.55-.77.04-1.62.34-2.53.89-.91.55-1.83,1.41-2.74,2.56l-.71-.54Z"/>
      <path class="cls-12" d="M517.99,95.32l.97,2.42-20.5,10.18c-.45.22-.83.43-1.14.63-.31.2-.58.41-.83.64l-.65.61c-.35.33-.69.51-1.02.53-.33.02-.61-.09-.85-.33l-2.56-2.71c-.25-.27-.36-.56-.32-.9.04-.33.23-.66.58-.99l.63-.59c.19-.18.36-.39.53-.64.17-.25.36-.57.58-.94l12.83-22.41c.28-.47.43-.86.47-1.17.03-.3-.01-.64-.14-1l-.42-.83c-.12-.33-.15-.63-.11-.9s.18-.52.41-.74c.3-.29.62-.42.95-.39.33.02.66.21.98.55l6.05,6.4c.34.35.5.69.5,1.02,0,.33-.15.63-.45.92-.45.43-1,.47-1.63.13l-1.24-.96c-.35-.21-.68-.23-.98-.05s-.66.63-1.08,1.37l-12.85,22.24-2.42-.32,23.72-11.74ZM531.15,102.27c.3-.29.62-.42.94-.4.32.02.65.2.99.56l4.64,4.9c.34.35.5.7.49,1.03,0,.33-.15.63-.44.91-.23.22-.48.33-.74.34-.26,0-.57-.07-.94-.23l-.84-.47c-.37-.18-.75-.24-1.16-.18-.41.06-.98.28-1.72.66l-21.88,11.2c-.46.23-.85.44-1.17.63-.31.19-.59.4-.84.63l-.61.58c-.36.34-.71.53-1.04.56-.33.03-.62-.07-.85-.32l-2.59-2.74c-.25-.27-.36-.57-.31-.9.04-.34.25-.68.61-1.02l.59-.56c.21-.2.39-.42.54-.65.15-.24.34-.56.57-.97l13.08-22.11c.3-.52.49-.93.57-1.25.08-.31.05-.62-.08-.92l-.39-.8c-.13-.32-.18-.61-.16-.85.02-.25.14-.48.38-.7.3-.29.62-.42.95-.39.33.02.66.21,1,.57l5.83,6.16c.34.35.5.69.5,1.02,0,.33-.15.63-.45.92-.24.23-.5.35-.77.35-.27,0-.58-.07-.93-.23l-1.26-.98c-.34-.2-.66-.21-.93-.04-.28.17-.63.62-1.06,1.36l-13.07,22.04-2.33-.19,24.42-12.5c.67-.34,1.09-.66,1.26-.96.17-.3.12-.69-.14-1.18l-.89-1.36c-.14-.29-.19-.56-.16-.83.04-.27.16-.5.38-.71Z"/>
      <path class="cls-12" d="M516.38,127.84c1.58-1.09,3.32-1.3,5.2-.65,1.88.65,3.59,2.1,5.13,4.34.47.69.89,1.42,1.24,2.19.35.77.6,1.46.73,2.09l-1.76.71c-.14-.61-.33-1.21-.57-1.81-.24-.6-.57-1.21-.98-1.81-.79-1.16-1.69-1.89-2.7-2.2-1.01-.31-1.99-.13-2.96.53-.94.64-1.45,1.4-1.55,2.27-.09.87.15,1.72.73,2.57.59.86,1.35,1.51,2.28,1.97.94.46,1.96.7,3.09.73l-1.06,1.39c-1.56.04-3.03-.31-4.41-1.04-1.37-.73-2.51-1.75-3.39-3.04-1.06-1.55-1.51-3.06-1.36-4.55s.93-2.71,2.33-3.67ZM521.99,139.75l.61-.42.12-.5,10.13-6.95c1.03-.71,1.64-1.52,1.83-2.43.19-.92-.04-1.84-.69-2.79-.59-.86-1.22-1.39-1.91-1.6-.69-.21-1.31-.13-1.86.25l-1.11.76c-.65.44-1.27.6-1.86.47s-1.12-.53-1.58-1.19c-.42-.62-.57-1.19-.45-1.73.12-.54.46-1,1.02-1.38.84-.58,1.84-.83,3-.76s2.35.5,3.59,1.29c1.24.79,2.42,2,3.52,3.61,1.32,1.92,1.85,3.7,1.59,5.33-.26,1.63-1.2,3-2.82,4.11l-9.9,6.79c-.3.21-.5.44-.59.71-.09.27-.04.54.15.81.12.18.25.3.4.37.14.07.29.11.44.14.12,0,.24.03.35.07.11.03.2.1.27.2.13.19.16.39.09.59-.07.21-.23.39-.46.55-.4.27-.87.41-1.41.43-.54.01-1.09-.12-1.65-.41-.55-.29-1.04-.73-1.45-1.33-.62-.91-.89-1.82-.79-2.73.09-.91.57-1.67,1.42-2.25Z"/>
      <path class="cls-12" d="M524.13,157.38l4.31-.43h2.05s16.19-1.92,16.19-1.92c.73-.08,1.24-.27,1.54-.56.29-.29.39-.7.3-1.23l-.22-.96c-.05-.35-.03-.64.06-.86.09-.23.27-.41.54-.55.31-.16.61-.19.88-.08.27.11.5.34.68.69l2.77,5.39c.18.35.24.67.17.96-.07.29-.26.51-.58.67-.21.11-.43.15-.65.13-.22-.02-.48-.15-.79-.36-.48-.49-.95-.8-1.39-.92-.44-.13-1.08-.15-1.93-.08l-22.46,2.39c-1.99.19-3.61.24-4.88.13-1.27-.11-2.29-.41-3.05-.89-.76-.48-1.37-1.17-1.83-2.07-.72-1.41-.87-2.72-.44-3.93.43-1.21,1.24-2.11,2.42-2.72.73-.37,1.39-.51,1.99-.4.6.1,1.05.44,1.34,1.01.26.52.31,1,.13,1.44-.18.44-.55.92-1.11,1.43l-.64.59c-.47.34-.75.7-.85,1.05-.1.36-.06.71.12,1.05.19.38.49.67.89.87.4.2.96.31,1.68.35.72.03,1.65-.02,2.78-.15ZM531.83,157.98l-5.46-.03,14.17-16.39c.46-.53.73-.98.8-1.35.07-.37.05-.87-.06-1.5,0-.36.04-.64.15-.85.1-.21.27-.37.49-.48.33-.17.63-.2.92-.08.28.11.51.34.68.68l3.78,7.37c.18.35.23.67.16.94-.08.27-.27.49-.58.65-.26.13-.5.16-.75.1-.24-.07-.5-.22-.77-.48l-.59-.62c-.39-.42-.79-.57-1.18-.48-.39.1-.85.45-1.38,1.07l-10.38,11.47Z"/>
    </g>
  </g>
</svg>