<?xml version="1.0" encoding="UTF-8"?>
<svg id="Layer_2" data-name="Layer 2" xmlns="http://www.w3.org/2000/svg" viewBox="0 0 356.57 447.14">
  <defs>
    <style>
      .cls-1, .cls-2, .cls-3, .cls-4 {
        stroke: #56400a;
      }

      .cls-1, .cls-2, .cls-3, .cls-4, .cls-5, .cls-6 {
        stroke-linecap: round;
      }

      .cls-1, .cls-2, .cls-3, .cls-4, .cls-6 {
        stroke-linejoin: round;
      }

      .cls-1, .cls-4 {
        fill: #ad8431;
      }

      .cls-1, .cls-5, .cls-6, .cls-7, .cls-8 {
        stroke-width: 2px;
      }

      .cls-9 {
        fill: #b28e4f;
      }

      .cls-10 {
        fill: #272727;
        font-family: WorkSans-Medium, 'Work Sans';
        font-size: 14px;
        font-weight: 500;
      }

      .cls-11 {
        letter-spacing: -.03em;
      }

      .cls-2 {
        fill: #f4d07d;
      }

      .cls-2, .cls-3, .cls-4 {
        stroke-width: 1.5px;
      }

      .cls-12 {
        letter-spacing: 0em;
      }

      .cls-13 {
        fill: #966f29;
      }

      .cls-14 {
        letter-spacing: -.04em;
      }

      .cls-3 {
        fill: #cca648;
      }

      .cls-15 {
        letter-spacing: -.02em;
      }

      .cls-16 {
        letter-spacing: -.04em;
      }

      .cls-17 {
        letter-spacing: 0em;
      }

      .cls-5 {
        stroke: #966f29;
      }

      .cls-5, .cls-6, .cls-7 {
        fill: none;
      }

      .cls-5, .cls-7, .cls-8 {
        stroke-miterlimit: 10;
      }

      .cls-18 {
        letter-spacing: 0em;
      }

      .cls-6 {
        stroke: #f2d8a0;
      }

      .cls-19 {
        letter-spacing: -.01em;
      }

      .cls-20 {
        letter-spacing: -.03em;
      }

      .cls-21 {
        letter-spacing: -.02em;
      }

      .cls-7, .cls-8 {
        stroke: #195059;
      }

      .cls-8 {
        fill: #b2e7ed;
      }

      .cls-22 {
        letter-spacing: 0em;
      }

      .cls-23 {
        letter-spacing: 0em;
      }
    </style>
  </defs>
  <g id="Layer_25" data-name="Layer 25">
    <path class="cls-7" d="M57.22,138.86s-68.67-15.33-36,68,82,67.33,94.67,32.67-86-26.67-78,22.67,72.67,102.67,105.33,73.33-74.67-67.33-84.67-12.67,80,114.67,112,78.67-105.33-16.67-63.33,20.67,156,40,152-58"/>
    <rect class="cls-1" x="249.22" y="343.97" width="17.78" height="26.67" rx="6.89" ry="6.89"/>
    <path class="cls-4" d="M186.11,185.76s47.56-106.68,30.44-173.25c0,0,45.77-25.89,95.13-.85,0,0-27.38,158.17,20.82,175.31l-146.39-1.21Z"/>
    <path class="cls-13" d="M207.1,129.91c-9.04,32.17-19.05,55.82-19.05,55.82l142.57,1.24c-17.92-6.71-25.11-34.5-27.16-66.3-31.42-4.66-70.41-3.82-96.37,9.24Z"/>
    <ellipse class="cls-3" cx="258.82" cy="250.06" rx="97" ry="104"/>
    <ellipse class="cls-2" cx="258.15" cy="250.06" rx="77.94" ry="79.14"/>
    <g>
      <g id="_Radial_Repeat_" data-name="&amp;lt;Radial Repeat&amp;gt;">
        <circle class="cls-9" cx="252.78" cy="308.36" r="4.36"/>
      </g>
      <g id="_Radial_Repeat_-2" data-name="&amp;lt;Radial Repeat&amp;gt;">
        <circle class="cls-9" cx="234.78" cy="304.22" r="4.36"/>
      </g>
      <g id="_Radial_Repeat_-3" data-name="&amp;lt;Radial Repeat&amp;gt;">
        <circle class="cls-9" cx="218.94" cy="294.72" r="4.36"/>
      </g>
      <g id="_Radial_Repeat_-4" data-name="&amp;lt;Radial Repeat&amp;gt;">
        <circle class="cls-9" cx="206.81" cy="280.78" r="4.36"/>
      </g>
      <g id="_Radial_Repeat_-5" data-name="&amp;lt;Radial Repeat&amp;gt;">
        <circle class="cls-9" cx="199.58" cy="263.78" r="4.36"/>
      </g>
      <g id="_Radial_Repeat_-6" data-name="&amp;lt;Radial Repeat&amp;gt;">
        <circle class="cls-9" cx="197.96" cy="245.38" r="4.36"/>
      </g>
      <g id="_Radial_Repeat_-7" data-name="&amp;lt;Radial Repeat&amp;gt;">
        <circle class="cls-9" cx="202.1" cy="227.38" r="4.36"/>
      </g>
      <g id="_Radial_Repeat_-8" data-name="&amp;lt;Radial Repeat&amp;gt;">
        <circle class="cls-9" cx="211.61" cy="211.54" r="4.36"/>
      </g>
      <g id="_Radial_Repeat_-9" data-name="&amp;lt;Radial Repeat&amp;gt;">
        <circle class="cls-9" cx="225.54" cy="199.41" r="4.36"/>
      </g>
      <g id="_Radial_Repeat_-10" data-name="&amp;lt;Radial Repeat&amp;gt;">
        <circle class="cls-9" cx="242.54" cy="192.18" r="4.36"/>
      </g>
      <g id="_Radial_Repeat_-11" data-name="&amp;lt;Radial Repeat&amp;gt;">
        <circle class="cls-9" cx="260.94" cy="190.56" r="4.36"/>
      </g>
      <g id="_Radial_Repeat_-12" data-name="&amp;lt;Radial Repeat&amp;gt;">
        <circle class="cls-9" cx="278.94" cy="194.7" r="4.36"/>
      </g>
      <g id="_Radial_Repeat_-13" data-name="&amp;lt;Radial Repeat&amp;gt;">
        <circle class="cls-9" cx="294.78" cy="204.21" r="4.36"/>
      </g>
      <g id="_Radial_Repeat_-14" data-name="&amp;lt;Radial Repeat&amp;gt;">
        <circle class="cls-9" cx="306.91" cy="218.14" r="4.36"/>
      </g>
      <g id="_Radial_Repeat_-15" data-name="&amp;lt;Radial Repeat&amp;gt;">
        <circle class="cls-9" cx="314.14" cy="235.14" r="4.36"/>
      </g>
      <g id="_Radial_Repeat_-16" data-name="&amp;lt;Radial Repeat&amp;gt;">
        <circle class="cls-9" cx="315.76" cy="253.54" r="4.36"/>
      </g>
      <g id="_Radial_Repeat_-17" data-name="&amp;lt;Radial Repeat&amp;gt;">
        <circle class="cls-9" cx="311.62" cy="271.54" r="4.36"/>
      </g>
      <g id="_Radial_Repeat_-18" data-name="&amp;lt;Radial Repeat&amp;gt;">
        <circle class="cls-9" cx="302.12" cy="287.38" r="4.36"/>
      </g>
      <g id="_Radial_Repeat_-19" data-name="&amp;lt;Radial Repeat&amp;gt;">
        <circle class="cls-9" cx="288.18" cy="299.51" r="4.36"/>
      </g>
      <g id="_Radial_Repeat_-20" data-name="&amp;lt;Radial Repeat&amp;gt;">
        <circle class="cls-9" cx="271.18" cy="306.74" r="4.36"/>
      </g>
    </g>
    <g>
      <g id="_Radial_Repeat_-21" data-name="&amp;lt;Radial Repeat&amp;gt;">
        <circle class="cls-9" cx="253.75" cy="291.66" r="3.06"/>
      </g>
      <g id="_Radial_Repeat_-22" data-name="&amp;lt;Radial Repeat&amp;gt;">
        <circle class="cls-9" cx="237.19" cy="286.92" r="3.06"/>
      </g>
      <g id="_Radial_Repeat_-23" data-name="&amp;lt;Radial Repeat&amp;gt;">
        <circle class="cls-9" cx="223.99" cy="275.86" r="3.06"/>
      </g>
      <g id="_Radial_Repeat_-24" data-name="&amp;lt;Radial Repeat&amp;gt;">
        <circle class="cls-9" cx="216.43" cy="260.38" r="3.06"/>
      </g>
      <g id="_Radial_Repeat_-25" data-name="&amp;lt;Radial Repeat&amp;gt;">
        <circle class="cls-9" cx="215.82" cy="243.17" r="3.06"/>
      </g>
      <g id="_Radial_Repeat_-26" data-name="&amp;lt;Radial Repeat&amp;gt;">
        <circle class="cls-9" cx="222.26" cy="227.2" r="3.06"/>
      </g>
      <g id="_Radial_Repeat_-27" data-name="&amp;lt;Radial Repeat&amp;gt;">
        <circle class="cls-9" cx="234.64" cy="215.22" r="3.06"/>
      </g>
      <g id="_Radial_Repeat_-28" data-name="&amp;lt;Radial Repeat&amp;gt;">
        <circle class="cls-9" cx="250.82" cy="209.32" r="3.06"/>
      </g>
      <g id="_Radial_Repeat_-29" data-name="&amp;lt;Radial Repeat&amp;gt;">
        <circle class="cls-9" cx="268" cy="210.51" r="3.06"/>
      </g>
      <g id="_Radial_Repeat_-30" data-name="&amp;lt;Radial Repeat&amp;gt;">
        <circle class="cls-9" cx="283.21" cy="218.59" r="3.06"/>
      </g>
      <g id="_Radial_Repeat_-31" data-name="&amp;lt;Radial Repeat&amp;gt;">
        <circle class="cls-9" cx="293.83" cy="232.15" r="3.06"/>
      </g>
      <g id="_Radial_Repeat_-32" data-name="&amp;lt;Radial Repeat&amp;gt;">
        <circle class="cls-9" cx="298" cy="248.86" r="3.06"/>
      </g>
      <g id="_Radial_Repeat_-33" data-name="&amp;lt;Radial Repeat&amp;gt;">
        <circle class="cls-9" cx="295.03" cy="265.82" r="3.06"/>
      </g>
      <g id="_Radial_Repeat_-34" data-name="&amp;lt;Radial Repeat&amp;gt;">
        <circle class="cls-9" cx="285.4" cy="280.11" r="3.06"/>
      </g>
      <g id="_Radial_Repeat_-35" data-name="&amp;lt;Radial Repeat&amp;gt;">
        <circle class="cls-9" cx="270.8" cy="289.25" r="3.06"/>
      </g>
    </g>
    <g>
      <g id="_Radial_Repeat_-36" data-name="&amp;lt;Radial Repeat&amp;gt;">
        <circle class="cls-9" cx="256.07" cy="275.64" r="3.14"/>
      </g>
      <g id="_Radial_Repeat_-37" data-name="&amp;lt;Radial Repeat&amp;gt;">
        <circle class="cls-9" cx="243.61" cy="271.38" r="3.14"/>
      </g>
      <g id="_Radial_Repeat_-38" data-name="&amp;lt;Radial Repeat&amp;gt;">
        <circle class="cls-9" cx="234.95" cy="261.46" r="3.14"/>
      </g>
      <g id="_Radial_Repeat_-39" data-name="&amp;lt;Radial Repeat&amp;gt;">
        <circle class="cls-9" cx="232.41" cy="248.53" r="3.14"/>
      </g>
      <g id="_Radial_Repeat_-40" data-name="&amp;lt;Radial Repeat&amp;gt;">
        <circle class="cls-9" cx="236.67" cy="236.07" r="3.14"/>
      </g>
      <g id="_Radial_Repeat_-41" data-name="&amp;lt;Radial Repeat&amp;gt;">
        <circle class="cls-9" cx="246.6" cy="227.41" r="3.14"/>
      </g>
      <g id="_Radial_Repeat_-42" data-name="&amp;lt;Radial Repeat&amp;gt;">
        <circle class="cls-9" cx="259.52" cy="224.87" r="3.14"/>
      </g>
      <g id="_Radial_Repeat_-43" data-name="&amp;lt;Radial Repeat&amp;gt;">
        <circle class="cls-9" cx="271.98" cy="229.13" r="3.14"/>
      </g>
      <g id="_Radial_Repeat_-44" data-name="&amp;lt;Radial Repeat&amp;gt;">
        <circle class="cls-9" cx="280.65" cy="239.05" r="3.14"/>
      </g>
      <g id="_Radial_Repeat_-45" data-name="&amp;lt;Radial Repeat&amp;gt;">
        <circle class="cls-9" cx="283.19" cy="251.98" r="3.14"/>
      </g>
      <g id="_Radial_Repeat_-46" data-name="&amp;lt;Radial Repeat&amp;gt;">
        <circle class="cls-9" cx="278.92" cy="264.44" r="3.14"/>
      </g>
      <g id="_Radial_Repeat_-47" data-name="&amp;lt;Radial Repeat&amp;gt;">
        <circle class="cls-9" cx="269" cy="273.1" r="3.14"/>
      </g>
    </g>
    <g>
      <g id="_Radial_Repeat_-48" data-name="&amp;lt;Radial Repeat&amp;gt;">
        <circle class="cls-9" cx="256.3" cy="264.86" r="1.84"/>
      </g>
      <g id="_Radial_Repeat_-49" data-name="&amp;lt;Radial Repeat&amp;gt;">
        <circle class="cls-9" cx="243.93" cy="256.55" r="1.84"/>
      </g>
      <g id="_Radial_Repeat_-50" data-name="&amp;lt;Radial Repeat&amp;gt;">
        <circle class="cls-9" cx="244.94" cy="241.68" r="1.84"/>
      </g>
      <g id="_Radial_Repeat_-51" data-name="&amp;lt;Radial Repeat&amp;gt;">
        <circle class="cls-9" cx="258.32" cy="235.12" r="1.84"/>
      </g>
      <g id="_Radial_Repeat_-52" data-name="&amp;lt;Radial Repeat&amp;gt;">
        <circle class="cls-9" cx="270.69" cy="243.43" r="1.84"/>
      </g>
      <g id="_Radial_Repeat_-53" data-name="&amp;lt;Radial Repeat&amp;gt;">
        <circle class="cls-9" cx="269.68" cy="258.3" r="1.84"/>
      </g>
    </g>
    <circle class="cls-9" cx="258.33" cy="249.59" r="4.89"/>
    <path class="cls-6" d="M190.94,187.08s16.75-23.48,47.78-30.22"/>
    <path class="cls-6" d="M303.28,166.92s15.56,4.44,26.67,23.56"/>
    <path class="cls-5" d="M277.22,345.86s41.41-7.81,57.19-42.12"/>
    <path class="cls-8" d="M194.96,100.04c0-35.45-43.42-64.18-96.98-64.18S1,64.6,1,100.04s43.42,64.18,96.98,64.18c18.58,0,35.94-3.46,50.69-9.46l16.67,11.78c.94.66,2.16-.2,1.95-1.38l-3.35-18.09c19.07-11.72,31.02-28.46,31.02-47.04Z"/>
    <text class="cls-10" transform="translate(22.11 89.6) scale(.99 1)"><tspan class="cls-21" x="0" y="0">T</tspan><tspan x="8.44" y="0">his lin</tspan><tspan class="cls-14" x="49.77" y="0">e</tspan><tspan class="cls-16" x="57.33" y="0">’</tspan><tspan x="60.44" y="0">s open </tspan><tspan class="cls-15" x="110.88" y="0">2</tspan><tspan x="118.75" y="0">4/</tspan><tspan class="cls-11" x="133.7" y="0">7</tspan><tspan x="141.36" y="0" xml:space="preserve"> - </tspan><tspan x="12.27" y="16.8">em</tspan><tspan class="cls-18" x="33.65" y="16.8">o</tspan><tspan x="41.95" y="16.8">tiona</tspan><tspan class="cls-20" x="76.77" y="16.8">l</tspan><tspan x="80.73" y="16.8"> </tspan><tspan class="cls-12" x="85.28" y="16.8">b</tspan><tspan class="cls-23" x="94.04" y="16.8">a</tspan><tspan class="cls-17" x="102.05" y="16.8">g</tspan><tspan x="109.62" y="16.8">g</tspan><tspan class="cls-22" x="117.18" y="16.8">a</tspan><tspan x="125.19" y="16.8">ge </tspan><tspan class="cls-19" x="43.66" y="33.6">w</tspan><tspan x="55.42" y="33.6">elcome!</tspan></text>
  </g>
</svg>