<?xml version="1.0" encoding="UTF-8"?>
<svg id="Layer_2" data-name="Layer 2" xmlns="http://www.w3.org/2000/svg" viewBox="0 0 409.32 299.67">
  <defs>
    <style>
      .cls-1 {
        fill: #f9eac5;
      }

      .cls-2 {
        fill: #d3be89;
      }

      .cls-3 {
        fill: #96ccd9;
      }

      .cls-3, .cls-4, .cls-5, .cls-6, .cls-7, .cls-8, .cls-9, .cls-10 {
        stroke-width: 2px;
      }

      .cls-3, .cls-5, .cls-6, .cls-7, .cls-10 {
        stroke-miterlimit: 10;
      }

      .cls-3, .cls-8 {
        stroke: #195059;
      }

      .cls-4, .cls-8 {
        fill: none;
      }

      .cls-4, .cls-8, .cls-9 {
        stroke-linecap: round;
        stroke-linejoin: round;
      }

      .cls-4, .cls-9 {
        stroke: #56400a;
      }

      .cls-11 {
        fill: #56400a;
      }

      .cls-5 {
        fill: #f2f0d5;
      }

      .cls-5, .cls-7 {
        stroke: #5b5412;
      }

      .cls-6 {
        fill: #227893;
      }

      .cls-6, .cls-10 {
        stroke: #0b6682;
      }

      .cls-12 {
        fill: #aa8b3c;
      }

      .cls-7 {
        fill: #bcb788;
      }

      .cls-13 {
        fill: #68562d;
      }

      .cls-9 {
        fill: #bfa34e;
      }

      .cls-10 {
        fill: #538ea5;
      }
    </style>
  </defs>
  <g id="Layer_4" data-name="Layer 4">
    <path class="cls-10" d="M31.3,199.4s-2.16,15.56,11.51,8.56c13.67-7,12.26-21.7,12.26-21.7,0,0-3.63-9.74-9-2.14-5.36,7.6-14.77,15.28-14.77,15.28Z"/>
    <path class="cls-10" d="M21.65,191s-5.09,14.86,9.66,10.59c14.75-4.26,16.18-18.96,16.18-18.96,0,0-1.71-10.26-8.42-3.82-6.72,6.44-17.42,12.18-17.42,12.18Z"/>
    <path class="cls-10" d="M13.19,182.56s-6.69,14.21,8.44,11.59c15.13-2.63,18.15-17.08,18.15-17.08,0,0-.57-10.38-7.95-4.72-7.38,5.66-18.64,10.21-18.64,10.21Z"/>
    <path class="cls-10" d="M8.95,171.67s-9.94,11.27,4.6,12.87c14.55,1.6,21.2-10.86,21.2-10.86,0,0,2.27-9.68-6-6.44-8.27,3.24-19.8,4.43-19.8,4.43Z"/>
    <path class="cls-10" d="M5.86,159.03s-12.41,9.81,2.41,14.24c14.82,4.43,24.03-7.24,24.03-7.24,0,0,4.14-9.61-5.05-7.82-9.19,1.79-21.39.83-21.39.83Z"/>
    <path class="cls-10" d="M8.3,147.93s-12.67,6.36-.46,12.93c12.2,6.57,22.4-2,22.4-2,0,0,5.38-7.69-3.02-7.78s-18.92-3.15-18.92-3.15Z"/>
    <path class="cls-10" d="M7.97,137.28s-13.67,6.52-.78,13.8c12.89,7.29,23.98-1.65,23.98-1.65,0,0,5.91-8.1-3.05-8.38-8.97-.28-20.15-3.77-20.15-3.77Z"/>
    <path class="cls-10" d="M11.95,125.65s-14.71,3.61-3.56,13.36c11.15,9.75,23.81,3.25,23.81,3.25,0,0,7.43-6.73-1.29-8.82-8.72-2.1-18.96-7.79-18.96-7.79Z"/>
    <path class="cls-10" d="M17.19,114.99s-15.08,1.4-5.49,12.69c9.59,11.29,23.07,6.72,23.07,6.72,0,0,8.34-5.56.03-8.92s-17.61-10.49-17.61-10.49Z"/>
    <path class="cls-10" d="M22.63,104.9s-15.77.34-6.64,12.77c9.12,12.43,23.47,8.69,23.47,8.69,0,0,9.08-5.16.69-9.26s-17.51-12.2-17.51-12.2Z"/>
    <path class="cls-10" d="M29.04,95.18s-15.7-1.52-8.1,11.9c7.6,13.42,22.28,11.39,22.28,11.39,0,0,9.62-4.05,1.77-9.12-7.85-5.06-15.95-14.18-15.95-14.18Z"/>
    <path class="cls-10" d="M71.96,51.38s-52.29,6.71-46.21,42.92c0,0,6.96,15.7,18.86,17.72,0,0,4.3,1.52,4.3-4.81s-8.86-10.13-11.39-18.48c-2.53-8.36,18.91-29.24,36.12-28.74l-1.69-8.61Z"/>
    <path class="cls-6" d="M54.87,52.98l3.8,13.04s10-5.44,14.43-4.18c4.43,1.27.13-13.17.13-13.17,0,0-8.86-.51-18.36,4.3Z"/>
  </g>
  <g id="body">
    <path class="cls-9" d="M189.82,52.14c-9.26.63-39.43-13.11-48.88,39.55,0,0-90.48,85.07-97.23,112.08,0,0-13.34,25.99,2.36,46.76,15.7,20.76,141.79,49.12,155.97,48.11s14.18.51,34.43-8.1c20.26-8.61,127.61-80.01,127.61-80.01,0,0,12.66-10.13,5.06-37.47-7.6-27.35-48.61-72.92-48.61-72.92l-16.07-1.11s2.39-9.52-8.75-19.15c-11.14-9.62-18.91-10.47-22.28-8.61-3.38,1.86-4.39,7.26-8.44,6.92s-42.2-9.12-44.56-10.8c-2.36-1.69,1.35-6.75-2.03-11.82s-22.08-3.87-28.6-3.43Z"/>
    <g id="Layer_7" data-name="Layer 7">
      <path class="cls-12" d="M367.86,172.77c-7.53-27.26-48.19-72.7-48.19-72.7l-15.93-1.11s2.37-9.49-8.67-19.09c0,0,49.6,121.61-76.03,216.45,3.89-.97,8.79-2.79,17.3-6.43,20.08-8.58,126.51-79.77,126.51-79.77.24-.23.47-.45.71-.68,2.54-2.65,10.74-13.41,4.31-36.68Z"/>
    </g>
    <path class="cls-4" d="M190.16,56.11s-7.09,17.89-6.41,23.97c.68,6.08,56.38,18.91,67.52,18.23,11.14-.68,12.79-21.56,22.24-25.95,9.45-4.39,20.3,7.72,20.3,7.72l-8.14,29.41"/>
    <line class="cls-4" x1="212.78" y1="69.61" x2="183.75" y2="80.08"/>
    <path class="cls-11" d="M283.3,124.2c-5.15,19.61-12.38,38.84-20.54,57.37-10.58,23.88-23.44,46.77-38.56,68.08-.24.34-.71.43-1.05.19-.35-.24-.43-.73-.18-1.07,16.66-23.6,30.46-49.24,41.59-75.89,6.53-15.96,12.52-32.48,16.8-49.15.27-1.22,2.26-.91,1.95.47h0Z"/>
    <path class="cls-4" d="M218.18,258.66s2.36,19.58-1.01,25.99"/>
    <path class="cls-1" d="M207.4,255.42c-26.89.54-53.62-4.33-79.6-10.87-12.59-3.41-26.16-7.61-38.37-12.21-2.36-.81-7.1-2.63-9.4-3.61-5.33-2.13-13.4-5.42-18.54-7.87,0,0-9.18-4.16-9.18-4.16-.5-.23-.73-.82-.5-1.32.23-.52.86-.74,1.37-.48,3.16,1.46,10.64,4.9,13.66,6.3,31.98,14.21,65.95,24.91,100.57,30.23,6.31.99,13.54,1.85,19.92,2.37,6.66.53,13.38.89,20.03.7.26,0,.48.2.48.46,0,.26-.19.47-.45.48h0Z"/>
  </g>
  <g id="Layer_9" data-name="Layer 9">
    <path class="cls-12" d="M256.5,94.87c2.84-3.28,7.27-9.17,9.45-16.04-4.05-.34-42.19-8.98-45.24-10.21-3.05-1.23-35.95,12.07-35.95,12.07,5.23,3.04,15.45,10.17,64.65,16.96,2.35.32,5.54-1,7.09-2.79Z"/>
  </g>
  <g id="horn">
    <path class="cls-3" d="M69.33,84.07c-.2-.53-.62-2.53-.67-3.1-.52-5.74-2.65-38.46,14.77-54.83C101.58,9.1,111.29,3.86,166.99,1.33c55.7-2.53,164.07,8.61,210.66,63.3,34.94,41.02,32.24,63.33,28.7,71.92-1.32,3.21-2.59,6.43-3.56,9.77-1.67,5.71-5.82,14.79-16.02,22.12-16.2,11.65-73.01-11.48-84.65-24.64-10.13-11.45-1.24-38.13,2.28-44.71.65-1.21.87-2.59.63-3.94-1.73-9.66-16.76-44.87-144.11-39.62,0,0-5.57-.51-13.17,16.2-3.43,7.54-4.98,14.28-7.6,18.36-3.19,4.98-9.91,7.62-15.64,9.08-11.41,2.92-31.91,6.06-46.85-3.44-.26-.17-.51-.35-.75-.55-1.25-1.06-4.56-3.18-7.58-11.09Z"/>
    <path class="cls-8" d="M310.56,79.99c-64.48-54.69-163.73-34.1-163.73-34.1"/>
    <path class="cls-8" d="M303.47,101.6s17.55,51.99,101.28,38.49"/>
    <path class="cls-8" d="M68.9,67.37s29.81,24.35,80.45.04"/>
  </g>
  <g id="Layer_5" data-name="Layer 5">
    <path class="cls-7" d="M237.54,172.44s24.59-48.95-39.34-57.99c-39.6-5.6-64.84,8.88-78.32,20.71-10.43,9.15-17.05,21.94-17.45,35.68-.5,17.02,19.01,39.63,51.93,42.36,61.2,5.08,83.17-40.76,83.17-40.76Z"/>
    <path class="cls-5" d="M233.81,166.2s23.73-48.08-37.97-56.96c-38.22-5.5-62.58,8.72-75.59,20.34-10.07,8.99-16.45,21.55-16.84,35.05-.48,16.72,18.34,38.92,50.12,41.6,59.07,4.99,80.27-40.03,80.27-40.03Z"/>
    <path class="cls-3" d="M196.56,160.63c1.85-3.22,2.19-8.25,1.27-11.84-1.37-5.38-6.46-11.93-22.73-13.23-18.02-1.44-27.2,6.8-31.51,13.04-3.28,4.74-4.57,10.7-2.91,16.23,1.75,5.85,6.95,12.37,21.22,13.25,20.41,1.27,31.01-11.05,34.67-17.44Z"/>
    <g>
      <path class="cls-2" d="M162.39,129.6c5.42-1.27,6.05-8.71.79-10.55-.43-.15-1.29-.44-1.81-.54-3.75-.76-4.6-.72-6.31-.33-3.14.71-5.16,4.65-3.51,7.41.72,1.21,2.01,2.41,4.24,3.36,2.5,1.07,4.73,1.08,6.59.65Z"/>
      <path class="cls-13" d="M162.27,129.09c3.28-.73,4.93-5.09,2.75-7.64-1.02-1.3-2.69-1.69-4.26-2.05-1.71-.3-3.38-.76-5.09-.39-3.22.39-5.29,4.59-2.95,7.13,2.25,2.53,6.21,3.91,9.54,2.95h0ZM162.51,130.1c-4.41.86-10.91-1.03-12.18-5.88-.74-4.7,3.62-7.9,8.01-7.23,2.9.42,6.28.79,8.13,3.36,2.66,3.59.3,9-3.96,9.75h0Z"/>
    </g>
    <g>
      <path class="cls-2" d="M187.54,127.38c5.18-2.04,4.73-9.49-.74-10.55-.45-.09-1.34-.25-1.87-.28-3.82-.21-4.66-.05-6.29.58-3,1.16-4.43,5.34-2.41,7.84.89,1.09,2.34,2.1,4.68,2.72,2.63.69,4.84.39,6.61-.31Z"/>
      <path class="cls-13" d="M187.35,126.9c3.15-1.19,4.15-5.74,1.63-7.96-1.2-1.13-2.91-1.28-4.51-1.41-1.74-.05-3.46-.27-5.09.35-3.13.85-4.58,5.3-1.9,7.48,2.59,2.18,6.7,2.97,9.87,1.55h0ZM187.73,127.87c-4.24,1.49-10.94.55-12.89-4.06-.36-1.02-.37-2.12-.14-3.14.99-4.61,5.83-5.56,9.87-5.13,2,.18,4.25.51,5.68,2.12,3.15,3.17,1.6,8.86-2.52,10.22h0Z"/>
    </g>
    <g>
      <path class="cls-2" d="M207.07,134.92c5.55.46,8.43-6.43,3.99-9.8-.37-.28-1.09-.81-1.55-1.07-3.33-1.88-4.16-2.1-5.9-2.25-3.2-.29-6.34,2.84-5.62,5.98.32,1.37,1.18,2.91,3,4.5,2.05,1.78,4.17,2.48,6.07,2.64Z"/>
      <path class="cls-13" d="M207.11,134.4c3.35.32,6.26-3.33,4.97-6.43-.58-1.55-2.04-2.43-3.42-3.26-1.54-.81-2.98-1.76-4.72-1.93-3.18-.61-6.45,2.74-5,5.88,1.36,3.1,4.71,5.62,8.17,5.74h0ZM207.02,135.44c-4.46-.53-10.06-4.33-9.78-9.33.75-4.71,5.85-6.41,9.85-4.42,2.64,1.29,5.74,2.68,6.7,5.69,1.43,4.23-2.47,8.66-6.77,8.06h0Z"/>
    </g>
    <g>
      <path class="cls-2" d="M221.35,152.02c5.57-.03,7.84-7.14,3.13-10.11-.39-.25-1.16-.72-1.64-.93-3.48-1.58-4.33-1.73-6.07-1.73-3.22,0-6.07,3.38-5.08,6.44.43,1.34,1.42,2.8,3.38,4.22,2.2,1.6,4.37,2.11,6.28,2.1Z"/>
      <path class="cls-13" d="M221.35,151.5c3.36.03,5.94-3.86,4.39-6.83-.71-1.49-2.25-2.25-3.69-2.95-1.6-.67-3.13-1.5-4.87-1.51-3.22-.34-6.18,3.29-4.47,6.29,1.63,2.97,5.18,5.19,8.64,5.01h0ZM221.35,152.55c-4.49-.14-10.4-3.44-10.56-8.44.32-4.75,5.29-6.9,9.42-5.26,2.74,1.05,5.95,2.18,7.17,5.09,1.79,4.09-1.71,8.84-6.04,8.62h0Z"/>
    </g>
    <g>
      <path class="cls-2" d="M214.04,173.23c5.52.7,8.7-6.06,4.42-9.61-.35-.29-1.06-.86-1.5-1.14-3.25-2.02-4.06-2.28-5.79-2.51-3.19-.42-6.45,2.56-5.87,5.72.25,1.39,1.05,2.96,2.8,4.63,1.97,1.87,4.06,2.66,5.95,2.9Z"/>
      <path class="cls-13" d="M214.1,172.72c3.33.46,6.4-3.05,5.24-6.2-.51-1.57-1.94-2.52-3.27-3.4-1.5-.88-2.9-1.89-4.63-2.14-3.15-.75-6.56,2.46-5.25,5.65,1.23,3.15,4.46,5.82,7.91,6.09h0ZM213.97,173.75c-4.43-.73-9.87-4.77-9.37-9.75.96-4.68,6.12-6.14,10.03-3.99,2.58,1.4,5.61,2.93,6.45,5.98,1.24,4.29-2.85,8.54-7.11,7.76h0Z"/>
    </g>
    <g>
      <path class="cls-2" d="M136.61,191.17c5.36-1.51,5.64-8.98.31-10.57-.44-.13-1.31-.38-1.83-.46-3.78-.59-4.63-.51-6.31-.04-3.1.85-4.94,4.88-3.17,7.57.78,1.18,2.12,2.32,4.39,3.17,2.54.95,4.78.86,6.61.35Z"/>
      <path class="cls-13" d="M136.47,190.67c3.25-.87,4.7-5.31,2.4-7.76-1.08-1.25-2.77-1.56-4.34-1.85-1.73-.22-3.41-.61-5.1-.16-3.19.54-5.08,4.83-2.62,7.25,2.36,2.42,6.38,3.62,9.67,2.51h0ZM136.75,191.67c-4.4,1.05-10.9-.51-12.43-5.31-.96-4.66,3.25-8.06,7.67-7.59,2.92.28,6.31.5,8.27,2.98,2.82,3.46.71,8.97-3.51,9.92h0Z"/>
    </g>
    <g>
      <path class="cls-2" d="M159.89,199.84c5.34-1.58,5.53-9.04.18-10.58-.44-.13-1.31-.36-1.83-.44-3.79-.54-4.64-.45-6.31.03-3.09.89-4.88,4.94-3.08,7.6.79,1.17,2.15,2.29,4.43,3.11,2.56.92,4.79.81,6.61.27Z"/>
      <path class="cls-13" d="M159.75,199.33c3.24-.91,4.63-5.36,2.31-7.79-1.1-1.23-2.79-1.53-4.37-1.8-1.73-.2-3.42-.57-5.1-.09-3.19.58-5.02,4.89-2.54,7.29,2.39,2.4,6.42,3.54,9.7,2.4h0ZM160.04,200.34c-4.39,1.11-10.91-.38-12.49-5.16-1.01-4.65,3.16-8.1,7.58-7.68,2.92.25,6.32.43,8.31,2.88,2.86,3.43.82,8.96-3.39,9.96h0Z"/>
    </g>
    <g>
      <path class="cls-2" d="M124.8,173.07c5.35-1.55,5.58-9.01.24-10.58-.44-.13-1.31-.37-1.83-.45-3.78-.56-4.63-.47-6.31,0-3.09.88-4.91,4.92-3.12,7.59.78,1.17,2.14,2.3,4.41,3.13,2.55.93,4.78.83,6.61.3Z"/>
      <path class="cls-13" d="M124.66,172.57c3.24-.9,4.66-5.34,2.35-7.78-1.09-1.24-2.78-1.54-4.36-1.82-1.73-.21-3.42-.58-5.1-.12-3.19.56-5.04,4.86-2.57,7.27,2.38,2.41,6.4,3.57,9.68,2.45h0ZM124.95,173.57c-4.4,1.08-10.91-.43-12.47-5.23-.99-4.65,3.2-8.08,7.62-7.64,2.92.26,6.32.46,8.29,2.93,2.84,3.45.78,8.97-3.44,9.94h0Z"/>
    </g>
    <g>
      <path class="cls-2" d="M129.04,154.18c5.45-1.15,6.24-8.57,1.02-10.53-.43-.16-1.28-.47-1.79-.58-3.73-.84-4.58-.82-6.3-.47-3.15.64-5.26,4.54-3.67,7.33.69,1.23,1.96,2.46,4.17,3.45,2.47,1.12,4.71,1.19,6.57.79Z"/>
      <path class="cls-13" d="M128.93,153.67c3.3-.65,5.04-4.98,2.92-7.58-.99-1.32-2.65-1.75-4.21-2.14-1.71-.34-3.36-.84-5.08-.5-3.22.32-5.39,4.47-3.11,7.06,2.19,2.58,6.12,4.04,9.47,3.16h0ZM129.15,154.69c-4.42.77-10.88-1.27-12.04-6.14-.64-4.72,3.79-7.82,8.17-7.05,2.89.48,6.27.93,8.05,3.54,2.58,3.65.11,9-4.18,9.66h0Z"/>
    </g>
    <g>
      <path class="cls-2" d="M140.38,139.86c5.57-.13,7.71-7.28,2.94-10.16-.39-.24-1.17-.7-1.66-.9-3.51-1.52-4.36-1.65-6.1-1.62-3.22.05-6,3.49-4.96,6.53.46,1.33,1.47,2.78,3.46,4.16,2.23,1.56,4.41,2.03,6.31,1.99Z"/>
      <path class="cls-13" d="M140.37,139.34c3.36-.03,5.87-3.96,4.27-6.91-.73-1.48-2.29-2.21-3.74-2.88-1.62-.65-3.15-1.44-4.9-1.43-3.23-.28-6.12,3.4-4.35,6.37,1.68,2.94,5.27,5.1,8.73,4.85h0ZM140.39,140.38c-4.49-.06-10.46-3.25-10.71-8.25.24-4.75,5.17-6.99,9.33-5.43,2.76,1,5.99,2.07,7.26,4.96,1.86,4.06-1.55,8.87-5.88,8.72h0Z"/>
    </g>
    <path class="cls-9" d="M199.04,197.7c-11.05-12.33-8.18-20.8-7.34-22.49.47-.94,1.41-1.47,2.2-.77l16.76,14.99c.5.45.59,1.2.21,1.75l-9.74,6.39c-.49.7-1.51.77-2.08.14Z"/>
  </g>
</svg>