<svg width="192" height="59" viewBox="0 0 192 59" fill="none" xmlns="http://www.w3.org/2000/svg">
<path d="M31.9447 24.896C31.9447 26.384 31.6247 27.752 30.9847 29C30.3447 30.232 29.4487 31.272 28.2967 32.12C27.1447 32.968 25.7927 33.544 24.2407 33.848C23.5047 33.976 22.8487 34.136 22.2727 34.328C21.7127 34.504 21.1287 34.656 20.5207 34.784C19.9127 34.912 19.1767 34.976 18.3127 34.976C17.4807 34.976 16.6407 34.92 15.7927 34.808C14.9607 34.68 14.1687 34.496 13.4167 34.256C12.6647 34.016 12.0087 33.744 11.4487 33.44L11.5207 30.464C12.1287 30.832 12.7607 31.112 13.4167 31.304C14.0727 31.496 14.7287 31.624 15.3847 31.688C16.0407 31.736 16.6567 31.76 17.2327 31.76C19.6007 31.76 21.4247 31.16 22.7047 29.96C24.0007 28.744 24.6487 27.04 24.6487 24.848C24.6487 23.28 24.2807 21.88 23.5447 20.648C22.8247 19.416 21.7847 18.448 20.4247 17.744C19.0807 17.04 17.4807 16.688 15.6247 16.688H13.5607V41.264C13.5607 41.84 13.6727 42.272 13.8967 42.56C14.1367 42.848 14.4727 43.08 14.9047 43.256L16.0327 43.592C16.4327 43.784 16.7207 44.024 16.8967 44.312C17.0727 44.584 17.1607 44.928 17.1607 45.344C17.1607 46.448 16.5287 47 15.2647 47H4.63275C4.00875 47 3.53675 46.856 3.21675 46.568C2.89675 46.28 2.73675 45.872 2.73675 45.344C2.73675 44.512 3.16075 43.912 4.00875 43.544L5.01675 43.208C5.48075 43.032 5.83275 42.8 6.07275 42.512C6.31275 42.224 6.43275 41.808 6.43275 41.264V19.136C6.43275 18.576 6.31275 18.16 6.07275 17.888C5.83275 17.6 5.48075 17.368 5.01675 17.192L4.00875 16.856C3.16075 16.488 2.73675 15.888 2.73675 15.056C2.73675 14.528 2.89675 14.12 3.21675 13.832C3.53675 13.544 4.00875 13.4 4.63275 13.4H15.9847C19.4087 13.4 22.3047 13.904 24.6727 14.912C27.0567 15.92 28.8647 17.296 30.0967 19.04C31.3287 20.768 31.9447 22.72 31.9447 24.896ZM18.8647 33.392L25.7287 32.504L31.2487 41.816C31.5367 42.296 31.8327 42.656 32.1367 42.896C32.4407 43.12 32.8567 43.328 33.3847 43.52C33.9447 43.728 34.3367 43.968 34.5607 44.24C34.8007 44.512 34.9207 44.88 34.9207 45.344C34.9207 45.856 34.7687 46.264 34.4647 46.568C34.1607 46.856 33.6807 47 33.0247 47H23.8327C22.6007 47 21.9847 46.448 21.9847 45.344C21.9847 45.04 22.0567 44.784 22.2007 44.576C22.3607 44.352 22.5767 44.16 22.8487 44L23.6167 43.784C23.8567 43.688 23.9927 43.536 24.0247 43.328C24.0727 43.104 24.0007 42.8 23.8087 42.416L18.8647 33.392ZM57.6401 32.912C57.6401 33.968 57.3361 34.784 56.7281 35.36C56.1361 35.92 55.2881 36.2 54.1841 36.2H40.6481V33.848H49.6721C50.6481 33.848 51.1361 33.384 51.1361 32.456C51.1361 30.984 50.7681 29.84 50.0321 29.024C49.2961 28.192 48.3601 27.776 47.2241 27.776C46.2961 27.776 45.4721 28.032 44.7521 28.544C44.0321 29.056 43.4561 29.8 43.0241 30.776C42.6081 31.752 42.4001 32.944 42.4001 34.352C42.4001 37.152 43.0641 39.28 44.3921 40.736C45.7361 42.176 47.4881 42.896 49.6481 42.896C50.9761 42.896 52.1441 42.608 53.1521 42.032C54.1761 41.44 54.9681 40.728 55.5281 39.896C55.8001 39.608 56.0321 39.408 56.2241 39.296C56.4161 39.168 56.6081 39.112 56.8001 39.128C57.0401 39.128 57.2401 39.224 57.4001 39.416C57.5761 39.592 57.6561 39.88 57.6401 40.28C57.5921 41.528 57.1601 42.704 56.3441 43.808C55.5281 44.912 54.4001 45.816 52.9601 46.52C51.5201 47.208 49.8241 47.552 47.8721 47.552C45.5841 47.552 43.5921 47.08 41.8961 46.136C40.2001 45.176 38.8881 43.848 37.9601 42.152C37.0481 40.456 36.5921 38.496 36.5921 36.272C36.5921 34.032 37.0401 32.024 37.9361 30.248C38.8481 28.472 40.1681 27.072 41.8961 26.048C43.6241 25.024 45.6961 24.512 48.1121 24.512C50.0321 24.512 51.7041 24.88 53.1281 25.616C54.5521 26.352 55.6561 27.36 56.4401 28.64C57.2401 29.904 57.6401 31.328 57.6401 32.912ZM60.8617 45.344C60.8617 44.512 61.2857 43.912 62.1337 43.544L63.1897 43.208C63.6377 43.032 63.9737 42.8 64.1977 42.512C64.4377 42.224 64.5577 41.808 64.5577 41.264V19.136C64.5577 18.576 64.4377 18.152 64.1977 17.864C63.9737 17.576 63.6377 17.352 63.1897 17.192L62.1337 16.856C61.2857 16.488 60.8617 15.888 60.8617 15.056C60.8617 14.528 61.0217 14.12 61.3417 13.832C61.6617 13.544 62.1337 13.4 62.7577 13.4H74.8537C77.7497 13.4 80.3737 13.84 82.7257 14.72C85.0937 15.6 87.1257 16.84 88.8217 18.44C90.5177 20.024 91.8217 21.904 92.7337 24.08C93.6457 26.24 94.1017 28.608 94.1017 31.184C94.1017 34.192 93.4217 36.888 92.0617 39.272C90.7177 41.656 88.7657 43.544 86.2057 44.936C83.6457 46.312 80.5497 47 76.9177 47H62.7577C62.1337 47 61.6617 46.856 61.3417 46.568C61.0217 46.28 60.8617 45.872 60.8617 45.344ZM76.3657 43.592C78.4777 43.592 80.3097 43.104 81.8617 42.128C83.4297 41.136 84.6377 39.704 85.4857 37.832C86.3337 35.944 86.7577 33.664 86.7577 30.992C86.7577 28.912 86.4617 27.008 85.8697 25.28C85.2777 23.536 84.4297 22.032 83.3257 20.768C82.2377 19.504 80.9257 18.528 79.3897 17.84C77.8537 17.152 76.1417 16.808 74.2537 16.808H71.6857V40.592C71.6857 41.632 71.9337 42.392 72.4297 42.872C72.9257 43.352 73.6617 43.592 74.6377 43.592H76.3657ZM106.157 26.24V41.936C106.157 42.576 106.229 43.032 106.373 43.304C106.533 43.56 106.757 43.752 107.045 43.88L107.717 44.096C108.037 44.272 108.277 44.48 108.437 44.72C108.613 44.944 108.701 45.232 108.701 45.584C108.701 46.032 108.565 46.384 108.293 46.64C108.021 46.88 107.637 47 107.141 47H98.7649C98.2689 47 97.8769 46.88 97.5889 46.64C97.3169 46.384 97.1809 46.032 97.1809 45.584C97.1809 45.232 97.2689 44.944 97.4449 44.72C97.6209 44.48 97.8689 44.272 98.1889 44.096L98.8609 43.88C99.1649 43.752 99.3889 43.56 99.5329 43.304C99.6769 43.032 99.7489 42.576 99.7489 41.936V31.328C99.7489 30.768 99.6689 30.376 99.5089 30.152C99.3649 29.928 99.1409 29.768 98.8369 29.672L97.8049 29.552C97.5009 29.408 97.2609 29.24 97.0849 29.048C96.9249 28.84 96.8449 28.584 96.8449 28.28C96.8449 27.928 96.9489 27.624 97.1569 27.368C97.3809 27.112 97.7489 26.896 98.2609 26.72L102.077 25.304C102.685 25.064 103.181 24.896 103.565 24.8C103.965 24.688 104.341 24.632 104.693 24.632C105.157 24.632 105.517 24.784 105.773 25.088C106.029 25.376 106.157 25.76 106.157 26.24ZM102.509 21.2C101.277 21.2 100.285 20.872 99.5329 20.216C98.7969 19.544 98.4289 18.664 98.4289 17.576C98.4289 16.488 98.7969 15.616 99.5329 14.96C100.285 14.304 101.277 13.976 102.509 13.976C103.757 13.976 104.749 14.304 105.485 14.96C106.237 15.616 106.613 16.488 106.613 17.576C106.613 18.664 106.237 19.544 105.485 20.216C104.749 20.872 103.757 21.2 102.509 21.2ZM124.951 43.832V43.112L124.399 42.824V30.32C124.399 29.296 124.119 28.504 123.559 27.944C123.015 27.384 122.263 27.104 121.303 27.104C120.455 27.104 119.783 27.28 119.287 27.632C118.807 27.984 118.567 28.44 118.567 29V30.344C118.567 31.304 118.271 32.04 117.679 32.552C117.087 33.064 116.239 33.32 115.135 33.32C114.143 33.32 113.399 33.088 112.903 32.624C112.423 32.144 112.183 31.504 112.183 30.704C112.183 29.68 112.583 28.696 113.383 27.752C114.199 26.808 115.399 26.04 116.983 25.448C118.567 24.84 120.519 24.536 122.839 24.536C125.495 24.536 127.479 25.112 128.791 26.264C130.103 27.416 130.759 28.992 130.759 30.992V42.296C130.759 42.616 130.839 42.888 130.999 43.112C131.159 43.32 131.407 43.424 131.743 43.424C131.951 43.424 132.119 43.392 132.247 43.328C132.391 43.264 132.511 43.176 132.607 43.064C132.687 42.984 132.775 42.92 132.871 42.872C132.967 42.808 133.079 42.776 133.207 42.776C133.495 42.776 133.719 42.88 133.879 43.088C134.039 43.296 134.119 43.568 134.119 43.904C134.119 44.496 133.927 45.072 133.543 45.632C133.175 46.192 132.647 46.648 131.959 47C131.287 47.368 130.479 47.552 129.535 47.552C128.207 47.552 127.111 47.216 126.247 46.544C125.383 45.856 124.951 44.952 124.951 43.832ZM111.247 42.032C111.247 40 112.127 38.384 113.887 37.184C115.647 35.968 118.015 35.36 120.991 35.36C121.855 35.36 122.687 35.424 123.487 35.552C124.287 35.68 124.959 35.856 125.503 36.08L124.903 38.24C124.407 38.016 123.887 37.848 123.343 37.736C122.815 37.608 122.239 37.544 121.615 37.544C120.431 37.544 119.487 37.84 118.783 38.432C118.079 39.008 117.727 39.808 117.727 40.832C117.727 41.824 118.023 42.584 118.615 43.112C119.223 43.624 119.999 43.88 120.943 43.88C121.807 43.88 122.615 43.688 123.367 43.304C124.119 42.904 124.751 42.368 125.263 41.696L125.839 43.712C125.007 44.928 123.879 45.872 122.455 46.544C121.031 47.216 119.503 47.552 117.871 47.552C115.855 47.552 114.247 47.048 113.047 46.04C111.847 45.032 111.247 43.696 111.247 42.032ZM144.921 12.968V41.936C144.921 42.576 144.993 43.032 145.137 43.304C145.297 43.56 145.521 43.752 145.809 43.88L146.481 44.096C146.801 44.288 147.049 44.496 147.225 44.72C147.401 44.944 147.489 45.232 147.489 45.584C147.489 46.032 147.345 46.384 147.057 46.64C146.785 46.88 146.401 47 145.905 47H137.529C137.049 47 136.665 46.88 136.377 46.64C136.105 46.384 135.969 46.032 135.969 45.584C135.969 45.232 136.049 44.944 136.209 44.72C136.385 44.496 136.633 44.288 136.953 44.096L137.625 43.88C137.929 43.752 138.153 43.56 138.297 43.304C138.441 43.032 138.513 42.576 138.513 41.936V18.032C138.513 17.488 138.441 17.104 138.297 16.88C138.153 16.64 137.929 16.472 137.625 16.376L136.593 16.28C136.273 16.136 136.025 15.968 135.849 15.776C135.689 15.568 135.609 15.304 135.609 14.984C135.609 14.632 135.721 14.336 135.945 14.096C136.169 13.84 136.529 13.616 137.025 13.424L140.865 12.008C141.457 11.784 141.945 11.616 142.329 11.504C142.729 11.392 143.105 11.336 143.457 11.336C143.921 11.336 144.281 11.488 144.537 11.792C144.793 12.08 144.921 12.472 144.921 12.968Z" fill="#165F8C"/>
<path d="M155.155 24.679L155.144 24.66C154.281 23.0273 154.009 21.1531 154.372 19.347C154.735 17.5409 155.711 15.911 157.14 14.7267L158.381 13.6978C158.656 13.4698 158.973 13.2974 159.316 13.1906C159.658 13.0837 160.018 13.0444 160.376 13.075C160.734 13.1055 161.082 13.2053 161.4 13.3686C161.719 13.532 162.002 13.7556 162.233 14.0269L166.627 19.189C166.859 19.4601 167.033 19.7734 167.142 20.1112C167.25 20.4489 167.29 20.8043 167.259 21.1573C167.228 21.5102 167.127 21.8536 166.961 22.1679C166.796 22.4822 166.569 22.7613 166.294 22.9891C165.739 23.4493 165.393 24.1079 165.33 24.8202C165.268 25.5325 165.494 26.2401 165.961 26.7875L172.995 35.0421C173.462 35.5893 174.129 35.9314 174.851 35.993C175.573 36.0547 176.29 35.831 176.845 35.371C177.12 35.143 177.438 34.9706 177.78 34.8637C178.122 34.7568 178.482 34.7176 178.84 34.7481C179.198 34.7787 179.546 34.8785 179.865 35.0418C180.183 35.2051 180.466 35.4288 180.697 35.7L185.092 40.8604C185.558 41.4077 185.785 42.1154 185.722 42.8277C185.66 43.5399 185.313 44.1986 184.759 44.6587L183.518 45.6894C182.09 46.8744 180.294 47.5432 178.429 47.5852C176.563 47.6273 174.738 47.04 173.257 45.9206L173.24 45.9083C165.892 40.0371 159.753 32.8306 155.155 24.679Z" fill="#165F8C"/>
</svg>
