<?xml version="1.0" encoding="UTF-8"?>
<svg id="Layer_2" data-name="Layer 2" xmlns="http://www.w3.org/2000/svg" viewBox="0 0 274.57 167.81">
  <defs>
    <style>
      .cls-1, .cls-2, .cls-3, .cls-4, .cls-5 {
        stroke-linecap: round;
        stroke-linejoin: round;
        stroke-width: 2px;
      }

      .cls-1, .cls-2, .cls-4 {
        stroke: #56400a;
      }

      .cls-1, .cls-3, .cls-5 {
        fill: none;
      }

      .cls-2 {
        fill: #b7913d;
      }

      .cls-3 {
        stroke: #7f6222;
      }

      .cls-4 {
        fill: #cca648;
      }

      .cls-5 {
        stroke: #efd497;
      }
    </style>
  </defs>
  <g id="Layer_12" data-name="Layer 12">
    <g id="Layer_17" data-name="Layer 17">
      <path class="cls-4" d="M269.22,98.54c-33.62-30.03-72.29-38.17-80.26-39.08-7.98-.91-16.16-1.26-22.03,3.05s-11.48,24.41-16.19,27.45c-3.9,2.52-17.1-4.41-23.39-8.31-3.94-2.44-7.71-5.24-11.2-8.13L36.7,5.35s-2.08-1.63-5.31-4.35H8.23c-3.99,0-7.23,3.24-7.23,7.23v31.1c34.98,32.77,87.96,73.03,87.96,73.03,0,0,65.97,49.7,108.23,54.17,42.26,4.47,70.88-44.56,70.88-44.56,0,0,11.55-14.13,1.15-23.42Z"/>
      <path class="cls-2" d="M127.35,81.65c-3.94-2.44-7.71-5.24-11.2-8.13L36.7,5.35s-2.08-1.63-5.31-4.35H8.23c-3.99,0-7.23,3.24-7.23,7.23v31.1c34.98,32.77,87.96,73.03,87.96,73.03,0,0,7.24,5.45,18.45,12.91,10.63-12.07,18.81-26.6,23.66-41.42-1.38-.77-2.66-1.52-3.72-2.18Z"/>
      <path class="cls-1" d="M261.07,130.96s-45.43-49.67-105.36-47.97"/>
      <path class="cls-5" d="M165.06,73.83s2.23-11.38,17.56-9.33"/>
      <path class="cls-5" d="M261.94,98.28s8.89,4.67,6,11.78"/>
      <path class="cls-3" d="M169.72,150.83s31.11,18,55.78,2.89"/>
      <path class="cls-3" d="M199.06,153.5s11.56,2,22.22-4.67"/>
    </g>
  </g>
</svg>