<?xml version="1.0" encoding="UTF-8"?>
<svg id="Layer_2" data-name="Layer 2" xmlns="http://www.w3.org/2000/svg" viewBox="0 0 274.57 167.81">
  <defs>
    <style>
      .cls-1 {
        fill: none;
      }

      .cls-1, .cls-2 {
        stroke: #56400a;
        stroke-linecap: round;
        stroke-linejoin: round;
        stroke-width: 2px;
      }

      .cls-2 {
        fill: #cca648;
      }
    </style>
  </defs>
  <g id="Layer_12" data-name="Layer 12">
    <g id="Layer_17" data-name="Layer 17">
      <path class="cls-2" d="M269.22,98.54c-33.62-30.03-72.29-38.17-80.26-39.08-7.98-.91-16.16-1.26-22.03,3.05s-11.48,24.41-16.19,27.45c-3.9,2.52-17.1-4.41-23.39-8.31-3.94-2.44-7.71-5.24-11.2-8.13L36.7,5.35s-2.08-1.63-5.31-4.35H8.23c-3.99,0-7.23,3.24-7.23,7.23v31.1c34.98,32.77,87.96,73.03,87.96,73.03,0,0,65.97,49.7,108.23,54.17,42.26,4.47,70.88-44.56,70.88-44.56,0,0,11.55-14.13,1.15-23.42Z"/>
      <path class="cls-1" d="M261.07,130.96s-45.43-49.67-105.36-47.97"/>
    </g>
  </g>
</svg>