<?xml version="1.0" encoding="UTF-8"?>
<svg id="Layer_2" data-name="Layer 2" xmlns="http://www.w3.org/2000/svg" xmlns:xlink="http://www.w3.org/1999/xlink" viewBox="0 0 220.36 220.36">
  <defs>
    <style>
      .cls-1 {
        filter: url(#drop-shadow-2);
      }

      .cls-2 {
        fill: #99d3dd;
        stroke-width: 2px;
      }

      .cls-2, .cls-3, .cls-4, .cls-5, .cls-6 {
        stroke-miterlimit: 10;
      }

      .cls-2, .cls-5 {
        stroke: #195059;
      }

      .cls-3 {
        fill: #3fa0a0;
      }

      .cls-3, .cls-4 {
        stroke: #0e5b59;
      }

      .cls-4 {
        fill: #2c8484;
      }

      .cls-7 {
        fill: #79c4cc;
      }

      .cls-5 {
        fill: #55babf;
      }

      .cls-6 {
        fill: #94eded;
        filter: url(#drop-shadow-1);
        stroke: #2f7c84;
      }
    </style>
    <filter id="drop-shadow-1" x="78.78" y="78.24" width="62.97" height="63.97" filterUnits="userSpaceOnUse">
      <feOffset dx="0" dy="1"/>
      <feGaussianBlur result="blur" stdDeviation="0"/>
      <feFlood flood-color="#000" flood-opacity=".4"/>
      <feComposite in2="blur" operator="in"/>
      <feComposite in="SourceGraphic"/>
    </filter>
    <filter id="drop-shadow-2" x="13.62" y="14.81" width="191.45" height="182.54" filterUnits="userSpaceOnUse">
      <feOffset dx="0" dy="1"/>
      <feGaussianBlur result="blur-2" stdDeviation="0"/>
      <feFlood flood-color="#000" flood-opacity=".4"/>
      <feComposite in2="blur-2" operator="in"/>
      <feComposite in="SourceGraphic"/>
    </filter>
  </defs>
  <g id="Layer_12" data-name="Layer 12">
    <g id="Layer_18" data-name="Layer 18">
      <g>
        <circle class="cls-2" cx="110.18" cy="110.18" r="109.16"/>
        <path class="cls-7" d="M36.02,188.99c6.68,6.28,14.26,11.8,22.69,16.35,52.51,28.36,117.95,8.55,146.15-44.25,8.45-15.82,12.6-32.82,12.85-49.62-37.93,55.19-106.02,92.31-181.7,77.51Z"/>
        <circle class="cls-5" cx="110.18" cy="110.18" r="54.79"/>
        <circle class="cls-6" cx="110.26" cy="109.72" r="30.98"/>
        <g class="cls-1">
          <circle class="cls-3" cx="106.76" cy="26.19" r="10.88"/>
          <circle class="cls-3" cx="64.92" cy="38.79" r="10.88"/>
          <circle class="cls-3" cx="183.77" cy="150.51" r="10.88"/>
          <circle class="cls-3" cx="149.32" cy="36.1" r="10.88"/>
          <circle class="cls-3" cx="181.08" cy="66.11" r="10.88"/>
          <circle class="cls-3" cx="25" cy="113.11" r="10.88"/>
          <circle class="cls-3" cx="37.6" cy="154.95" r="10.88"/>
          <circle class="cls-3" cx="69.36" cy="184.97" r="10.88"/>
          <circle class="cls-3" cx="34.9" cy="70.55" r="10.88"/>
          <circle class="cls-3" cx="193.68" cy="107.95" r="10.88"/>
        </g>
        <path class="cls-4" d="M197.9,172.91l-12.29-19.8c-.3-.48.09-1.08.65-1.02l22.62,2.66c.46.05.73.54.52.96-1.46,2.9-6.41,12.51-10.42,17.27-.3.35-.84.31-1.09-.08Z"/>
      </g>
    </g>
  </g>
</svg>