<?xml version="1.0" encoding="UTF-8"?>
<svg id="Layer_2" data-name="Layer 2" xmlns="http://www.w3.org/2000/svg" viewBox="0 0 1528 659.79">
  <defs>
    <style>
      .cls-1 {
        fill: #99d3dd;
      }

      .cls-1, .cls-2, .cls-3, .cls-4, .cls-5, .cls-6, .cls-7, .cls-8, .cls-9, .cls-10 {
        stroke-width: 2px;
      }

      .cls-1, .cls-5, .cls-6, .cls-10 {
        stroke-miterlimit: 10;
      }

      .cls-1, .cls-5, .cls-10 {
        stroke: #195059;
      }

      .cls-2, .cls-3, .cls-4, .cls-7, .cls-8, .cls-9, .cls-11 {
        stroke-linecap: round;
        stroke-linejoin: round;
      }

      .cls-2, .cls-3, .cls-4, .cls-8 {
        stroke: #56400a;
      }

      .cls-2, .cls-6, .cls-7, .cls-9, .cls-11 {
        fill: none;
      }

      .cls-12 {
        fill: #eadeba;
      }

      .cls-3 {
        fill: #b7913d;
      }

      .cls-4 {
        fill: #8e6917;
      }

      .cls-5 {
        fill: #45a8ad;
      }

      .cls-6 {
        stroke: #ceeef2;
      }

      .cls-7 {
        stroke: #8e6813;
      }

      .cls-8 {
        fill: #cca648;
      }

      .cls-9 {
        stroke: #3c7d84;
      }

      .cls-11 {
        stroke: #f2d8a0;
        stroke-width: 3px;
      }

      .cls-10 {
        fill: #62c2cc;
      }
    </style>
  </defs>
  <g id="Layer_12" data-name="Layer 12">
    <g id="Layer_28" data-name="Layer 28">
      <path class="cls-12" d="M.44,70.99s441.1-39.91,743.73,32.09,783.38,10.67,783.38,10.67l.44,478.67s-560.83,30.67-890.97-53.33C306.88,455.09,0,545.31,0,545.31L.44,70.99Z"/>
      <path class="cls-2" d="M1149.89,582.53s-11.33,68.67-56.67,38.67c-31.18-20.63-29.67-56.78-62-70-60.74-24.84-90,110-19.84,107.56,52.36-1.82,24.27-120.12-61.91-117.89s-159.58,119.33-57.91,115.89c41.62-1.41,7.6-147.13-126.53-123-130.73,23.52-95.67,116-38.54,107,44.41-7,31.84-104-94.68-130-139.34-28.63-162.31,94.77-97.2,106,46.36,8,129.73-79.89-4.05-112.67-192.21-47.09-138.13,146.74-73.22,56.78,50.18-69.56-125.5-70.56-132.11-129.44"/>
      <g>
        <rect class="cls-4" x="315.14" y="428.55" width="17.96" height="15.11" rx="4.11" ry="4.11" transform="translate(633.72 -10.42) rotate(71.36)"/>
        <rect class="cls-4" x="315.14" y="428.55" width="17.96" height="15.11" rx="4.11" ry="4.11" transform="translate(633.72 -10.42) rotate(71.36)"/>
        <path class="cls-8" d="M387.48,405.66c.39-56.76-43.42-81.08-43.42-81.08,0,0-15.51-9.21-23.02-8.93-7.51.28-23.98,14.7-29.72,14.05-3.89-.44-11.14-12.5-15.41-20.23-2.16-3.92-3.84-8.08-4.98-12.4l-27.94-105.66s-24.4-75.89,3.97-71.63c28.37,4.26,35.52-3.82,40.35-11.29,4.84-7.47,5.4-73.25-.81-92.04-6.21-18.79-26.92-15.17-26.92-15.17-75.67,8.86-74.73,46.38-78.44,61.6-3.24,13.26.7,62.35,6.56,109.09,5.68,45.31,37.91,141.05,37.91,141.05,0,0,27.51,80.64,61,108.94,33.49,28.29,86.32,3.03,86.32,3.03,0,0,14.45-4.93,14.55-19.33Z"/>
        <path class="cls-3" d="M275.91,309.47c-2.16-3.92-3.84-8.08-4.98-12.4l-27.94-105.66s-8.77-27.28-9.68-48.21c-15.82-4.06-32.66-3.84-49.22-2.8,1.07,10.35,2.29,21.02,3.61,31.57,5.68,45.31,37.91,141.05,37.91,141.05,0,0,5.23,15.32,13.9,34.95,14.54-9.42,27.99-21.02,40.07-32.13-1.34-2.23-2.6-4.43-3.67-6.37Z"/>
        <path class="cls-2" d="M361.74,428.6s-10-68.71-62.14-101.98"/>
        <path class="cls-2" d="M248.04,119.49s21.79-68.61.61-115.94"/>
        <path class="cls-7" d="M334.67,424.96s-34,10-58-29.33"/>
        <path class="cls-7" d="M217.78,23.62s-16,2.67-23.11,20.44"/>
        <path class="cls-7" d="M332.89,416.51s-16.89,3.56-26.22-5.33"/>
        <path class="cls-11" d="M282.56,31.29c-1.35-23.18-15.67-24.22-15.67-24.22"/>
        <path class="cls-11" d="M380.17,392.12s5.33,23.56-9.33,23.56"/>
      </g>
      <g>
        <rect class="cls-4" x="1141.01" y="570.08" width="17.96" height="15.11" rx="4.11" ry="4.11" transform="translate(2159.79 -220.14) rotate(115.02)"/>
        <rect class="cls-5" x="1141.01" y="570.08" width="17.96" height="15.11" rx="4.11" ry="4.11" transform="translate(2159.79 -220.14) rotate(115.02)"/>
        <path class="cls-1" d="M1090.4,540.35c5.91-56.45,52.15-75.76,52.15-75.76,0,0,16.44-7.43,23.87-6.31,7.43,1.12,22.19,17.27,27.98,17.26,3.92,0,12.46-11.18,17.56-18.39,2.59-3.65,4.71-7.6,6.33-11.77l39.5-101.9s32.68-72.72,4.01-71.63c-28.67,1.09-34.88-7.74-38.85-15.7-3.98-7.96,2.77-73.39,11.02-91.38,8.25-17.99,28.44-12.09,28.44-12.09,74.22,17.21,69.11,54.39,71.11,69.93,1.74,13.54-7.62,61.89-18.63,107.69-10.68,44.4-53.34,135.96-53.34,135.96,0,0-36.3,77.09-72.72,101.49-36.42,24.4-86.12-6.58-86.12-6.58,0,0-13.81-6.51-12.31-20.82Z"/>
        <path class="cls-10" d="M1211.96,457.14c2.59-3.65,4.71-7.6,6.33-11.77l39.5-101.9s11.74-26.13,14.97-46.83c16.17-2.28,32.88-.19,49.23,2.69-2.21,10.17-4.61,20.63-7.09,30.97-10.68,44.4-53.34,135.96-53.34,135.96,0,0-6.9,14.64-17.69,33.19-13.4-10.98-25.49-24-36.25-36.38,1.58-2.06,3.07-4.12,4.35-5.92Z"/>
        <path class="cls-1" d="M1113.43,566.01s17.57-67.18,73.08-94.45"/>
        <path class="cls-1" d="M1260.75,271.43s-14.04-70.6,12.27-115.29"/>
        <path class="cls-9" d="M1140.74,565.39s32.68,13.71,60.9-22.71"/>
        <path class="cls-9" d="M1301.47,179.52s15.6,4.43,20.7,22.88"/>
        <path class="cls-9" d="M1143.45,557.19s16.39,5.41,26.65-2.39"/>
        <path class="cls-6" d="M1236.24,179.94c3.91-22.89,18.26-22.33,18.26-22.33"/>
        <path class="cls-6" d="M1099.17,527.7s-7.92,22.82,6.66,24.45"/>
      </g>
    </g>
  </g>
</svg>