<?xml version="1.0" encoding="UTF-8"?>
<svg id="Layer_2" data-name="Layer 2" xmlns="http://www.w3.org/2000/svg" viewBox="0 0 356.12 447.14">
  <defs>
    <style>
      .cls-1, .cls-2, .cls-3, .cls-4 {
        stroke: #56400a;
      }

      .cls-1, .cls-2, .cls-3, .cls-4, .cls-5, .cls-6 {
        stroke-linecap: round;
      }

      .cls-1, .cls-2, .cls-3, .cls-4, .cls-6 {
        stroke-linejoin: round;
      }

      .cls-1, .cls-4 {
        fill: #ad8431;
      }

      .cls-1, .cls-5, .cls-6, .cls-7, .cls-8 {
        stroke-width: 2px;
      }

      .cls-9 {
        fill: #b28e4f;
      }

      .cls-10 {
        fill: #272727;
      }

      .cls-2 {
        fill: #f4d07d;
      }

      .cls-2, .cls-3, .cls-4 {
        stroke-width: 1.5px;
      }

      .cls-11 {
        fill: #966f29;
      }

      .cls-3 {
        fill: #cca648;
      }

      .cls-5 {
        stroke: #966f29;
      }

      .cls-5, .cls-6, .cls-7 {
        fill: none;
      }

      .cls-5, .cls-7, .cls-8 {
        stroke-miterlimit: 10;
      }

      .cls-6 {
        stroke: #f2d8a0;
      }

      .cls-7, .cls-8 {
        stroke: #195059;
      }

      .cls-8 {
        fill: #b2e7ed;
      }
    </style>
  </defs>
  <g id="Layer_25" data-name="Layer 25">
    <path class="cls-7" d="M145.28,150.19s-106.06,29.04-102.22,78.22c4.44,56.89,79.56,35.11,72.39,11.11-10.56-35.37-86-26.67-78,22.67s72.67,102.67,105.33,73.33c32.67-29.33-74.67-67.33-84.67-12.67-10,54.67,80,114.67,112,78.67s-105.33-16.67-63.33,20.67c42,37.33,156,40,152-58"/>
    <rect class="cls-1" x="248.78" y="343.97" width="17.78" height="26.67" rx="6.89" ry="6.89"/>
    <path class="cls-4" d="M185.67,185.76s47.56-106.68,30.44-173.25c0,0,45.77-25.89,95.13-.85,0,0-27.38,158.17,20.82,175.31l-146.39-1.21Z"/>
    <path class="cls-11" d="M206.65,129.91c-9.04,32.17-19.05,55.82-19.05,55.82l142.57,1.24c-17.92-6.71-25.11-34.5-27.16-66.3-31.42-4.66-70.41-3.82-96.37,9.24Z"/>
    <ellipse class="cls-3" cx="258.37" cy="250.06" rx="97" ry="104"/>
    <ellipse class="cls-2" cx="257.71" cy="250.06" rx="77.94" ry="79.14"/>
    <g>
      <g id="_Radial_Repeat_" data-name="&amp;lt;Radial Repeat&amp;gt;">
        <circle class="cls-9" cx="252.34" cy="308.36" r="4.36"/>
      </g>
      <g id="_Radial_Repeat_-2" data-name="&amp;lt;Radial Repeat&amp;gt;">
        <circle class="cls-9" cx="234.34" cy="304.22" r="4.36"/>
      </g>
      <g id="_Radial_Repeat_-3" data-name="&amp;lt;Radial Repeat&amp;gt;">
        <circle class="cls-9" cx="218.5" cy="294.72" r="4.36"/>
      </g>
      <g id="_Radial_Repeat_-4" data-name="&amp;lt;Radial Repeat&amp;gt;">
        <circle class="cls-9" cx="206.37" cy="280.78" r="4.36"/>
      </g>
      <g id="_Radial_Repeat_-5" data-name="&amp;lt;Radial Repeat&amp;gt;">
        <circle class="cls-9" cx="199.14" cy="263.78" r="4.36"/>
      </g>
      <g id="_Radial_Repeat_-6" data-name="&amp;lt;Radial Repeat&amp;gt;">
        <circle class="cls-9" cx="197.52" cy="245.38" r="4.36"/>
      </g>
      <g id="_Radial_Repeat_-7" data-name="&amp;lt;Radial Repeat&amp;gt;">
        <circle class="cls-9" cx="201.66" cy="227.38" r="4.36"/>
      </g>
      <g id="_Radial_Repeat_-8" data-name="&amp;lt;Radial Repeat&amp;gt;">
        <circle class="cls-9" cx="211.16" cy="211.54" r="4.36"/>
      </g>
      <g id="_Radial_Repeat_-9" data-name="&amp;lt;Radial Repeat&amp;gt;">
        <circle class="cls-9" cx="225.09" cy="199.41" r="4.36"/>
      </g>
      <g id="_Radial_Repeat_-10" data-name="&amp;lt;Radial Repeat&amp;gt;">
        <circle class="cls-9" cx="242.09" cy="192.18" r="4.36"/>
      </g>
      <g id="_Radial_Repeat_-11" data-name="&amp;lt;Radial Repeat&amp;gt;">
        <circle class="cls-9" cx="260.49" cy="190.56" r="4.36"/>
      </g>
      <g id="_Radial_Repeat_-12" data-name="&amp;lt;Radial Repeat&amp;gt;">
        <circle class="cls-9" cx="278.5" cy="194.7" r="4.36"/>
      </g>
      <g id="_Radial_Repeat_-13" data-name="&amp;lt;Radial Repeat&amp;gt;">
        <circle class="cls-9" cx="294.34" cy="204.21" r="4.36"/>
      </g>
      <g id="_Radial_Repeat_-14" data-name="&amp;lt;Radial Repeat&amp;gt;">
        <circle class="cls-9" cx="306.46" cy="218.14" r="4.36"/>
      </g>
      <g id="_Radial_Repeat_-15" data-name="&amp;lt;Radial Repeat&amp;gt;">
        <circle class="cls-9" cx="313.69" cy="235.14" r="4.36"/>
      </g>
      <g id="_Radial_Repeat_-16" data-name="&amp;lt;Radial Repeat&amp;gt;">
        <circle class="cls-9" cx="315.32" cy="253.54" r="4.36"/>
      </g>
      <g id="_Radial_Repeat_-17" data-name="&amp;lt;Radial Repeat&amp;gt;">
        <circle class="cls-9" cx="311.17" cy="271.54" r="4.36"/>
      </g>
      <g id="_Radial_Repeat_-18" data-name="&amp;lt;Radial Repeat&amp;gt;">
        <circle class="cls-9" cx="301.67" cy="287.38" r="4.36"/>
      </g>
      <g id="_Radial_Repeat_-19" data-name="&amp;lt;Radial Repeat&amp;gt;">
        <circle class="cls-9" cx="287.74" cy="299.51" r="4.36"/>
      </g>
      <g id="_Radial_Repeat_-20" data-name="&amp;lt;Radial Repeat&amp;gt;">
        <circle class="cls-9" cx="270.74" cy="306.74" r="4.36"/>
      </g>
    </g>
    <g>
      <g id="_Radial_Repeat_-21" data-name="&amp;lt;Radial Repeat&amp;gt;">
        <circle class="cls-9" cx="253.31" cy="291.66" r="3.06"/>
      </g>
      <g id="_Radial_Repeat_-22" data-name="&amp;lt;Radial Repeat&amp;gt;">
        <circle class="cls-9" cx="236.75" cy="286.92" r="3.06"/>
      </g>
      <g id="_Radial_Repeat_-23" data-name="&amp;lt;Radial Repeat&amp;gt;">
        <circle class="cls-9" cx="223.55" cy="275.86" r="3.06"/>
      </g>
      <g id="_Radial_Repeat_-24" data-name="&amp;lt;Radial Repeat&amp;gt;">
        <circle class="cls-9" cx="215.98" cy="260.38" r="3.06"/>
      </g>
      <g id="_Radial_Repeat_-25" data-name="&amp;lt;Radial Repeat&amp;gt;">
        <circle class="cls-9" cx="215.37" cy="243.17" r="3.06"/>
      </g>
      <g id="_Radial_Repeat_-26" data-name="&amp;lt;Radial Repeat&amp;gt;">
        <circle class="cls-9" cx="221.81" cy="227.2" r="3.06"/>
      </g>
      <g id="_Radial_Repeat_-27" data-name="&amp;lt;Radial Repeat&amp;gt;">
        <circle class="cls-9" cx="234.19" cy="215.22" r="3.06"/>
      </g>
      <g id="_Radial_Repeat_-28" data-name="&amp;lt;Radial Repeat&amp;gt;">
        <circle class="cls-9" cx="250.37" cy="209.32" r="3.06"/>
      </g>
      <g id="_Radial_Repeat_-29" data-name="&amp;lt;Radial Repeat&amp;gt;">
        <circle class="cls-9" cx="267.56" cy="210.51" r="3.06"/>
      </g>
      <g id="_Radial_Repeat_-30" data-name="&amp;lt;Radial Repeat&amp;gt;">
        <circle class="cls-9" cx="282.77" cy="218.59" r="3.06"/>
      </g>
      <g id="_Radial_Repeat_-31" data-name="&amp;lt;Radial Repeat&amp;gt;">
        <circle class="cls-9" cx="293.38" cy="232.15" r="3.06"/>
      </g>
      <g id="_Radial_Repeat_-32" data-name="&amp;lt;Radial Repeat&amp;gt;">
        <circle class="cls-9" cx="297.56" cy="248.86" r="3.06"/>
      </g>
      <g id="_Radial_Repeat_-33" data-name="&amp;lt;Radial Repeat&amp;gt;">
        <circle class="cls-9" cx="294.58" cy="265.82" r="3.06"/>
      </g>
      <g id="_Radial_Repeat_-34" data-name="&amp;lt;Radial Repeat&amp;gt;">
        <circle class="cls-9" cx="284.96" cy="280.11" r="3.06"/>
      </g>
      <g id="_Radial_Repeat_-35" data-name="&amp;lt;Radial Repeat&amp;gt;">
        <circle class="cls-9" cx="270.36" cy="289.25" r="3.06"/>
      </g>
    </g>
    <g>
      <g id="_Radial_Repeat_-36" data-name="&amp;lt;Radial Repeat&amp;gt;">
        <circle class="cls-9" cx="255.63" cy="275.64" r="3.14"/>
      </g>
      <g id="_Radial_Repeat_-37" data-name="&amp;lt;Radial Repeat&amp;gt;">
        <circle class="cls-9" cx="243.17" cy="271.38" r="3.14"/>
      </g>
      <g id="_Radial_Repeat_-38" data-name="&amp;lt;Radial Repeat&amp;gt;">
        <circle class="cls-9" cx="234.51" cy="261.46" r="3.14"/>
      </g>
      <g id="_Radial_Repeat_-39" data-name="&amp;lt;Radial Repeat&amp;gt;">
        <circle class="cls-9" cx="231.97" cy="248.53" r="3.14"/>
      </g>
      <g id="_Radial_Repeat_-40" data-name="&amp;lt;Radial Repeat&amp;gt;">
        <circle class="cls-9" cx="236.23" cy="236.07" r="3.14"/>
      </g>
      <g id="_Radial_Repeat_-41" data-name="&amp;lt;Radial Repeat&amp;gt;">
        <circle class="cls-9" cx="246.15" cy="227.41" r="3.14"/>
      </g>
      <g id="_Radial_Repeat_-42" data-name="&amp;lt;Radial Repeat&amp;gt;">
        <circle class="cls-9" cx="259.08" cy="224.87" r="3.14"/>
      </g>
      <g id="_Radial_Repeat_-43" data-name="&amp;lt;Radial Repeat&amp;gt;">
        <circle class="cls-9" cx="271.54" cy="229.13" r="3.14"/>
      </g>
      <g id="_Radial_Repeat_-44" data-name="&amp;lt;Radial Repeat&amp;gt;">
        <circle class="cls-9" cx="280.2" cy="239.05" r="3.14"/>
      </g>
      <g id="_Radial_Repeat_-45" data-name="&amp;lt;Radial Repeat&amp;gt;">
        <circle class="cls-9" cx="282.74" cy="251.98" r="3.14"/>
      </g>
      <g id="_Radial_Repeat_-46" data-name="&amp;lt;Radial Repeat&amp;gt;">
        <circle class="cls-9" cx="278.48" cy="264.44" r="3.14"/>
      </g>
      <g id="_Radial_Repeat_-47" data-name="&amp;lt;Radial Repeat&amp;gt;">
        <circle class="cls-9" cx="268.55" cy="273.1" r="3.14"/>
      </g>
    </g>
    <g>
      <g id="_Radial_Repeat_-48" data-name="&amp;lt;Radial Repeat&amp;gt;">
        <circle class="cls-9" cx="255.86" cy="264.86" r="1.84"/>
      </g>
      <g id="_Radial_Repeat_-49" data-name="&amp;lt;Radial Repeat&amp;gt;">
        <circle class="cls-9" cx="243.49" cy="256.55" r="1.84"/>
      </g>
      <g id="_Radial_Repeat_-50" data-name="&amp;lt;Radial Repeat&amp;gt;">
        <circle class="cls-9" cx="244.5" cy="241.68" r="1.84"/>
      </g>
      <g id="_Radial_Repeat_-51" data-name="&amp;lt;Radial Repeat&amp;gt;">
        <circle class="cls-9" cx="257.88" cy="235.12" r="1.84"/>
      </g>
      <g id="_Radial_Repeat_-52" data-name="&amp;lt;Radial Repeat&amp;gt;">
        <circle class="cls-9" cx="270.25" cy="243.43" r="1.84"/>
      </g>
      <g id="_Radial_Repeat_-53" data-name="&amp;lt;Radial Repeat&amp;gt;">
        <circle class="cls-9" cx="269.24" cy="258.3" r="1.84"/>
      </g>
    </g>
    <circle class="cls-9" cx="257.88" cy="249.59" r="4.89"/>
    <path class="cls-6" d="M190.5,187.08s16.75-23.48,47.78-30.22"/>
    <path class="cls-6" d="M302.83,166.92s15.56,4.44,26.67,23.56"/>
    <path class="cls-5" d="M276.78,345.86s41.41-7.81,57.19-42.12"/>
    <path class="cls-8" d="M194.96,100.49c0-35.45-43.42-64.18-96.98-64.18S1,65.04,1,100.49s43.42,64.18,96.98,64.18c18.58,0,35.94-3.46,50.69-9.46l16.67,11.78c.94.66,2.16-.2,1.95-1.38l-3.35-18.09c19.07-11.72,31.02-28.46,31.02-47.04Z"/>
    <g>
      <path class="cls-10" d="M34.6,79.18h4.41c.13,0,.24-.03.33-.08.09-.05.18-.1.27-.15.08-.05.18-.07.28-.07.15,0,.27.04.35.12.08.08.14.21.19.4l.46,1.93c.04.15.03.27-.02.37s-.13.16-.25.18c-.11.02-.2,0-.28-.04s-.15-.14-.21-.28c-.16-.44-.31-.78-.44-1-.13-.22-.28-.37-.43-.44-.15-.07-.34-.11-.57-.11h-1.13v7.55c0,.16.04.28.11.37.07.09.18.15.32.19l.51.09c.22.08.33.21.33.41,0,.25-.15.38-.44.38h-3.18c-.14,0-.25-.03-.32-.1s-.11-.16-.11-.28c0-.2.11-.33.32-.41l.52-.09c.13-.04.23-.1.3-.19.07-.09.1-.21.1-.37v-7.55h-1.15c-.22,0-.4.04-.55.11s-.28.22-.41.44-.28.55-.44,1c-.06.14-.12.23-.21.28-.08.05-.18.06-.28.04-.12-.02-.2-.08-.25-.18s-.06-.22-.02-.37l.45-1.93c.04-.18.1-.32.18-.4s.2-.13.35-.13c.1,0,.2.03.28.08.09.05.18.1.28.15.1.05.21.08.35.08Z"/>
      <path class="cls-10" d="M43.88,79.06v8.67c0,.17.02.29.07.37.05.08.12.13.22.17l.26.07c.16.07.24.17.24.31,0,.21-.12.32-.35.32h-2.25c-.12,0-.21-.03-.27-.08s-.1-.14-.1-.24c0-.08.02-.15.07-.21.05-.06.11-.1.2-.14l.25-.06c.1-.03.18-.09.22-.16.05-.07.07-.19.07-.35v-7.44c0-.15-.02-.25-.07-.31-.04-.06-.11-.1-.2-.12l-.41-.02c-.08-.03-.15-.07-.19-.12-.04-.05-.07-.11-.07-.18,0-.08.03-.16.08-.22.05-.06.14-.11.26-.15l.97-.34c.14-.06.26-.1.36-.13.1-.03.18-.04.26-.04.12,0,.21.04.27.11.06.08.1.17.1.29ZM43.68,84.53l-.32-.38.32-.32c.48-.47.93-.81,1.34-1.02s.81-.32,1.2-.32c.54,0,.98.18,1.32.53.34.35.51.83.51,1.43v3.28c0,.16.02.28.07.35.05.08.12.13.22.16l.24.06c.09.04.15.09.2.14.05.05.07.12.07.21,0,.1-.03.18-.1.24s-.16.08-.28.08h-2.25c-.23,0-.35-.11-.35-.32,0-.14.08-.25.23-.31l.26-.07c.11-.04.18-.09.23-.17.05-.08.07-.2.07-.37v-2.93c0-.42-.1-.74-.31-.96s-.48-.33-.82-.33c-.23,0-.48.06-.75.18s-.55.32-.84.59l-.28.26Z"/>
      <path class="cls-10" d="M51.8,82.94v4.79c0,.16.03.27.08.35.05.07.13.13.23.16l.24.06c.09.04.15.08.2.14.05.06.07.13.07.21,0,.1-.03.18-.1.24s-.16.08-.28.08h-2.25c-.12,0-.21-.03-.28-.08-.07-.06-.1-.14-.1-.24,0-.08.02-.15.07-.21.05-.06.11-.1.2-.14l.26-.06c.1-.04.18-.09.22-.16s.07-.19.07-.35v-3.56c0-.14-.02-.25-.07-.31-.04-.06-.11-.1-.2-.12l-.4-.02c-.09-.03-.15-.07-.2-.12-.04-.05-.07-.11-.07-.19,0-.08.03-.16.08-.22.06-.06.14-.11.26-.15l.97-.34c.14-.05.26-.09.36-.12.1-.03.19-.04.27-.04.12,0,.2.04.27.11s.09.17.09.29ZM50.97,81.3c-.29,0-.52-.08-.7-.25-.18-.17-.27-.38-.27-.65s.09-.48.27-.65c.18-.17.41-.25.7-.25s.53.08.71.25c.18.17.27.38.27.64s-.09.49-.27.65c-.18.17-.42.25-.71.25Z"/>
      <path class="cls-10" d="M55.77,83.14c-.31,0-.56.08-.74.24s-.27.37-.27.62c0,.18.05.34.14.47.09.13.24.25.42.34.19.1.42.19.7.27.54.14.98.3,1.34.49.35.19.62.42.79.68.17.26.26.58.26.94,0,.55-.19,1-.57,1.37-.38.36-.96.55-1.73.55-.24,0-.46-.02-.63-.07s-.33-.1-.46-.14c-.13-.05-.23-.07-.31-.07-.07,0-.12.03-.17.07s-.09.1-.13.15-.11.07-.19.07-.16-.03-.22-.08c-.06-.06-.12-.15-.17-.29l-.41-1.07c-.06-.19-.08-.34-.05-.46s.1-.2.2-.23c.11-.04.22-.04.33.01s.21.13.29.26c.17.27.35.5.54.67s.4.31.63.4c.23.09.46.13.7.13.4,0,.69-.09.87-.27s.27-.4.27-.66c0-.19-.05-.36-.16-.5-.11-.14-.27-.26-.48-.37-.21-.11-.48-.2-.8-.28-.47-.11-.88-.26-1.21-.43s-.58-.4-.75-.67-.26-.59-.26-.96c0-.35.09-.67.27-.94s.43-.49.76-.65.71-.24,1.15-.24c.29,0,.52.03.7.08.18.05.32.11.43.16s.19.08.24.08c.07,0,.13-.03.17-.08s.08-.11.13-.16c.04-.05.1-.08.18-.08s.14.02.2.07c.06.05.1.13.13.24l.31,1.12c.05.19.07.34.06.48-.01.13-.08.21-.19.25-.09.02-.19,0-.28-.05-.1-.06-.19-.16-.28-.31-.2-.38-.44-.66-.74-.85-.29-.19-.62-.28-.99-.28Z"/>
      <path class="cls-10" d="M64.28,79.06v8.67c0,.16.02.28.07.35.05.08.12.13.22.16l.25.06c.09.04.15.08.2.14.05.06.07.13.07.21,0,.1-.03.18-.1.24s-.16.08-.28.08h-2.25c-.12,0-.21-.03-.27-.08s-.1-.14-.1-.24c0-.08.02-.15.07-.21.05-.06.11-.1.2-.14l.25-.06c.1-.03.18-.09.22-.16.05-.07.07-.19.07-.35v-7.44c0-.15-.02-.25-.07-.31-.04-.06-.11-.1-.2-.12l-.41-.02c-.08-.03-.15-.07-.19-.12-.04-.05-.07-.11-.07-.18,0-.08.03-.16.08-.22.05-.06.14-.11.26-.15l.97-.34c.14-.06.26-.1.36-.13.1-.03.18-.04.26-.04.12,0,.21.04.27.11.06.08.1.17.1.29Z"/>
      <path class="cls-10" d="M68.05,82.94v4.79c0,.16.03.27.08.35.05.07.13.13.23.16l.24.06c.09.04.15.08.2.14.05.06.07.13.07.21,0,.1-.03.18-.1.24s-.16.08-.28.08h-2.25c-.12,0-.21-.03-.28-.08-.07-.06-.1-.14-.1-.24,0-.08.02-.15.07-.21.05-.06.11-.1.2-.14l.26-.06c.1-.04.18-.09.22-.16s.07-.19.07-.35v-3.56c0-.14-.02-.25-.07-.31-.04-.06-.11-.1-.2-.12l-.4-.02c-.09-.03-.15-.07-.2-.12-.04-.05-.07-.11-.07-.19,0-.08.03-.16.08-.22.06-.06.14-.11.26-.15l.97-.34c.14-.05.26-.09.36-.12.1-.03.19-.04.27-.04.12,0,.2.04.27.11s.09.17.09.29ZM67.23,81.3c-.29,0-.52-.08-.7-.25-.18-.17-.27-.38-.27-.65s.09-.48.27-.65c.18-.17.41-.25.7-.25s.53.08.71.25c.18.17.27.38.27.64s-.09.49-.27.65c-.18.17-.42.25-.71.25Z"/>
      <path class="cls-10" d="M71.84,82.94v4.79c0,.17.02.29.07.37.05.08.12.13.23.17l.25.07c.16.07.23.17.23.31,0,.21-.12.32-.35.32h-2.25c-.12,0-.21-.03-.28-.08-.07-.06-.1-.14-.1-.24,0-.08.02-.15.07-.21.05-.06.11-.1.2-.14l.25-.06c.1-.03.18-.09.23-.16.05-.07.08-.19.08-.35v-3.56c0-.14-.02-.25-.07-.31-.04-.06-.11-.1-.2-.12l-.41-.02c-.08-.03-.15-.07-.19-.12-.04-.05-.07-.11-.07-.19,0-.08.03-.16.08-.22.05-.06.14-.11.27-.15l.97-.34c.14-.05.26-.09.36-.12.1-.03.19-.04.27-.04.12,0,.2.04.27.11s.09.17.09.29ZM71.64,84.52l-.32-.38.32-.32c.47-.46.91-.79,1.33-1.01.41-.22.82-.33,1.21-.33.55,0,1,.17,1.33.52.33.35.5.82.5,1.4v3.32c0,.16.02.28.07.35.05.08.12.13.22.16l.25.06c.08.04.15.09.19.14s.07.12.07.21c0,.1-.03.18-.1.24-.06.06-.16.08-.28.08h-2.25c-.23,0-.35-.11-.35-.32,0-.14.08-.25.23-.31l.26-.07c.1-.04.17-.09.22-.17.05-.08.07-.2.07-.37v-2.97c0-.41-.1-.72-.3-.93-.2-.22-.47-.33-.82-.33-.25,0-.51.06-.77.18s-.54.32-.82.58l-.28.26Z"/>
      <path class="cls-10" d="M83.29,84.91c0,.28-.08.48-.23.63s-.37.21-.65.21h-4.02v-.58h3.07c.27,0,.41-.13.41-.39,0-.46-.13-.83-.38-1.12s-.58-.42-.98-.42c-.33,0-.62.09-.87.27-.26.18-.46.44-.6.77-.15.33-.22.73-.22,1.18,0,.84.2,1.49.61,1.94s.93.67,1.58.67c.45,0,.83-.11,1.14-.32.31-.21.53-.46.67-.74.06-.07.11-.13.15-.16.05-.03.09-.05.15-.05.06,0,.11.03.15.08.04.05.06.12.06.21-.02.35-.15.68-.37.98-.22.31-.53.56-.92.75-.39.19-.85.29-1.38.29-.64,0-1.19-.14-1.65-.41-.47-.28-.82-.66-1.08-1.15-.25-.49-.38-1.06-.38-1.7s.13-1.22.38-1.73c.26-.51.62-.91,1.09-1.21.47-.3,1.03-.44,1.68-.44.52,0,.97.11,1.36.32s.69.5.91.86c.22.36.33.78.33,1.25Z"/>
      <path class="cls-10" d="M84.87,80.09c-.26,0-.46-.08-.6-.22-.14-.15-.21-.34-.21-.58,0-.27.09-.48.28-.65.18-.17.41-.25.66-.25.31,0,.56.12.77.35s.3.6.3,1.1c0,.38-.06.72-.19,1.03-.12.31-.3.57-.53.78-.23.21-.5.37-.81.47-.14.05-.25.05-.33,0-.09-.04-.14-.12-.16-.21-.02-.08-.01-.16.04-.22s.13-.12.25-.17c.2-.08.37-.17.51-.29.14-.12.25-.25.32-.39.07-.14.11-.29.11-.44,0-.1-.02-.17-.06-.22-.04-.05-.1-.07-.19-.07h-.16Z"/>
      <path class="cls-10" d="M89.22,83.14c-.31,0-.56.08-.74.24s-.27.37-.27.62c0,.18.05.34.14.47.09.13.24.25.42.34.19.1.42.19.7.27.54.14.98.3,1.34.49.35.19.62.42.79.68.17.26.26.58.26.94,0,.55-.19,1-.57,1.37-.38.36-.96.55-1.73.55-.24,0-.46-.02-.63-.07s-.33-.1-.46-.14c-.13-.05-.23-.07-.31-.07-.07,0-.12.03-.17.07s-.09.1-.13.15-.11.07-.19.07-.16-.03-.22-.08c-.06-.06-.12-.15-.17-.29l-.41-1.07c-.06-.19-.08-.34-.05-.46s.1-.2.2-.23c.11-.04.22-.04.33.01s.21.13.29.26c.17.27.35.5.54.67s.4.31.63.4c.23.09.46.13.7.13.4,0,.69-.09.87-.27s.27-.4.27-.66c0-.19-.05-.36-.16-.5-.11-.14-.27-.26-.48-.37-.21-.11-.48-.2-.8-.28-.47-.11-.88-.26-1.21-.43s-.58-.4-.75-.67-.26-.59-.26-.96c0-.35.09-.67.27-.94s.43-.49.76-.65.71-.24,1.15-.24c.29,0,.52.03.7.08.18.05.32.11.43.16s.19.08.24.08c.07,0,.13-.03.17-.08s.08-.11.13-.16c.04-.05.1-.08.18-.08s.14.02.2.07c.06.05.1.13.13.24l.31,1.12c.05.19.07.34.06.48-.01.13-.08.21-.19.25-.09.02-.19,0-.28-.05-.1-.06-.19-.16-.28-.31-.2-.38-.44-.66-.74-.85-.29-.19-.62-.28-.99-.28Z"/>
      <path class="cls-10" d="M98.81,82.49c.64,0,1.2.14,1.69.43.49.28.87.68,1.14,1.18.27.5.41,1.07.41,1.72s-.14,1.2-.42,1.7c-.28.5-.66.89-1.16,1.18-.49.29-1.06.43-1.71.43s-1.2-.14-1.69-.42-.87-.68-1.14-1.18-.41-1.08-.41-1.74.14-1.19.42-1.68c.28-.5.67-.89,1.16-1.18.5-.29,1.06-.43,1.71-.43ZM99.33,88.31c.34-.07.61-.23.83-.49.21-.26.36-.59.43-1,.07-.41.06-.85-.03-1.34-.1-.53-.27-.97-.49-1.32s-.5-.6-.8-.75c-.31-.15-.64-.19-1-.11-.34.06-.61.22-.84.48-.22.26-.37.59-.44,1s-.06.86.03,1.35c.11.53.27.97.5,1.32.23.35.5.59.82.74.32.15.65.19,1,.12Z"/>
      <path class="cls-10" d="M104.97,82.94v.81l.05.15v7.1c0,.16.02.28.07.35.05.08.12.13.22.16l.41.06c.08.04.15.08.19.14.05.06.07.13.07.21,0,.1-.03.18-.1.24-.06.06-.16.08-.28.08h-2.41c-.12,0-.21-.03-.27-.08-.07-.06-.1-.13-.1-.24,0-.08.02-.15.07-.21.05-.05.11-.1.2-.14l.25-.06c.1-.03.18-.09.22-.16.05-.08.07-.19.07-.35v-6.83c0-.14-.02-.25-.07-.31s-.11-.1-.2-.12l-.41-.02c-.08-.03-.15-.07-.19-.12-.04-.05-.07-.11-.07-.19,0-.08.03-.16.08-.21.05-.06.14-.11.27-.16l.9-.34c.14-.06.26-.1.36-.13.1-.03.19-.04.27-.04.12,0,.21.04.27.11s.1.17.1.29ZM104.67,84.67l-.23-.46c.32-.54.71-.96,1.17-1.27.46-.31.96-.46,1.5-.46s.98.13,1.38.4c.4.27.72.64.95,1.12.23.48.34,1.04.34,1.67,0,.72-.13,1.34-.4,1.86s-.63.91-1.09,1.19-.97.41-1.53.41c-.52,0-1-.14-1.42-.41s-.75-.65-.99-1.11l.35-.59c.22.44.49.77.81.99s.67.33,1.04.33c.34,0,.65-.1.92-.29.27-.2.48-.48.65-.86.16-.38.24-.83.24-1.35s-.08-.97-.24-1.33c-.16-.36-.37-.64-.64-.83-.27-.19-.58-.29-.92-.29-.39,0-.75.11-1.06.34-.32.23-.59.54-.82.96Z"/>
      <path class="cls-10" d="M116.45,84.91c0,.28-.08.48-.23.63s-.37.21-.65.21h-4.02v-.58h3.07c.27,0,.41-.13.41-.39,0-.46-.13-.83-.38-1.12s-.58-.42-.98-.42c-.33,0-.62.09-.87.27-.26.18-.46.44-.6.77-.15.33-.22.73-.22,1.18,0,.84.2,1.49.61,1.94s.93.67,1.58.67c.45,0,.83-.11,1.14-.32.31-.21.53-.46.67-.74.06-.07.11-.13.15-.16.05-.03.09-.05.15-.05.06,0,.11.03.15.08.04.05.06.12.06.21-.02.35-.15.68-.37.98-.22.31-.53.56-.92.75-.39.19-.85.29-1.38.29-.64,0-1.19-.14-1.65-.41-.47-.28-.82-.66-1.08-1.15-.25-.49-.38-1.06-.38-1.7s.13-1.22.38-1.73c.26-.51.62-.91,1.09-1.21.47-.3,1.03-.44,1.68-.44.52,0,.97.11,1.36.32s.69.5.91.86c.22.36.33.78.33,1.25Z"/>
      <path class="cls-10" d="M119.57,82.94v4.79c0,.17.02.29.07.37.05.08.12.13.23.17l.25.07c.16.07.23.17.23.31,0,.21-.12.32-.35.32h-2.25c-.12,0-.21-.03-.28-.08-.07-.06-.1-.14-.1-.24,0-.08.02-.15.07-.21.05-.06.11-.1.2-.14l.25-.06c.1-.03.18-.09.23-.16.05-.07.08-.19.08-.35v-3.56c0-.14-.02-.25-.07-.31-.04-.06-.11-.1-.2-.12l-.41-.02c-.08-.03-.15-.07-.19-.12-.04-.05-.07-.11-.07-.19,0-.08.03-.16.08-.22.05-.06.14-.11.27-.15l.97-.34c.14-.05.26-.09.36-.12.1-.03.19-.04.27-.04.12,0,.2.04.27.11s.09.17.09.29ZM119.37,84.52l-.32-.38.32-.32c.47-.46.91-.79,1.33-1.01.41-.22.82-.33,1.21-.33.55,0,1,.17,1.33.52.33.35.5.82.5,1.4v3.32c0,.16.02.28.07.35.05.08.12.13.22.16l.25.06c.08.04.15.09.19.14s.07.12.07.21c0,.1-.03.18-.1.24-.06.06-.16.08-.28.08h-2.25c-.23,0-.35-.11-.35-.32,0-.14.08-.25.23-.31l.26-.07c.1-.04.17-.09.22-.17.05-.08.07-.2.07-.37v-2.97c0-.41-.1-.72-.3-.93-.2-.22-.47-.33-.82-.33-.25,0-.51.06-.77.18s-.54.32-.82.58l-.28.26Z"/>
      <path class="cls-10" d="M128.18,88.22c0-.4.15-.75.46-1.04.3-.29.74-.43,1.31-.43.29,0,.56.05.83.14s.53.21.79.33c.26.12.52.23.78.33.26.1.53.14.81.14.32,0,.57-.08.75-.25.18-.16.32-.4.42-.71.06-.12.12-.2.18-.25s.14-.07.22-.05c.09,0,.16.06.2.14s.05.23.03.42c-.06.5-.16.9-.31,1.21-.15.32-.36.55-.61.7s-.55.22-.89.22c-.27,0-.51-.04-.72-.11-.21-.07-.41-.18-.6-.32-.19-.14-.38-.33-.57-.55-.2-.19-.37-.33-.5-.42-.14-.09-.28-.13-.44-.13-.18,0-.31.07-.39.2s-.14.32-.17.57c-.02.17-.07.31-.14.42-.07.11-.17.2-.28.25-.12.06-.26.08-.42.08-.22,0-.4-.08-.54-.23s-.21-.38-.21-.68ZM129.09,87.55l-.38-.4,2.02-1.71c.55-.44.99-.86,1.32-1.24.33-.38.57-.76.72-1.14.15-.38.22-.79.22-1.23,0-.48-.06-.87-.18-1.19s-.3-.56-.53-.71c-.23-.16-.51-.24-.84-.24-.53,0-.93.15-1.18.44s-.38.65-.38,1.07v.52c0,.27-.07.47-.21.62-.14.15-.33.22-.56.22s-.41-.08-.55-.25c-.14-.17-.2-.41-.2-.71,0-.45.12-.87.36-1.26s.59-.71,1.07-.95c.47-.24,1.06-.36,1.77-.36s1.25.12,1.7.35.78.55,1,.96c.22.41.33.87.33,1.39,0,.45-.09.88-.27,1.28-.18.4-.48.81-.91,1.23-.42.42-1,.88-1.72,1.38l-2.59,1.94Z"/>
      <path class="cls-10" d="M138.83,81.89c.15-.15.27-.3.35-.44.08-.14.12-.28.12-.42,0-.12-.02-.22-.06-.3-.04-.08-.08-.17-.13-.25-.05-.08-.09-.17-.13-.27-.04-.1-.06-.21-.06-.35,0-.18.04-.34.12-.48.08-.14.2-.25.36-.33.16-.08.35-.12.57-.12.29,0,.53.09.72.27.18.18.28.43.28.75,0,.19-.03.38-.08.56-.06.18-.15.37-.28.57s-.32.43-.56.68l-3.7,4.26-.14-.34h6.11c.12,0,.22.03.3.09.08.06.11.16.11.29,0,.27-.14.4-.42.4h-6.22c-.16,0-.28-.04-.37-.13-.08-.08-.12-.19-.12-.33,0-.1.02-.2.07-.29.05-.09.13-.2.25-.33l2.92-3.49ZM139.7,83.85c0-.14.02-.25.05-.34.03-.09.08-.17.15-.24l.7-.67c.08-.08.14-.14.2-.17.05-.03.11-.04.18-.04.07,0,.13.03.17.08.04.05.07.13.07.24v4.83c0,.16.04.29.11.38.07.09.17.15.3.18l.55.11c.12.04.22.09.28.15s.1.15.1.25c0,.12-.04.21-.11.28-.07.07-.18.1-.34.1h-3.35c-.29,0-.44-.13-.44-.38,0-.21.13-.34.38-.4l.6-.11c.13-.02.23-.08.3-.17.07-.09.1-.22.1-.38v-3.69Z"/>
      <path class="cls-10" d="M146.58,84.87c-.09.24-.2.51-.32.83s-.25.65-.38,1c-.13.36-.27.72-.41,1.09-.14.37-.27.73-.4,1.08-.13.35-.25.67-.37.97-.11.3-.21.56-.3.78-.07.16-.16.28-.27.34-.11.06-.24.06-.39,0-.14-.06-.23-.16-.27-.29s-.03-.28.03-.43c.09-.24.2-.52.33-.83.13-.31.26-.64.41-.99.15-.35.29-.7.44-1.06.15-.36.3-.71.44-1.05.15-.34.28-.67.4-.97s.23-.57.32-.79c.09-.22.19-.49.3-.79s.23-.62.36-.97c.13-.34.26-.7.39-1.06.13-.36.26-.72.39-1.07s.25-.68.37-.99c.11-.31.22-.59.31-.83.07-.18.17-.31.28-.37.12-.06.25-.06.39,0,.14.06.23.16.27.29.04.13.03.28-.04.43-.08.21-.18.47-.3.77-.12.3-.25.62-.39.97s-.28.7-.43,1.06c-.15.36-.29.72-.44,1.07-.14.35-.27.68-.4.99-.12.31-.23.58-.32.82Z"/>
      <path class="cls-10" d="M154.74,80.4l.25.12h-3.92c-.17,0-.28.04-.36.11s-.13.19-.16.35l-.18.75c-.03.12-.08.22-.14.28-.07.07-.16.1-.27.1-.13,0-.23-.05-.29-.13-.07-.08-.09-.21-.07-.39l.17-1.82c.01-.19.07-.33.17-.44.1-.1.25-.16.44-.16h4.97c.2,0,.36.05.46.14s.16.22.16.39c0,.1-.02.21-.07.33-.05.12-.14.26-.28.42l-1.41,2.28c-.27.41-.5.78-.7,1.12-.19.33-.35.64-.48.92-.12.28-.22.54-.27.79-.06.25-.09.49-.09.73,0,.19.03.37.09.52.06.16.13.31.2.45s.14.29.2.43c.06.14.09.29.09.45,0,.28-.08.51-.25.7-.17.18-.42.28-.76.28-.35,0-.63-.15-.84-.43-.21-.29-.31-.71-.31-1.25,0-.46.07-.92.22-1.38.15-.46.38-.95.68-1.47.3-.52.68-1.09,1.14-1.72l1.6-2.46Z"/>
      <path class="cls-10" d="M162.81,84.67c.25,0,.33.12.24.36l-.13.38c-.04.12-.09.2-.15.24-.06.04-.14.06-.25.06h-2.98c-.25,0-.33-.12-.24-.36l.14-.38c.04-.12.09-.2.15-.23.06-.04.14-.06.25-.06h2.98Z"/>
      <path class="cls-10" d="M47.91,101.71c0,.28-.08.48-.23.63s-.37.21-.65.21h-4.02v-.58h3.07c.27,0,.41-.13.41-.39,0-.46-.13-.83-.38-1.12s-.58-.42-.98-.42c-.33,0-.62.09-.87.27-.26.18-.46.44-.6.77-.15.33-.22.73-.22,1.18,0,.84.2,1.49.61,1.94s.93.67,1.58.67c.45,0,.83-.11,1.14-.32.31-.21.53-.46.67-.74.06-.07.11-.13.15-.16.05-.03.09-.05.15-.05.06,0,.11.03.15.08.04.05.06.12.06.21-.02.35-.15.68-.37.98-.22.31-.53.56-.92.75-.39.19-.85.29-1.38.29-.64,0-1.19-.14-1.65-.41-.47-.28-.82-.66-1.08-1.15-.25-.49-.38-1.06-.38-1.7s.13-1.22.38-1.73c.26-.51.62-.91,1.09-1.21.47-.3,1.03-.44,1.68-.44.52,0,.97.11,1.36.32s.69.5.91.86c.22.36.33.78.33,1.25Z"/>
      <path class="cls-10" d="M51.02,99.74v4.79c0,.17.02.29.07.37.04.08.12.13.22.17l.25.07c.16.07.24.17.24.31,0,.21-.12.32-.35.32h-2.24c-.12,0-.21-.03-.28-.08-.07-.06-.1-.14-.1-.24,0-.08.02-.15.07-.21.05-.06.11-.1.2-.14l.26-.06c.1-.03.18-.09.22-.16.05-.07.07-.19.07-.35v-3.56c0-.14-.02-.25-.07-.31-.04-.06-.11-.1-.2-.12l-.4-.02c-.09-.03-.15-.07-.2-.12-.04-.05-.07-.11-.07-.19,0-.08.03-.16.08-.22.06-.06.14-.11.26-.15l.96-.34c.15-.05.27-.09.36-.12.09-.03.18-.04.27-.04.12,0,.21.04.27.11s.1.17.1.29ZM50.84,101.33l-.33-.38.33-.32c.47-.46.92-.8,1.33-1.02.41-.22.81-.33,1.19-.33.53,0,.96.18,1.3.53.34.35.5.83.5,1.43v3.28c0,.17.02.29.07.37.05.08.12.13.22.17l.26.07c.16.07.23.17.23.31,0,.21-.12.32-.35.32h-2.24c-.23,0-.35-.11-.35-.32,0-.14.08-.25.23-.31l.26-.07c.1-.04.17-.09.22-.17.05-.08.07-.2.07-.37v-2.93c0-.42-.1-.74-.3-.96s-.47-.33-.8-.33c-.23,0-.47.06-.74.18-.27.12-.54.32-.83.59l-.28.26ZM55.01,101.32l-.33-.38.27-.28c.47-.47.92-.82,1.33-1.04.41-.22.81-.33,1.18-.33.53,0,.97.18,1.3.53.33.35.5.83.5,1.43v3.28c0,.16.02.27.08.35s.13.13.23.16l.24.06c.09.04.15.09.2.14.05.05.07.12.07.21,0,.1-.03.18-.1.24s-.16.08-.28.08h-2.25c-.23,0-.35-.11-.35-.32,0-.14.08-.25.23-.31l.26-.07c.11-.04.18-.09.23-.17.05-.08.07-.2.07-.37v-2.93c0-.42-.1-.74-.3-.96s-.47-.33-.8-.33c-.23,0-.48.06-.74.19-.27.13-.54.33-.83.62l-.21.21Z"/>
      <path class="cls-10" d="M64.09,99.29c.64,0,1.2.14,1.69.43.49.28.87.68,1.14,1.18.27.5.41,1.07.41,1.72s-.14,1.2-.42,1.7c-.28.5-.66.89-1.16,1.18-.49.29-1.06.43-1.71.43s-1.2-.14-1.69-.42-.87-.68-1.14-1.18-.41-1.08-.41-1.74.14-1.19.42-1.68c.28-.5.67-.89,1.16-1.18.5-.29,1.06-.43,1.71-.43ZM64.62,105.11c.34-.07.61-.23.83-.49.21-.26.36-.59.43-1,.07-.41.06-.85-.03-1.34-.1-.53-.27-.97-.49-1.32s-.5-.6-.8-.75c-.31-.15-.64-.19-1-.11-.34.06-.61.22-.84.48-.22.26-.37.59-.44,1s-.06.86.03,1.35c.11.53.27.97.5,1.32.23.35.5.59.82.74.32.15.65.19,1,.12Z"/>
      <path class="cls-10" d="M68.56,100.16l-.33-.05c-.1-.03-.16-.08-.2-.14-.04-.06-.06-.14-.06-.22,0-.09.03-.17.1-.23s.16-.09.27-.09h.34c.1,0,.19-.03.26-.08.07-.05.13-.15.19-.29l.31-.82c.06-.11.14-.2.23-.27s.17-.1.26-.1c.1,0,.18.03.25.1s.1.16.1.29v5.75c0,.28.06.49.19.64s.3.22.52.22c.13,0,.24-.02.33-.07.09-.04.17-.09.23-.15s.12-.1.18-.15.1-.06.16-.06c.06,0,.12.03.16.08.04.05.05.13.04.23,0,.19-.08.37-.22.55-.14.18-.32.32-.56.43s-.5.17-.78.17c-.5,0-.9-.14-1.18-.41-.29-.27-.43-.69-.43-1.25v-3.58c0-.15-.02-.27-.07-.35s-.14-.13-.27-.17ZM69.63,100.18v-.76h2.08c.12,0,.22.02.28.07s.1.12.1.22c0,.13-.06.25-.18.33-.12.09-.3.13-.56.13h-1.73Z"/>
      <path class="cls-10" d="M75.04,99.74v4.79c0,.16.03.27.08.35.05.07.13.13.23.16l.24.06c.09.04.15.08.2.14.05.06.07.13.07.21,0,.1-.03.18-.1.24s-.16.08-.28.08h-2.25c-.12,0-.21-.03-.28-.08-.07-.06-.1-.14-.1-.24,0-.08.02-.15.07-.21.05-.06.11-.1.2-.14l.26-.06c.1-.04.18-.09.22-.16s.07-.19.07-.35v-3.56c0-.14-.02-.25-.07-.31-.04-.06-.11-.1-.2-.12l-.4-.02c-.09-.03-.15-.07-.2-.12-.04-.05-.07-.11-.07-.19,0-.08.03-.16.08-.22.06-.06.14-.11.26-.15l.97-.34c.14-.05.26-.09.36-.12.1-.03.19-.04.27-.04.12,0,.2.04.27.11s.09.17.09.29ZM74.21,98.1c-.29,0-.52-.08-.7-.25-.18-.17-.27-.38-.27-.65s.09-.48.27-.65c.18-.17.41-.25.7-.25s.53.08.71.25c.18.17.27.38.27.64s-.09.49-.27.65c-.18.17-.42.25-.71.25Z"/>
      <path class="cls-10" d="M79.9,99.29c.64,0,1.2.14,1.69.43.49.28.87.68,1.14,1.18.27.5.41,1.07.41,1.72s-.14,1.2-.42,1.7c-.28.5-.66.89-1.16,1.18-.49.29-1.06.43-1.71.43s-1.2-.14-1.69-.42-.87-.68-1.14-1.18-.41-1.08-.41-1.74.14-1.19.42-1.68c.28-.5.67-.89,1.16-1.18.5-.29,1.06-.43,1.71-.43ZM80.42,105.11c.34-.07.61-.23.83-.49.21-.26.36-.59.43-1,.07-.41.06-.85-.03-1.34-.1-.53-.27-.97-.49-1.32s-.5-.6-.8-.75c-.31-.15-.64-.19-1-.11-.34.06-.61.22-.84.48-.22.26-.37.59-.44,1s-.06.86.03,1.35c.11.53.27.97.5,1.32.23.35.5.59.82.74.32.15.65.19,1,.12Z"/>
      <path class="cls-10" d="M86.26,99.74v4.79c0,.17.02.29.07.37.05.08.12.13.23.17l.25.07c.16.07.23.17.23.31,0,.21-.12.32-.35.32h-2.25c-.12,0-.21-.03-.28-.08-.07-.06-.1-.14-.1-.24,0-.08.02-.15.07-.21.05-.06.11-.1.2-.14l.25-.06c.1-.03.18-.09.23-.16.05-.07.08-.19.08-.35v-3.56c0-.14-.02-.25-.07-.31-.04-.06-.11-.1-.2-.12l-.41-.02c-.08-.03-.15-.07-.19-.12-.04-.05-.07-.11-.07-.19,0-.08.03-.16.08-.22.05-.06.14-.11.27-.15l.97-.34c.14-.05.26-.09.36-.12.1-.03.19-.04.27-.04.12,0,.2.04.27.11s.09.17.09.29ZM86.06,101.32l-.32-.38.32-.32c.47-.46.91-.79,1.33-1.01.41-.22.82-.33,1.21-.33.55,0,1,.17,1.33.52.33.35.5.82.5,1.4v3.32c0,.16.02.28.07.35.05.08.12.13.22.16l.25.06c.08.04.15.09.19.14s.07.12.07.21c0,.1-.03.18-.1.24-.06.06-.16.08-.28.08h-2.25c-.23,0-.35-.11-.35-.32,0-.14.08-.25.23-.31l.26-.07c.1-.04.17-.09.22-.17.05-.08.07-.2.07-.37v-2.97c0-.41-.1-.72-.3-.93-.2-.22-.47-.33-.82-.33-.25,0-.51.06-.77.18s-.54.32-.82.58l-.28.26Z"/>
      <path class="cls-10" d="M92.06,104.34c0-.56.24-1.01.73-1.36.48-.35,1.14-.52,1.96-.52.25,0,.51.02.76.06s.47.1.65.17l-.12.54c-.18-.07-.36-.12-.55-.16-.19-.04-.4-.06-.62-.06-.42,0-.76.1-1.01.29s-.37.46-.37.8.1.58.3.75c.2.17.46.25.76.25s.61-.08.88-.22c.27-.15.51-.36.71-.62l.17.48c-.26.38-.6.68-1.01.89-.42.21-.86.32-1.34.32-.57,0-1.02-.14-1.36-.42-.34-.28-.51-.67-.51-1.17ZM95.99,104.96v-.22l-.1-.11v-3.58c0-.36-.1-.64-.29-.84-.2-.2-.47-.29-.81-.29-.31,0-.56.07-.73.2s-.26.29-.26.49v.39c0,.23-.07.4-.2.53-.13.12-.32.18-.57.18-.23,0-.4-.06-.51-.18-.11-.12-.17-.28-.17-.47,0-.3.11-.58.32-.85s.53-.48.94-.65c.41-.17.91-.25,1.5-.25.7,0,1.24.17,1.6.5.36.33.54.78.54,1.36v3.5c0,.11.03.19.08.26.05.07.13.1.23.1.06,0,.12-.01.16-.04s.08-.05.11-.08c.02-.03.05-.05.08-.07.03-.02.06-.03.1-.03.07,0,.12.03.16.08s.06.12.06.2c0,.14-.04.28-.13.41s-.22.24-.38.33c-.17.09-.36.13-.58.13-.33,0-.6-.09-.81-.26-.21-.17-.32-.41-.32-.71Z"/>
      <path class="cls-10" d="M101.06,95.86v8.67c0,.16.02.28.07.35.05.08.12.13.22.16l.25.06c.09.04.15.08.2.14.05.06.07.13.07.21,0,.1-.03.18-.1.24s-.16.08-.28.08h-2.25c-.12,0-.21-.03-.27-.08s-.1-.14-.1-.24c0-.08.02-.15.07-.21.05-.06.11-.1.2-.14l.25-.06c.1-.03.18-.09.22-.16.05-.07.07-.19.07-.35v-7.44c0-.15-.02-.25-.07-.31-.04-.06-.11-.1-.2-.12l-.41-.02c-.08-.03-.15-.07-.19-.12-.04-.05-.07-.11-.07-.18,0-.08.03-.16.08-.22.05-.06.14-.11.26-.15l.97-.34c.14-.06.26-.1.36-.13.1-.03.18-.04.26-.04.12,0,.21.04.27.11.06.08.1.17.1.29Z"/>
      <path class="cls-10" d="M107.33,95.86v9.16l-.49.58c-.11.07-.21.13-.31.17-.1.04-.19.06-.28.06-.1,0-.17-.03-.22-.08-.05-.06-.08-.14-.08-.25v-8.41c0-.15-.02-.25-.07-.31-.04-.06-.11-.1-.2-.12l-.4-.02c-.09-.03-.15-.07-.19-.12-.04-.05-.06-.11-.06-.18,0-.08.03-.16.08-.22.05-.06.14-.11.26-.15l.97-.34c.14-.06.26-.1.36-.13.09-.03.18-.04.27-.04.12,0,.2.04.27.11.06.08.1.17.1.29ZM106.98,101.47l-.23-.46c.32-.54.71-.96,1.17-1.27.46-.3.95-.46,1.49-.46s.99.13,1.39.4.72.64.95,1.12c.23.48.34,1.04.34,1.67,0,.72-.13,1.34-.4,1.86s-.63.91-1.09,1.18c-.46.27-.97.41-1.54.41-.53,0-1-.14-1.42-.41-.42-.27-.75-.64-.99-1.12l.35-.59c.22.44.49.77.81.99.32.22.67.33,1.04.33.34,0,.64-.1.91-.29.27-.2.49-.48.65-.85.16-.37.24-.82.24-1.35s-.08-.96-.23-1.32c-.16-.36-.37-.64-.64-.83s-.58-.29-.93-.29c-.39,0-.74.11-1.06.34-.31.22-.58.54-.82.95Z"/>
      <path class="cls-10" d="M113.11,104.34c0-.56.24-1.01.73-1.36.48-.35,1.14-.52,1.96-.52.25,0,.51.02.76.06s.47.1.65.17l-.12.54c-.18-.07-.36-.12-.55-.16-.19-.04-.4-.06-.62-.06-.42,0-.76.1-1.01.29s-.37.46-.37.8.1.58.3.75c.2.17.46.25.76.25s.61-.08.88-.22c.27-.15.51-.36.71-.62l.17.48c-.26.38-.6.68-1.01.89-.42.21-.86.32-1.34.32-.57,0-1.02-.14-1.36-.42-.34-.28-.51-.67-.51-1.17ZM117.03,104.96v-.22l-.1-.11v-3.58c0-.36-.1-.64-.29-.84-.2-.2-.47-.29-.81-.29-.31,0-.56.07-.73.2s-.26.29-.26.49v.39c0,.23-.07.4-.2.53-.13.12-.32.18-.57.18-.23,0-.4-.06-.51-.18-.11-.12-.17-.28-.17-.47,0-.3.11-.58.32-.85s.53-.48.94-.65c.41-.17.91-.25,1.5-.25.7,0,1.24.17,1.6.5.36.33.54.78.54,1.36v3.5c0,.11.03.19.08.26.05.07.13.1.23.1.06,0,.12-.01.16-.04s.08-.05.11-.08c.02-.03.05-.05.08-.07.03-.02.06-.03.1-.03.07,0,.12.03.16.08s.06.12.06.2c0,.14-.04.28-.13.41s-.22.24-.38.33c-.17.09-.36.13-.58.13-.33,0-.6-.09-.81-.26-.21-.17-.32-.41-.32-.71Z"/>
      <path class="cls-10" d="M125.26,105.72c.36.16.62.36.78.6.16.24.24.53.24.88,0,.6-.29,1.08-.88,1.46-.59.38-1.45.56-2.59.56-.7,0-1.28-.07-1.72-.2-.44-.13-.77-.32-.97-.55-.21-.23-.31-.5-.31-.79,0-.41.18-.76.53-1.06s.94-.5,1.75-.62l.21.25c-.47.09-.81.25-1.03.46s-.33.44-.33.69c0,.31.15.57.46.78s.86.32,1.65.32c.45,0,.82-.04,1.11-.12.29-.08.52-.2.66-.34.15-.15.22-.32.22-.51,0-.18-.06-.33-.17-.46-.12-.13-.31-.24-.6-.34-.28-.1-.68-.18-1.18-.26-.66-.1-1.17-.22-1.51-.35-.35-.13-.58-.28-.7-.45-.12-.17-.18-.36-.18-.57,0-.15.05-.31.14-.46s.25-.28.47-.39c.22-.11.5-.19.86-.23l.19.13c-.14.07-.24.15-.31.23-.07.08-.1.16-.1.25,0,.1.05.19.15.27.1.08.29.16.56.23.27.07.66.15,1.17.23.59.09,1.06.21,1.42.37ZM125.36,103.11c-.25.38-.58.68-1.01.9-.43.21-.91.32-1.46.32-.59,0-1.1-.1-1.53-.31-.43-.21-.77-.5-1.01-.87-.24-.37-.36-.8-.36-1.28,0-.51.12-.96.37-1.34.25-.38.59-.69,1.03-.9.44-.22.95-.33,1.53-.33s1.07.11,1.49.33c.42.22.74.52.97.89.23.38.35.8.35,1.27,0,.5-.12.94-.37,1.32ZM122,100.14c-.21.15-.36.36-.47.62s-.15.57-.13.93c.02.42.1.78.24,1.09.14.31.33.54.56.7.23.16.5.24.79.24.43,0,.77-.17,1.01-.5.25-.33.36-.77.33-1.31-.03-.61-.19-1.1-.48-1.46-.29-.36-.66-.54-1.12-.54-.29,0-.53.08-.74.23ZM124.35,99.52c.19-.37.42-.65.67-.84.25-.18.52-.28.82-.28.24,0,.44.07.6.2.16.13.23.32.23.55,0,.21-.05.37-.15.49-.1.12-.24.19-.41.19-.11,0-.21-.02-.28-.07s-.14-.1-.19-.16-.1-.11-.16-.16-.13-.07-.21-.07c-.12,0-.23.06-.33.18-.1.12-.23.31-.38.57l-.46-.15.26-.46Z"/>
      <path class="cls-10" d="M132.34,105.72c.36.16.62.36.78.6.16.24.24.53.24.88,0,.6-.29,1.08-.88,1.46-.59.38-1.45.56-2.59.56-.7,0-1.28-.07-1.72-.2-.44-.13-.77-.32-.97-.55-.21-.23-.31-.5-.31-.79,0-.41.18-.76.53-1.06s.94-.5,1.75-.62l.21.25c-.47.09-.81.25-1.03.46s-.33.44-.33.69c0,.31.15.57.46.78s.86.32,1.65.32c.45,0,.82-.04,1.11-.12.29-.08.52-.2.66-.34.15-.15.22-.32.22-.51,0-.18-.06-.33-.17-.46-.12-.13-.31-.24-.6-.34-.28-.1-.68-.18-1.18-.26-.66-.1-1.17-.22-1.51-.35-.35-.13-.58-.28-.7-.45-.12-.17-.18-.36-.18-.57,0-.15.05-.31.14-.46s.25-.28.47-.39c.22-.11.5-.19.86-.23l.19.13c-.14.07-.24.15-.31.23-.07.08-.1.16-.1.25,0,.1.05.19.15.27.1.08.29.16.56.23.27.07.66.15,1.17.23.59.09,1.06.21,1.42.37ZM132.44,103.11c-.25.38-.58.68-1.01.9-.43.21-.91.32-1.46.32-.59,0-1.1-.1-1.53-.31-.43-.21-.77-.5-1.01-.87-.24-.37-.36-.8-.36-1.28,0-.51.12-.96.37-1.34.25-.38.59-.69,1.03-.9.44-.22.95-.33,1.53-.33s1.07.11,1.49.33c.42.22.74.52.97.89.23.38.35.8.35,1.27,0,.5-.12.94-.37,1.32ZM129.08,100.14c-.21.15-.36.36-.47.62s-.15.57-.13.93c.02.42.1.78.24,1.09.14.31.33.54.56.7.23.16.5.24.79.24.43,0,.77-.17,1.01-.5.25-.33.36-.77.33-1.31-.03-.61-.19-1.1-.48-1.46-.29-.36-.66-.54-1.12-.54-.29,0-.53.08-.74.23ZM131.43,99.52c.19-.37.42-.65.67-.84.25-.18.52-.28.82-.28.24,0,.44.07.6.2.16.13.23.32.23.55,0,.21-.05.37-.15.49-.1.12-.24.19-.41.19-.11,0-.21-.02-.28-.07s-.14-.1-.19-.16-.1-.11-.16-.16-.13-.07-.21-.07c-.12,0-.23.06-.33.18-.1.12-.23.31-.38.57l-.46-.15.26-.46Z"/>
      <path class="cls-10" d="M134.17,104.34c0-.56.24-1.01.73-1.36.48-.35,1.14-.52,1.96-.52.25,0,.51.02.76.06s.47.1.65.17l-.12.54c-.18-.07-.36-.12-.55-.16-.19-.04-.4-.06-.62-.06-.42,0-.76.1-1.01.29s-.37.46-.37.8.1.58.3.75c.2.17.46.25.76.25s.61-.08.88-.22c.27-.15.51-.36.71-.62l.17.48c-.26.38-.6.68-1.01.89-.42.21-.86.32-1.34.32-.57,0-1.02-.14-1.36-.42-.34-.28-.51-.67-.51-1.17ZM138.09,104.96v-.22l-.1-.11v-3.58c0-.36-.1-.64-.29-.84-.2-.2-.47-.29-.81-.29-.31,0-.56.07-.73.2s-.26.29-.26.49v.39c0,.23-.07.4-.2.53-.13.12-.32.18-.57.18-.23,0-.4-.06-.51-.18-.11-.12-.17-.28-.17-.47,0-.3.11-.58.32-.85s.53-.48.94-.65c.41-.17.91-.25,1.5-.25.7,0,1.24.17,1.6.5.36.33.54.78.54,1.36v3.5c0,.11.03.19.08.26.05.07.13.1.23.1.06,0,.12-.01.16-.04s.08-.05.11-.08c.02-.03.05-.05.08-.07.03-.02.06-.03.1-.03.07,0,.12.03.16.08s.06.12.06.2c0,.14-.04.28-.13.41s-.22.24-.38.33c-.17.09-.36.13-.58.13-.33,0-.6-.09-.81-.26-.21-.17-.32-.41-.32-.71Z"/>
      <path class="cls-10" d="M146.33,105.72c.36.16.62.36.78.6.16.24.24.53.24.88,0,.6-.29,1.08-.88,1.46-.59.38-1.45.56-2.59.56-.7,0-1.28-.07-1.72-.2-.44-.13-.77-.32-.97-.55-.21-.23-.31-.5-.31-.79,0-.41.18-.76.53-1.06s.94-.5,1.75-.62l.21.25c-.47.09-.81.25-1.03.46s-.33.44-.33.69c0,.31.15.57.46.78s.86.32,1.65.32c.45,0,.82-.04,1.11-.12.29-.08.52-.2.66-.34.15-.15.22-.32.22-.51,0-.18-.06-.33-.17-.46-.12-.13-.31-.24-.6-.34-.28-.1-.68-.18-1.18-.26-.66-.1-1.17-.22-1.51-.35-.35-.13-.58-.28-.7-.45-.12-.17-.18-.36-.18-.57,0-.15.05-.31.14-.46s.25-.28.47-.39c.22-.11.5-.19.86-.23l.19.13c-.14.07-.24.15-.31.23-.07.08-.1.16-.1.25,0,.1.05.19.15.27.1.08.29.16.56.23.27.07.66.15,1.17.23.59.09,1.06.21,1.42.37ZM146.43,103.11c-.25.38-.58.68-1.01.9-.43.21-.91.32-1.46.32-.59,0-1.1-.1-1.53-.31-.43-.21-.77-.5-1.01-.87-.24-.37-.36-.8-.36-1.28,0-.51.12-.96.37-1.34.25-.38.59-.69,1.03-.9.44-.22.95-.33,1.53-.33s1.07.11,1.49.33c.42.22.74.52.97.89.23.38.35.8.35,1.27,0,.5-.12.94-.37,1.32ZM143.06,100.14c-.21.15-.36.36-.47.62s-.15.57-.13.93c.02.42.1.78.24,1.09.14.31.33.54.56.7.23.16.5.24.79.24.43,0,.77-.17,1.01-.5.25-.33.36-.77.33-1.31-.03-.61-.19-1.1-.48-1.46-.29-.36-.66-.54-1.12-.54-.29,0-.53.08-.74.23ZM145.41,99.52c.19-.37.42-.65.67-.84.25-.18.52-.28.82-.28.24,0,.44.07.6.2.16.13.23.32.23.55,0,.21-.05.37-.15.49-.1.12-.24.19-.41.19-.11,0-.21-.02-.28-.07s-.14-.1-.19-.16-.1-.11-.16-.16-.13-.07-.21-.07c-.12,0-.23.06-.33.18-.1.12-.23.31-.38.57l-.46-.15.26-.46Z"/>
      <path class="cls-10" d="M153.8,101.71c0,.28-.08.48-.23.63s-.37.21-.65.21h-4.02v-.58h3.07c.27,0,.41-.13.41-.39,0-.46-.13-.83-.38-1.12s-.58-.42-.98-.42c-.33,0-.62.09-.87.27-.26.18-.46.44-.6.77-.15.33-.22.73-.22,1.18,0,.84.2,1.49.61,1.94s.93.67,1.58.67c.45,0,.83-.11,1.14-.32.31-.21.53-.46.67-.74.06-.07.11-.13.15-.16.05-.03.09-.05.15-.05.06,0,.11.03.15.08.04.05.06.12.06.21-.02.35-.15.68-.37.98-.22.31-.53.56-.92.75-.39.19-.85.29-1.38.29-.64,0-1.19-.14-1.65-.41-.47-.28-.82-.66-1.08-1.15-.25-.49-.38-1.06-.38-1.7s.13-1.22.38-1.73c.26-.51.62-.91,1.09-1.21.47-.3,1.03-.44,1.68-.44.52,0,.97.11,1.36.32s.69.5.91.86c.22.36.33.78.33,1.25Z"/>
      <path class="cls-10" d="M72.77,122.69h-.44c-.14,0-.26-.04-.35-.12-.1-.08-.18-.21-.24-.4l-1.6-4.7c-.05-.15-.1-.26-.16-.35s-.13-.14-.2-.17l-.26-.08c-.09-.06-.16-.11-.2-.16s-.06-.11-.06-.18c0-.1.03-.18.1-.24.07-.06.16-.08.27-.08h2.42c.12,0,.2.03.26.08s.08.13.08.23c0,.08-.02.16-.07.21-.05.06-.12.11-.21.14l-.23.07c-.19.06-.29.14-.3.25,0,.11.03.27.1.49l1.39,4.3-.33.04,1.66-4.74.57.48-1.6,4.44c-.07.18-.16.3-.26.37-.1.07-.22.11-.33.11ZM76.83,122.69h-.44c-.12,0-.24-.04-.33-.12-.1-.08-.18-.21-.25-.39l-1.62-4.79c-.04-.12-.08-.21-.13-.27-.05-.06-.13-.11-.22-.15l-.26-.08c-.09-.05-.15-.1-.19-.15-.04-.05-.06-.11-.06-.19,0-.21.12-.32.35-.32h2.36c.22,0,.33.11.33.32,0,.09-.02.16-.07.2-.05.05-.12.09-.22.14l-.23.08c-.15.05-.23.13-.23.24s.03.26.09.46l1.4,4.33-.32.03,1.4-4.37c.06-.2.08-.35.04-.46s-.14-.19-.29-.25l-.27-.07c-.1-.04-.17-.08-.21-.13-.05-.05-.07-.12-.07-.21,0-.1.03-.18.09-.24.06-.06.15-.08.25-.08h1.84c.11,0,.21.03.27.08.07.05.1.13.1.24,0,.08-.02.14-.06.19s-.11.1-.21.15l-.23.06c-.09.04-.17.11-.24.21s-.15.25-.22.46l-1.56,4.59c-.06.18-.14.3-.24.37-.1.07-.22.1-.35.1Z"/>
      <path class="cls-10" d="M86.02,118.51c0,.28-.08.48-.23.63s-.37.21-.65.21h-4.02v-.58h3.07c.27,0,.41-.13.41-.39,0-.46-.13-.83-.38-1.12s-.58-.42-.98-.42c-.33,0-.62.09-.87.27-.26.18-.46.44-.6.77-.15.33-.22.73-.22,1.18,0,.84.2,1.49.61,1.94s.93.67,1.58.67c.45,0,.83-.11,1.14-.32.31-.21.53-.46.67-.74.06-.07.11-.13.15-.16.05-.03.09-.05.15-.05.06,0,.11.03.15.08.04.05.06.12.06.21-.02.35-.15.68-.37.98-.22.31-.53.56-.92.75-.39.19-.85.29-1.38.29-.64,0-1.19-.14-1.65-.41-.47-.28-.82-.66-1.08-1.15-.25-.49-.38-1.06-.38-1.7s.13-1.22.38-1.73c.26-.51.62-.91,1.09-1.21.47-.3,1.03-.44,1.68-.44.52,0,.97.11,1.36.32s.69.5.91.86c.22.36.33.78.33,1.25Z"/>
      <path class="cls-10" d="M89.12,112.66v8.67c0,.16.02.28.07.35.05.08.12.13.22.16l.25.06c.09.04.15.08.2.14.05.06.07.13.07.21,0,.1-.03.18-.1.24s-.16.08-.28.08h-2.25c-.12,0-.21-.03-.27-.08s-.1-.14-.1-.24c0-.08.02-.15.07-.21.05-.06.11-.1.2-.14l.25-.06c.1-.03.18-.09.22-.16.05-.07.07-.19.07-.35v-7.44c0-.15-.02-.25-.07-.31-.04-.06-.11-.1-.2-.12l-.41-.02c-.08-.03-.15-.07-.19-.12-.04-.05-.07-.11-.07-.18,0-.08.03-.16.08-.22.05-.06.14-.11.26-.15l.97-.34c.14-.06.26-.1.36-.13.1-.03.18-.04.26-.04.12,0,.21.04.27.11.06.08.1.17.1.29Z"/>
      <path class="cls-10" d="M96.31,117.87c0,.24-.07.43-.21.58-.14.15-.32.22-.54.22s-.4-.07-.51-.2c-.12-.13-.18-.31-.18-.53v-.2c0-.27-.1-.49-.31-.66-.21-.17-.49-.25-.86-.25-.34,0-.64.09-.9.28-.26.18-.47.44-.62.78-.15.33-.22.72-.22,1.17,0,.55.09,1.02.28,1.4.19.38.45.67.78.87.33.2.7.3,1.12.3.46,0,.83-.1,1.11-.3.28-.2.49-.44.63-.71.06-.08.11-.13.16-.16s.09-.05.14-.05c.07,0,.12.03.16.08.04.05.05.13.05.22-.02.35-.15.68-.37.98s-.52.55-.91.75c-.39.19-.83.29-1.34.29-.61,0-1.14-.14-1.6-.41-.46-.27-.82-.65-1.08-1.14s-.39-1.05-.39-1.69.13-1.22.39-1.74c.26-.51.63-.92,1.11-1.22s1.04-.45,1.69-.45c.5,0,.93.08,1.3.25.36.17.64.39.84.66s.29.56.29.88Z"/>
      <path class="cls-10" d="M100.45,116.09c.64,0,1.2.14,1.69.43.49.28.87.68,1.14,1.18.27.5.41,1.07.41,1.72s-.14,1.2-.42,1.7c-.28.5-.66.89-1.16,1.18-.49.29-1.06.43-1.71.43s-1.2-.14-1.69-.42-.87-.68-1.14-1.18-.41-1.08-.41-1.74.14-1.19.42-1.68c.28-.5.67-.89,1.16-1.18.5-.29,1.06-.43,1.71-.43ZM100.97,121.91c.34-.07.61-.23.83-.49.21-.26.36-.59.43-1,.07-.41.06-.85-.03-1.34-.1-.53-.27-.97-.49-1.32s-.5-.6-.8-.75c-.31-.15-.64-.19-1-.11-.34.06-.61.22-.84.48-.22.26-.37.59-.44,1s-.06.86.03,1.35c.11.53.27.97.5,1.32.23.35.5.59.82.74.32.15.65.19,1,.12Z"/>
      <path class="cls-10" d="M106.81,116.54v4.79c0,.17.02.29.07.37.04.08.12.13.22.17l.25.07c.16.07.24.17.24.31,0,.21-.12.32-.35.32h-2.24c-.12,0-.21-.03-.28-.08-.07-.06-.1-.14-.1-.24,0-.08.02-.15.07-.21.05-.06.11-.1.2-.14l.26-.06c.1-.03.18-.09.22-.16.05-.07.07-.19.07-.35v-3.56c0-.14-.02-.25-.07-.31-.04-.06-.11-.1-.2-.12l-.4-.02c-.09-.03-.15-.07-.2-.12-.04-.05-.07-.11-.07-.19,0-.08.03-.16.08-.22.06-.06.14-.11.26-.15l.96-.34c.15-.05.27-.09.36-.12.09-.03.18-.04.27-.04.12,0,.21.04.27.11s.1.17.1.29ZM106.62,118.13l-.33-.38.33-.32c.47-.46.92-.8,1.33-1.02.41-.22.81-.33,1.19-.33.53,0,.96.18,1.3.53.34.35.5.83.5,1.43v3.28c0,.17.02.29.07.37.05.08.12.13.22.17l.26.07c.16.07.23.17.23.31,0,.21-.12.32-.35.32h-2.24c-.23,0-.35-.11-.35-.32,0-.14.08-.25.23-.31l.26-.07c.1-.04.17-.09.22-.17.05-.08.07-.2.07-.37v-2.93c0-.42-.1-.74-.3-.96s-.47-.33-.8-.33c-.23,0-.47.06-.74.18-.27.12-.54.32-.83.59l-.28.26ZM110.79,118.12l-.33-.38.27-.28c.47-.47.92-.82,1.33-1.04.41-.22.81-.33,1.18-.33.53,0,.97.18,1.3.53.33.35.5.83.5,1.43v3.28c0,.16.02.27.08.35s.13.13.23.16l.24.06c.09.04.15.09.2.14.05.05.07.12.07.21,0,.1-.03.18-.1.24s-.16.08-.28.08h-2.25c-.23,0-.35-.11-.35-.32,0-.14.08-.25.23-.31l.26-.07c.11-.04.18-.09.23-.17.05-.08.07-.2.07-.37v-2.93c0-.42-.1-.74-.3-.96s-.47-.33-.8-.33c-.23,0-.48.06-.74.19-.27.13-.54.33-.83.62l-.21.21Z"/>
      <path class="cls-10" d="M122.35,118.51c0,.28-.08.48-.23.63s-.37.21-.65.21h-4.02v-.58h3.07c.27,0,.41-.13.41-.39,0-.46-.13-.83-.38-1.12s-.58-.42-.98-.42c-.33,0-.62.09-.87.27-.26.18-.46.44-.6.77-.15.33-.22.73-.22,1.18,0,.84.2,1.49.61,1.94s.93.67,1.58.67c.45,0,.83-.11,1.14-.32.31-.21.53-.46.67-.74.06-.07.11-.13.15-.16.05-.03.09-.05.15-.05.06,0,.11.03.15.08.04.05.06.12.06.21-.02.35-.15.68-.37.98-.22.31-.53.56-.92.75-.39.19-.85.29-1.38.29-.64,0-1.19-.14-1.65-.41-.47-.28-.82-.66-1.08-1.15-.25-.49-.38-1.06-.38-1.7s.13-1.22.38-1.73c.26-.51.62-.91,1.09-1.21.47-.3,1.03-.44,1.68-.44.52,0,.97.11,1.36.32s.69.5.91.86c.22.36.33.78.33,1.25Z"/>
      <path class="cls-10" d="M124.73,122.69c-.17,0-.33-.04-.48-.13-.15-.09-.26-.21-.35-.36-.09-.15-.13-.31-.13-.49,0-.18.04-.35.13-.5.08-.15.2-.27.35-.35.15-.09.31-.13.48-.13.18,0,.35.04.49.13.14.09.26.21.34.35.08.15.12.32.12.5s-.04.33-.12.49c-.08.15-.2.27-.34.36-.14.09-.31.13-.49.13ZM124.76,112.31c.31,0,.53.08.67.23s.21.35.21.6c0,.07,0,.16-.01.27s-.02.21-.03.31l-.42,5.47c-.02.18-.07.3-.13.38s-.16.11-.28.11-.21-.04-.28-.11-.11-.2-.13-.37l-.42-5.48c-.01-.1-.02-.21-.03-.31,0-.11-.01-.2-.01-.27,0-.25.07-.45.21-.6.14-.15.36-.23.67-.23Z"/>
    </g>
  </g>
</svg>